<svg version="1.1" xmlns="http://www.w3.org/2000/svg" viewBox="0 0 519.3333282470703 242.66665649414062" width="519.3333282470703" height="242.66665649414062">
  <!-- svg-source:excalidraw -->
  
  <defs>
    <style class="style-fonts">
      @font-face {
        font-family: "Virgil";
        src: url("https://excalidraw.com/Virgil.woff2");
      }
      @font-face {
        font-family: "Cascadia";
        src: url("https://excalidraw.com/Cascadia.woff2");
      }
    </style>
    
  </defs>
  <rect x="0" y="0" width="519.3333282470703" height="242.66665649414062" fill="#ffffff"/><g transform="translate(219.3333282470703 17.333328247070312) rotate(0 9.666671752929688 11.333343505859375)" stroke="none"><path fill="#1e1e1e" d="M 2.19,-0.15 Q 2.19,-0.15 2.26,2.53 2.34,5.22 2.52,7.48 2.70,9.73 2.76,11.91 2.82,14.10 2.88,15.98 2.94,17.87 3.03,19.43 3.11,21.00 3.18,22.44 3.26,23.87 3.33,25.06 3.41,26.24 3.55,27.61 3.69,28.99 3.65,29.27 3.62,29.55 3.52,29.82 3.42,30.08 3.26,30.32 3.10,30.55 2.88,30.74 2.67,30.93 2.42,31.06 2.17,31.19 1.89,31.26 1.62,31.33 1.33,31.33 1.05,31.33 0.77,31.27 0.50,31.20 0.24,31.07 -0.00,30.94 -0.21,30.75 -0.42,30.56 -0.59,30.33 -0.75,30.09 -0.85,29.83 -0.95,29.56 -0.99,29.28 -1.02,29.00 -0.79,27.39 -0.56,25.79 -0.36,24.49 -0.17,23.19 -0.09,21.91 -0.01,20.63 0.02,19.29 0.05,17.96 0.09,16.44 0.13,14.92 0.38,13.17 0.62,11.42 0.69,10.04 0.77,8.67 1.03,6.99 1.29,5.32 1.57,3.97 1.85,2.62 2.15,1.44 2.44,0.27 2.75,-0.81 3.05,-1.89 4.07,-3.66 5.09,-5.42 5.90,-6.14 6.71,-6.86 8.17,-7.78 9.62,-8.70 11.59,-9.39 13.56,-10.08 15.54,-9.96 17.53,-9.85 19.32,-8.35 21.10,-6.84 21.70,-4.89 22.30,-2.95 22.37,-1.87 22.45,-0.79 22.25,0.39 22.06,1.58 20.67,3.76 19.29,5.94 18.40,6.78 17.51,7.62 16.40,8.48 15.28,9.34 13.50,10.02 11.72,10.71 10.44,11.23 9.16,11.75 7.68,12.21 6.20,12.68 5.06,13.06 3.91,13.44 2.50,13.82 1.10,14.20 0.74,14.21 0.39,14.22 0.04,14.14 -0.29,14.06 -0.61,13.90 -0.93,13.75 -1.20,13.52 -1.47,13.29 -1.68,13.00 -1.89,12.71 -2.02,12.38 -2.16,12.05 -2.21,11.70 -2.26,11.35 -2.22,11.00 -2.19,10.64 -2.07,10.31 -1.95,9.97 -1.75,9.68 -1.56,9.38 -1.30,9.14 -1.04,8.90 -0.73,8.73 -0.41,8.55 -0.07,8.46 0.26,8.37 1.41,8.33 2.55,8.28 5.02,9.02 7.48,9.76 8.60,10.52 9.72,11.29 10.73,12.35 11.75,13.42 12.46,14.63 13.17,15.84 13.66,16.96 14.14,18.08 14.42,19.38 14.69,20.68 15.22,22.49 15.76,24.31 15.67,24.30 15.58,24.30 16.04,24.45 16.51,24.60 16.90,24.89 17.30,25.18 17.58,25.58 17.86,25.98 18.00,26.46 18.14,26.93 18.12,27.42 18.10,27.91 17.92,28.37 17.75,28.82 17.44,29.20 17.13,29.58 16.71,29.84 16.29,30.10 15.82,30.21 15.34,30.32 14.85,30.28 14.36,30.23 13.91,30.03 13.46,29.83 13.10,29.50 12.74,29.17 12.51,28.74 12.27,28.31 12.18,27.83 12.10,27.34 12.17,26.86 12.24,26.37 12.46,25.94 12.69,25.50 13.04,25.16 13.39,24.81 13.83,24.60 14.27,24.39 14.76,24.33 15.25,24.27 15.73,24.37 16.21,24.47 16.63,24.71 17.06,24.96 17.38,25.33 17.70,25.70 17.89,26.15 18.08,26.60 18.11,27.09 18.15,27.58 18.02,28.06 17.90,28.53 17.63,28.94 17.36,29.35 16.97,29.65 16.59,29.96 16.13,30.12 15.66,30.28 15.17,30.29 14.68,30.30 14.68,30.30 14.68,30.30 12.34,28.18 10.00,26.07 9.68,25.02 9.36,23.97 9.07,22.85 8.78,21.73 8.37,20.23 7.95,18.73 7.11,17.46 6.27,16.18 4.94,15.28 3.62,14.38 2.36,14.29 1.10,14.20 0.74,14.21 0.39,14.22 0.04,14.14 -0.29,14.06 -0.61,13.90 -0.93,13.75 -1.20,13.52 -1.47,13.29 -1.68,13.00 -1.89,12.71 -2.02,12.38 -2.16,12.05 -2.21,11.70 -2.26,11.35 -2.22,11.00 -2.19,10.64 -2.07,10.31 -1.95,9.97 -1.75,9.68 -1.56,9.38 -1.30,9.14 -1.04,8.90 -0.73,8.73 -0.42,8.55 -0.07,8.46 0.26,8.37 -0.28,8.78 -0.82,9.18 0.65,8.64 2.13,8.09 3.27,7.71 4.41,7.32 5.61,6.90 6.81,6.47 8.21,5.79 9.62,5.11 11.33,4.12 13.05,3.14 13.89,2.25 14.74,1.36 15.39,0.44 16.05,-0.47 16.11,-2.15 16.18,-3.84 14.93,-4.00 13.68,-4.16 12.45,-3.56 11.21,-2.96 9.87,-2.06 8.54,-1.15 7.91,0.24 7.28,1.65 6.95,2.68 6.62,3.72 6.32,4.86 6.03,6.00 5.83,7.48 5.64,8.95 5.54,10.48 5.45,12.01 5.30,13.49 5.14,14.97 5.15,16.53 5.16,18.10 5.12,19.52 5.08,20.94 4.77,23.47 4.46,26.01 4.07,27.50 3.69,28.99 3.65,29.27 3.62,29.55 3.52,29.82 3.42,30.08 3.26,30.32 3.10,30.55 2.88,30.74 2.67,30.93 2.42,31.06 2.17,31.19 1.89,31.26 1.62,31.33 1.33,31.33 1.05,31.33 0.77,31.27 0.50,31.20 0.24,31.07 -0.00,30.94 -0.21,30.75 -0.42,30.56 -0.59,30.33 -0.75,30.09 -0.85,29.83 -0.95,29.56 -0.99,29.28 -1.02,29.00 -0.89,27.63 -0.76,26.25 -0.69,25.07 -0.62,23.90 -0.56,22.47 -0.50,21.05 -0.46,19.50 -0.42,17.96 -0.46,16.12 -0.49,14.28 -0.67,12.22 -0.84,10.15 -1.21,7.83 -1.57,5.50 -1.88,2.83 -2.19,0.15 -2.17,-0.10 -2.16,-0.37 -2.08,-0.62 -2.01,-0.88 -1.87,-1.10 -1.74,-1.33 -1.55,-1.52 -1.37,-1.71 -1.14,-1.85 -0.92,-1.99 -0.67,-2.07 -0.41,-2.15 -0.15,-2.17 0.10,-2.19 0.36,-2.15 0.63,-2.10 0.87,-1.99 1.11,-1.89 1.32,-1.73 1.53,-1.57 1.70,-1.36 1.86,-1.15 1.97,-0.91 2.09,-0.67 2.14,-0.41 2.19,-0.15 2.19,-0.15 L 2.19,-0.15 Z"/></g><g transform="translate(247.3333282470703 27.333343505859375) rotate(0 10.000015258789062 6.666656494140625)" stroke="none"><path fill="#1e1e1e" d="M 2.56,0 Q 2.56,0 2.53,1.53 2.51,3.06 2.51,4.48 2.51,5.90 2.53,7.08 2.56,8.26 2.38,9.56 2.19,10.86 2.17,12.28 2.15,13.70 2.20,14.84 2.24,15.98 2.24,16.00 2.24,16.01 2.19,16.36 2.15,16.70 2.02,17.03 1.89,17.36 1.69,17.64 1.48,17.93 1.22,18.16 0.95,18.39 0.64,18.54 0.33,18.70 -0.00,18.78 -0.34,18.86 -0.69,18.86 -1.05,18.85 -1.38,18.77 -1.72,18.68 -2.03,18.51 -2.34,18.34 -2.60,18.11 -2.86,17.87 -3.05,17.58 -3.25,17.29 -3.37,16.96 -3.49,16.63 -3.53,16.28 -3.57,15.93 -3.61,14.83 -3.66,13.72 -3.44,12.64 -3.21,11.56 -2.93,9.79 -2.65,8.01 -2.56,6.34 -2.47,4.66 -2.46,2.91 -2.45,1.16 -2.48,-0.24 -2.50,-1.64 -2.34,-2.34 -2.18,-3.03 -2.13,-3.41 -2.08,-3.80 -1.95,-4.17 -1.81,-4.53 -1.59,-4.85 -1.36,-5.17 -1.07,-5.43 -0.78,-5.69 -0.43,-5.87 -0.09,-6.05 0.28,-6.14 0.66,-6.23 1.05,-6.23 1.44,-6.23 1.82,-6.14 2.20,-6.05 2.54,-5.86 2.89,-5.68 3.18,-5.42 3.47,-5.16 3.69,-4.84 3.91,-4.52 4.05,-4.16 4.19,-3.79 4.23,-3.41 4.28,-3.02 4.96,-2.01 5.64,-1.00 6.30,-0.14 6.97,0.71 7.41,1.76 7.85,2.81 8.21,4.10 8.58,5.38 9.43,7.34 10.29,9.30 11.20,10.98 12.11,12.67 12.90,13.40 13.69,14.13 13.38,13.09 13.07,12.04 13.45,10.80 13.83,9.57 14.25,7.40 14.66,5.23 14.77,3.51 14.87,1.80 14.87,0.13 14.88,-1.53 16.03,-1.86 17.18,-2.19 17.22,-2.57 17.27,-2.95 17.41,-3.30 17.55,-3.66 17.77,-3.97 17.99,-4.29 18.28,-4.54 18.56,-4.79 18.90,-4.97 19.24,-5.14 19.61,-5.23 19.99,-5.32 20.37,-5.32 20.75,-5.31 21.12,-5.22 21.49,-5.13 21.83,-4.95 22.17,-4.77 22.45,-4.51 22.74,-4.26 22.95,-3.94 23.17,-3.62 23.30,-3.27 23.43,-2.91 23.48,-2.53 23.52,-2.15 23.10,-3.23 22.69,-4.31 22.97,-3.88 23.25,-3.45 23.38,-2.95 23.51,-2.46 23.47,-1.95 23.43,-1.43 23.24,-0.96 23.04,-0.49 22.70,-0.10 22.36,0.27 21.92,0.53 21.47,0.79 20.97,0.89 20.47,0.99 19.96,0.93 19.45,0.86 18.98,0.64 18.52,0.42 18.16,0.06 17.79,-0.29 17.56,-0.75 17.32,-1.21 17.25,-1.72 17.18,-2.22 17.27,-2.73 17.36,-3.23 17.61,-3.68 17.86,-4.13 18.23,-4.48 18.61,-4.82 19.08,-5.03 19.55,-5.24 20.06,-5.29 20.57,-5.33 21.07,-5.21 21.57,-5.09 22.01,-4.82 22.44,-4.55 22.77,-4.15 23.09,-3.76 23.28,-3.28 23.46,-2.80 23.48,-2.28 23.49,-1.77 23.35,-1.28 23.20,-0.79 22.91,-0.37 22.61,0.04 22.20,0.35 21.78,0.65 21.30,0.80 20.81,0.96 20.29,0.95 19.78,0.94 19.30,0.77 18.81,0.60 17.99,-0.79 17.18,-2.19 17.22,-2.57 17.27,-2.95 17.41,-3.30 17.55,-3.66 17.77,-3.97 17.99,-4.29 18.28,-4.54 18.56,-4.79 18.90,-4.97 19.24,-5.14 19.61,-5.23 19.99,-5.32 20.37,-5.32 20.75,-5.31 21.12,-5.22 21.49,-5.13 21.83,-4.95 22.17,-4.77 22.45,-4.51 22.74,-4.26 22.95,-3.94 23.17,-3.62 23.30,-3.27 23.43,-2.91 23.48,-2.53 23.52,-2.15 22.33,-2.34 21.13,-2.53 21.09,-1.20 21.04,0.12 20.95,2.06 20.86,3.99 20.51,6.10 20.16,8.22 20.00,9.73 19.84,11.25 19.55,12.37 19.27,13.50 18.87,15.31 18.47,17.13 17.55,18.37 16.63,19.62 14.75,20.03 12.87,20.45 11.46,19.94 10.06,19.43 8.79,18.22 7.53,17.00 6.66,15.51 5.79,14.01 4.75,11.93 3.71,9.86 2.74,7.59 1.77,5.32 1.20,4.12 0.63,2.92 -0.07,1.33 -0.78,-0.24 -1.48,-1.64 -2.18,-3.03 -2.13,-3.41 -2.08,-3.80 -1.95,-4.16 -1.81,-4.53 -1.59,-4.85 -1.36,-5.17 -1.07,-5.43 -0.78,-5.69 -0.43,-5.87 -0.09,-6.05 0.28,-6.14 0.66,-6.23 1.05,-6.23 1.44,-6.23 1.82,-6.14 2.19,-6.05 2.54,-5.86 2.88,-5.68 3.18,-5.42 3.47,-5.16 3.69,-4.84 3.91,-4.52 4.05,-4.16 4.19,-3.79 4.23,-3.41 4.28,-3.02 4.05,-2.33 3.83,-1.63 3.80,-0.20 3.76,1.22 3.72,3.07 3.68,4.92 3.63,6.00 3.58,7.07 3.26,8.99 2.93,10.91 2.63,12.34 2.33,13.78 2.28,14.89 2.24,16.01 2.19,16.36 2.15,16.70 2.02,17.03 1.89,17.36 1.69,17.64 1.48,17.93 1.22,18.16 0.95,18.39 0.64,18.54 0.33,18.70 -0.00,18.78 -0.34,18.86 -0.69,18.86 -1.05,18.85 -1.38,18.77 -1.72,18.68 -2.03,18.51 -2.34,18.34 -2.60,18.11 -2.86,17.87 -3.05,17.58 -3.25,17.29 -3.37,16.96 -3.49,16.63 -3.53,16.28 -3.57,15.93 -3.52,15.42 -3.48,14.90 -3.36,13.36 -3.23,11.83 -2.89,10.04 -2.56,8.25 -2.53,7.07 -2.51,5.90 -2.51,4.48 -2.51,3.06 -2.53,1.53 -2.56,0 -2.52,-0.30 -2.48,-0.61 -2.37,-0.90 -2.26,-1.19 -2.09,-1.44 -1.91,-1.69 -1.68,-1.90 -1.45,-2.10 -1.18,-2.25 -0.90,-2.39 -0.60,-2.46 -0.30,-2.54 0.00,-2.54 0.30,-2.54 0.60,-2.46 0.90,-2.39 1.18,-2.25 1.45,-2.10 1.68,-1.90 1.91,-1.69 2.09,-1.44 2.26,-1.19 2.37,-0.90 2.48,-0.61 2.52,-0.30 2.56,0.00 2.56,0.00 L 2.56,0 Z"/></g><g transform="translate(283.3333282470703 15.333328247070312) rotate(0 6.66668701171875 11)" stroke="none"><path fill="#1e1e1e" d="M 2.39,0.18 Q 2.39,0.18 2.05,2.66 1.72,5.14 1.56,7.12 1.41,9.09 1.22,10.65 1.03,12.20 0.98,13.49 0.94,14.78 0.75,15.94 0.56,17.10 0.54,18.29 0.53,19.48 -0.00,20.54 -0.54,21.59 -0.72,21.86 -0.90,22.13 -1.13,22.34 -1.37,22.56 -1.65,22.71 -1.93,22.87 -2.24,22.95 -2.55,23.03 -2.87,23.04 -3.19,23.04 -3.50,22.97 -3.81,22.90 -4.10,22.75 -4.38,22.61 -4.63,22.40 -4.87,22.19 -5.06,21.93 -5.24,21.67 -5.36,21.38 -5.48,21.08 -5.52,20.76 -5.57,20.45 -5.53,20.13 -5.50,19.81 -5.39,19.51 -5.29,19.21 -5.73,17.29 -6.17,15.37 -6.17,14.21 -6.18,13.04 -6.17,11.78 -6.16,10.52 -6.15,9.22 -6.14,7.92 -6.14,6.79 -6.15,5.66 -5.96,3.32 -5.77,0.98 -5.33,-0.57 -4.88,-2.13 -3.63,-2.91 -2.37,-3.69 -1.01,-3.51 0.34,-3.32 1.30,-2.17 2.27,-1.01 2.70,0.25 3.12,1.53 3.43,3.05 3.74,4.57 4.01,6.17 4.28,7.77 4.57,9.18 4.86,10.59 5.15,12.19 5.43,13.80 5.75,14.97 6.07,16.14 6.41,17.19 6.75,18.25 7.34,19.32 7.93,20.38 8.58,18.86 9.23,17.34 10.19,15.10 11.14,12.86 11.58,11.41 12.01,9.95 12.35,8.84 12.69,7.72 13.10,5.92 13.52,4.11 13.72,3.64 13.92,3.16 14.27,2.78 14.61,2.39 15.06,2.14 15.51,1.89 16.02,1.79 16.52,1.69 17.03,1.76 17.54,1.83 18.01,2.06 18.47,2.29 18.83,2.66 19.20,3.02 19.42,3.48 19.65,3.94 19.72,4.46 19.79,4.97 19.69,5.47 19.60,5.98 19.34,6.43 19.09,6.87 18.71,7.22 18.32,7.56 17.85,7.77 17.38,7.97 16.86,8.01 16.35,8.05 15.85,7.93 15.35,7.80 14.91,7.53 14.48,7.25 14.16,6.85 13.83,6.44 13.66,5.96 13.48,5.48 13.47,4.96 13.45,4.45 13.60,3.95 13.75,3.46 14.06,3.04 14.36,2.62 14.78,2.32 15.19,2.02 15.69,1.87 16.18,1.72 16.69,1.74 17.21,1.75 17.69,1.93 18.18,2.11 18.58,2.43 18.98,2.75 19.26,3.19 19.53,3.62 19.66,4.12 19.78,4.62 19.74,5.14 19.70,5.65 19.70,5.65 19.70,5.65 19.05,8.30 18.40,10.96 17.85,12.17 17.30,13.37 16.53,15.31 15.76,17.26 15.37,18.55 14.98,19.85 13.92,21.75 12.86,23.65 11.78,24.66 10.71,25.68 9.61,25.98 8.51,26.29 6.98,25.97 5.45,25.66 4.27,24.48 3.08,23.31 2.33,21.56 1.59,19.81 1.26,18.67 0.93,17.52 0.58,16.21 0.24,14.90 -0.13,13.38 -0.51,11.85 -0.89,10.41 -1.26,8.96 -1.66,7.46 -2.06,5.95 -2.33,3.81 -2.60,1.67 -1.36,1.85 -0.12,2.04 -0.31,3.85 -0.50,5.66 -0.51,6.79 -0.52,7.92 -0.50,9.22 -0.49,10.52 -0.48,11.77 -0.47,13.03 -0.47,14.17 -0.46,15.31 -0.57,17.08 -0.67,18.85 -0.61,20.22 -0.54,21.59 -0.72,21.86 -0.90,22.13 -1.13,22.34 -1.37,22.56 -1.65,22.71 -1.93,22.87 -2.24,22.95 -2.55,23.03 -2.87,23.04 -3.19,23.04 -3.50,22.97 -3.81,22.90 -4.10,22.75 -4.38,22.61 -4.63,22.40 -4.87,22.19 -5.06,21.93 -5.24,21.67 -5.36,21.38 -5.48,21.08 -5.52,20.76 -5.57,20.45 -5.53,20.13 -5.50,19.81 -5.39,19.51 -5.29,19.21 -4.76,18.53 -4.23,17.86 -3.78,16.17 -3.33,14.47 -3.17,13.02 -3.02,11.56 -2.76,10.25 -2.50,8.93 -2.49,6.87 -2.49,4.82 -2.44,2.31 -2.39,-0.18 -2.33,-0.46 -2.27,-0.75 -2.15,-1.01 -2.03,-1.27 -1.84,-1.49 -1.66,-1.72 -1.43,-1.89 -1.20,-2.07 -0.94,-2.18 -0.67,-2.30 -0.39,-2.34 -0.10,-2.39 0.18,-2.37 0.47,-2.35 0.74,-2.26 1.01,-2.16 1.26,-2.01 1.50,-1.86 1.71,-1.65 1.91,-1.44 2.05,-1.19 2.20,-0.94 2.28,-0.67 2.36,-0.39 2.37,-0.10 2.39,0.18 2.39,0.18 L 2.39,0.18 Z"/></g><g transform="translate(234.6666717529297 65.33334350585938) rotate(0 -84.66667175292969 24.999984741210938)" stroke="none"><path fill="#1e1e1e" d="M -2.27,-1.13 Q -2.27,-1.13 -1.73,-2.09 -1.20,-3.04 1.23,-3.03 3.68,-3.03 4.31,-1.84 4.94,-0.66 5.23,1.20 5.52,3.08 5.66,4.46 5.81,5.84 6.19,8.01 6.58,10.17 6.65,11.27 6.72,12.36 6.81,13.76 6.90,15.15 6.21,16.91 5.53,18.67 4.15,19.17 2.77,19.68 1.31,19.74 -0.13,19.80 -1.74,19.82 -3.36,19.84 -5.28,19.84 -7.21,19.83 -8.40,19.81 -9.58,19.78 -10.66,19.77 -11.74,19.76 -13.20,19.53 -14.65,19.29 -15.98,19.17 -17.30,19.05 -18.84,18.95 -20.38,18.85 -21.99,18.77 -23.61,18.69 -25.40,18.42 -27.19,18.16 -28.76,18.03 -30.33,17.91 -32.15,17.80 -33.96,17.69 -35.89,17.59 -37.81,17.50 -39.78,17.42 -41.75,17.34 -43.74,17.28 -45.72,17.22 -47.91,17.15 -50.10,17.07 -52.37,17.01 -54.64,16.95 -57.14,16.91 -59.63,16.87 -62.04,16.84 -64.44,16.80 -67.00,16.78 -69.55,16.76 -72.17,16.74 -74.79,16.73 -77.44,16.72 -80.08,16.70 -82.55,16.70 -85.02,16.69 -87.41,16.68 -89.80,16.67 -92.15,16.67 -94.51,16.67 -97.05,16.66 -99.58,16.66 -102.00,16.66 -104.42,16.65 -106.74,16.84 -109.05,17.03 -111.43,17.11 -113.81,17.19 -116.11,17.42 -118.41,17.64 -120.73,17.92 -123.05,18.21 -125.43,18.34 -127.81,18.46 -130.11,18.70 -132.41,18.94 -134.78,19.05 -137.15,19.16 -139.31,19.20 -141.47,19.24 -143.54,19.28 -145.60,19.31 -147.63,19.34 -149.66,19.37 -151.48,19.43 -153.30,19.48 -154.84,19.57 -156.38,19.66 -157.81,19.74 -159.23,19.82 -160.41,19.90 -161.59,19.99 -162.66,20.06 -163.74,20.14 -165.59,20.26 -167.45,20.39 -169.22,20.26 -170.99,20.12 -170.67,22.21 -170.35,24.31 -170.37,25.56 -170.39,26.81 -170.41,28.11 -170.43,29.41 -170.48,30.92 -170.53,32.43 -170.56,33.84 -170.58,35.25 -170.63,36.80 -170.67,38.36 -170.69,39.79 -170.71,41.21 -170.53,42.41 -170.36,43.60 -170.25,44.85 -170.14,46.09 -169.77,47.93 -169.39,49.78 -169.26,50.85 -169.13,51.92 -169.10,52.29 -169.06,52.66 -169.09,53.01 -169.12,53.37 -169.23,53.70 -169.35,54.04 -169.54,54.34 -169.72,54.64 -169.98,54.88 -170.24,55.13 -170.54,55.31 -170.85,55.49 -171.19,55.58 -171.53,55.68 -171.89,55.70 -172.24,55.71 -172.59,55.64 -172.94,55.57 -173.26,55.42 -173.58,55.27 -173.85,55.04 -174.13,54.82 -174.34,54.54 -174.55,54.25 -174.69,53.93 -174.83,53.60 -174.89,53.25 -174.95,52.90 -173.87,50.56 -172.79,48.23 -172.47,47.87 -172.16,47.51 -171.74,47.28 -171.33,47.04 -170.86,46.94 -170.40,46.85 -169.92,46.91 -169.45,46.97 -169.02,47.18 -168.59,47.38 -168.25,47.72 -167.91,48.05 -167.69,48.48 -167.48,48.90 -167.41,49.37 -167.34,49.85 -167.42,50.32 -167.51,50.79 -167.74,51.20 -167.97,51.62 -168.32,51.94 -168.67,52.27 -169.11,52.46 -169.55,52.65 -170.02,52.69 -170.50,52.74 -170.96,52.63 -171.43,52.52 -171.83,52.26 -172.24,52.01 -172.54,51.64 -172.84,51.27 -173.01,50.83 -173.18,50.38 -173.20,49.90 -173.21,49.43 -173.08,48.97 -172.94,48.51 -172.67,48.12 -172.39,47.73 -172.01,47.45 -171.62,47.17 -171.17,47.02 -170.71,46.88 -170.24,46.89 -169.76,46.89 -169.31,47.05 -168.86,47.21 -168.49,47.51 -168.11,47.81 -167.85,48.20 -167.59,48.60 -167.47,49.07 -167.35,49.53 -167.38,50.00 -167.42,50.48 -167.60,50.92 -167.79,51.36 -167.79,51.36 -167.79,51.36 -168.43,52.01 -169.06,52.66 -169.09,53.01 -169.12,53.37 -169.23,53.70 -169.35,54.04 -169.54,54.34 -169.72,54.64 -169.98,54.88 -170.24,55.13 -170.54,55.31 -170.85,55.49 -171.19,55.58 -171.53,55.68 -171.89,55.70 -172.24,55.71 -172.59,55.64 -172.94,55.57 -173.26,55.42 -173.58,55.27 -173.85,55.04 -174.13,54.82 -174.34,54.54 -174.55,54.25 -174.69,53.93 -174.83,53.60 -174.89,53.25 -174.95,52.90 -174.91,52.15 -174.88,51.40 -174.92,50.19 -174.97,48.97 -175.20,47.72 -175.42,46.47 -175.48,45.40 -175.53,44.32 -175.74,42.77 -175.95,41.22 -175.97,39.79 -175.98,38.36 -176.03,36.80 -176.07,35.25 -176.10,33.84 -176.12,32.43 -176.17,30.92 -176.22,29.40 -176.24,28.10 -176.26,26.80 -176.28,25.54 -176.30,24.28 -176.30,23.12 -176.30,21.95 -176.21,20.10 -176.11,18.24 -175.75,17.18 -175.39,16.11 -173.61,15.38 -171.83,14.64 -170.72,14.87 -169.61,15.10 -168.53,15.35 -167.45,15.60 -165.59,15.73 -163.74,15.85 -162.66,15.93 -161.59,16.00 -160.41,16.09 -159.23,16.17 -157.81,16.25 -156.39,16.33 -154.85,16.41 -153.31,16.50 -151.49,16.55 -149.67,16.60 -147.65,16.61 -145.63,16.62 -143.58,16.62 -141.52,16.62 -139.40,16.57 -137.27,16.53 -134.98,16.43 -132.68,16.33 -130.31,16.08 -127.95,15.83 -125.66,15.71 -123.37,15.60 -121.02,15.31 -118.66,15.02 -116.28,14.79 -113.90,14.56 -111.58,14.47 -109.27,14.39 -106.84,14.20 -104.42,14.00 -102.00,14.00 -99.58,14.00 -97.05,13.99 -94.51,13.99 -92.15,13.99 -89.80,13.98 -87.41,13.98 -85.02,13.97 -82.55,13.96 -80.08,13.95 -77.44,13.94 -74.79,13.93 -72.17,13.91 -69.55,13.90 -67.00,13.87 -64.44,13.85 -62.04,13.82 -59.63,13.79 -57.14,13.75 -54.64,13.71 -52.37,13.65 -50.09,13.59 -47.91,13.52 -45.72,13.44 -43.73,13.39 -41.74,13.33 -39.76,13.27 -37.78,13.20 -35.83,13.14 -33.87,13.08 -31.98,13.03 -30.08,12.99 -28.33,13.04 -26.58,13.08 -25.07,13.21 -23.56,13.35 -21.91,13.30 -20.25,13.25 -18.62,13.22 -16.98,13.18 -14.36,13.37 -11.73,13.56 -10.66,13.55 -9.58,13.54 -8.40,13.51 -7.22,13.49 -5.29,13.48 -3.36,13.48 -1.77,13.49 -0.18,13.51 0.44,14.37 1.07,15.24 1.10,13.92 1.13,12.61 1.06,10.77 0.98,8.93 0.73,7.65 0.47,6.38 0.36,5.21 0.25,4.04 -0.23,1.73 -0.73,-0.57 1.00,-0.29 2.73,-0.01 2.50,0.55 2.27,1.13 2.10,1.39 1.93,1.64 1.70,1.85 1.48,2.06 1.21,2.20 0.94,2.35 0.65,2.43 0.35,2.51 0.04,2.51 -0.25,2.52 -0.55,2.45 -0.85,2.39 -1.12,2.25 -1.40,2.11 -1.63,1.91 -1.86,1.72 -2.04,1.47 -2.22,1.22 -2.33,0.93 -2.45,0.65 -2.49,0.35 -2.53,0.04 -2.50,-0.25 -2.47,-0.55 -2.37,-0.84 -2.27,-1.13 -2.27,-1.13 L -2.27,-1.13 Z"/></g><g transform="translate(10 136) rotate(0 1.6666641235351562 8.333343505859375)" stroke="none"><path fill="#1e1e1e" d="M 2.53,-0.50 Q 2.53,-0.50 2.76,0.44 2.98,1.39 3.26,2.52 3.54,3.66 3.66,5.31 3.78,6.97 3.83,8.41 3.87,9.85 3.91,11.04 3.95,12.23 3.99,13.31 4.02,14.39 4.09,15.94 4.15,17.50 4.38,18.04 4.61,18.57 4.57,18.92 4.53,19.27 4.41,19.60 4.28,19.92 4.09,20.21 3.89,20.50 3.63,20.73 3.36,20.97 3.06,21.13 2.75,21.29 2.41,21.38 2.07,21.46 1.72,21.46 1.37,21.46 1.03,21.38 0.69,21.30 0.38,21.13 0.07,20.97 -0.19,20.74 -0.45,20.51 -0.65,20.22 -0.85,19.93 -0.97,19.61 -1.10,19.28 -1.14,18.93 -1.18,18.59 -1.09,17.33 -1.00,16.08 -1.02,14.65 -1.05,13.23 -1.08,11.79 -1.11,10.36 -1.13,8.73 -1.15,7.11 -1.18,5.91 -1.21,4.72 -1.17,4.34 -1.12,3.95 -0.98,3.59 -0.84,3.22 -0.62,2.91 -0.40,2.59 -0.11,2.33 0.17,2.07 0.51,1.89 0.85,1.71 1.23,1.62 1.61,1.53 2.00,1.53 2.38,1.53 2.76,1.62 3.14,1.71 3.48,1.89 3.82,2.07 4.11,2.33 4.40,2.59 4.62,2.91 4.84,3.23 4.98,3.59 5.12,3.95 5.17,4.34 5.21,4.72 4.91,5.95 4.61,7.19 4.36,8.89 4.12,10.59 3.80,11.67 3.48,12.74 3.46,12.73 3.45,12.72 3.94,12.89 4.44,13.07 4.85,13.39 5.26,13.72 5.55,14.15 5.84,14.59 5.97,15.10 6.11,15.61 6.07,16.14 6.03,16.66 5.83,17.15 5.63,17.63 5.28,18.03 4.94,18.42 4.48,18.69 4.03,18.95 3.51,19.05 3.00,19.16 2.47,19.09 1.95,19.03 1.48,18.80 1.01,18.57 0.63,18.21 0.25,17.84 0.01,17.37 -0.21,16.90 -0.29,16.38 -0.37,15.86 -0.27,15.34 -0.18,14.83 0.06,14.37 0.32,13.91 0.70,13.55 1.09,13.20 1.57,12.98 2.05,12.77 2.57,12.72 3.10,12.67 3.61,12.79 4.12,12.91 4.57,13.19 5.01,13.47 5.35,13.88 5.68,14.28 5.87,14.77 6.05,15.26 6.07,15.79 6.09,16.31 5.95,16.82 5.80,17.32 5.50,17.75 5.19,18.18 4.77,18.50 4.35,18.81 3.85,18.97 3.35,19.13 2.82,19.12 2.29,19.11 2.29,19.11 2.30,19.11 -0.18,17.45 -2.67,15.78 -2.65,13.38 -2.63,10.98 -2.19,9.30 -1.75,7.63 -1.48,6.18 -1.21,4.72 -1.17,4.34 -1.12,3.95 -0.98,3.59 -0.84,3.23 -0.62,2.91 -0.40,2.59 -0.11,2.33 0.17,2.07 0.51,1.89 0.85,1.71 1.23,1.62 1.61,1.53 2.00,1.53 2.38,1.53 2.76,1.62 3.14,1.71 3.48,1.89 3.82,2.07 4.11,2.33 4.40,2.59 4.62,2.91 4.84,3.23 4.98,3.59 5.12,3.95 5.17,4.34 5.21,4.72 5.18,5.92 5.15,7.11 5.13,8.74 5.11,10.37 5.07,11.82 5.03,13.27 4.96,14.84 4.90,16.41 4.76,17.49 4.61,18.57 4.57,18.92 4.53,19.27 4.41,19.60 4.28,19.92 4.09,20.21 3.89,20.50 3.63,20.73 3.37,20.97 3.06,21.13 2.75,21.29 2.41,21.38 2.07,21.46 1.72,21.46 1.37,21.46 1.03,21.38 0.69,21.30 0.38,21.14 0.07,20.97 -0.19,20.74 -0.45,20.51 -0.65,20.22 -0.85,19.94 -0.97,19.61 -1.10,19.28 -1.14,18.93 -1.18,18.59 -1.31,17.34 -1.44,16.10 -1.40,14.21 -1.35,12.32 -1.35,11.18 -1.35,10.04 -1.41,8.71 -1.46,7.38 -1.57,6.12 -1.68,4.86 -1.95,3.65 -2.22,2.43 -2.37,1.47 -2.53,0.50 -2.55,0.19 -2.58,-0.11 -2.53,-0.42 -2.48,-0.72 -2.35,-1.01 -2.23,-1.30 -2.04,-1.55 -1.85,-1.79 -1.61,-1.99 -1.37,-2.19 -1.09,-2.32 -0.80,-2.45 -0.50,-2.51 -0.19,-2.57 0.11,-2.56 0.42,-2.55 0.72,-2.46 1.02,-2.37 1.29,-2.21 1.56,-2.06 1.78,-1.84 2.00,-1.62 2.17,-1.36 2.34,-1.09 2.43,-0.80 2.53,-0.50 2.53,-0.50 L 2.53,-0.50 Z"/></g><g transform="translate(28 146) rotate(0 3.3333358764648438 -0.6666717529296875)" stroke="none"><path fill="#1e1e1e" d="M -0.43,-2.58 Q -0.43,-2.58 0.71,-2.79 1.86,-3.00 3.04,-3.12 4.22,-3.24 5.66,-3.36 7.11,-3.48 7.15,-3.50 7.19,-3.51 7.53,-3.47 7.88,-3.44 8.20,-3.33 8.53,-3.21 8.81,-3.03 9.10,-2.84 9.34,-2.59 9.57,-2.34 9.74,-2.04 9.91,-1.74 10.00,-1.40 10.09,-1.07 10.10,-0.73 10.11,-0.38 10.04,-0.05 9.96,0.28 9.81,0.59 9.66,0.90 9.44,1.16 9.22,1.42 8.94,1.63 8.66,1.83 8.34,1.96 8.03,2.09 7.68,2.14 7.34,2.19 6.29,1.86 5.23,1.53 3.78,1.63 2.34,1.73 1.27,1.76 0.19,1.79 1.66,1.30 3.12,0.81 2.82,1.23 2.53,1.64 2.12,1.95 1.70,2.25 1.22,2.41 0.73,2.56 0.22,2.55 -0.29,2.54 -0.77,2.37 -1.25,2.20 -1.65,1.88 -2.06,1.57 -2.34,1.14 -2.62,0.71 -2.75,0.21 -2.87,-0.27 -2.84,-0.78 -2.80,-1.30 -2.60,-1.77 -2.41,-2.24 -2.07,-2.62 -1.73,-3.01 -1.29,-3.27 -0.84,-3.52 -0.34,-3.62 0.15,-3.73 0.66,-3.66 1.17,-3.60 1.63,-3.37 2.09,-3.15 2.46,-2.79 2.82,-2.43 3.05,-1.98 3.29,-1.52 3.36,-1.01 3.43,-0.51 3.34,-0.00 3.25,0.49 3.00,0.94 2.76,1.39 2.38,1.73 2.00,2.08 1.53,2.29 1.06,2.49 0.55,2.54 0.04,2.59 -0.45,2.47 -0.94,2.35 -1.38,2.08 -1.81,1.81 -2.14,1.41 -2.46,1.01 -2.64,0.53 -2.82,0.06 -2.84,-0.45 -2.86,-0.96 -2.72,-1.45 -2.57,-1.94 -2.57,-1.94 -2.57,-1.94 -0.56,-3.17 1.44,-4.41 2.71,-4.34 3.98,-4.27 5.59,-3.89 7.19,-3.51 7.53,-3.47 7.88,-3.44 8.20,-3.33 8.53,-3.21 8.81,-3.03 9.10,-2.84 9.34,-2.59 9.57,-2.34 9.74,-2.04 9.91,-1.74 10.00,-1.40 10.09,-1.07 10.10,-0.73 10.11,-0.38 10.04,-0.05 9.96,0.28 9.81,0.59 9.66,0.90 9.44,1.16 9.22,1.42 8.94,1.63 8.66,1.83 8.34,1.96 8.03,2.09 7.69,2.14 7.34,2.19 6.78,2.17 6.21,2.15 4.47,2.20 2.73,2.24 1.58,2.41 0.43,2.58 0.11,2.60 -0.20,2.61 -0.51,2.55 -0.82,2.49 -1.10,2.35 -1.39,2.22 -1.63,2.02 -1.88,1.82 -2.07,1.57 -2.26,1.32 -2.39,1.03 -2.51,0.73 -2.56,0.42 -2.62,0.11 -2.59,-0.19 -2.57,-0.51 -2.47,-0.81 -2.37,-1.11 -2.20,-1.38 -2.03,-1.65 -1.81,-1.87 -1.58,-2.09 -1.31,-2.25 -1.03,-2.40 -0.73,-2.49 -0.43,-2.58 -0.43,-2.58 L -0.43,-2.58 Z"/></g><g transform="translate(60.00001525878906 138.66665649414062) rotate(0 1 8.666671752929688)" stroke="none"><path fill="#1e1e1e" d="M 2.46,0 Q 2.46,0 2.32,2.10 2.17,4.21 2.20,5.68 2.22,7.15 2.25,8.55 2.28,9.94 2.32,11.10 2.37,12.27 2.42,13.34 2.46,14.41 2.55,15.80 2.65,17.18 2.61,17.50 2.57,17.82 2.46,18.12 2.34,18.42 2.16,18.68 1.98,18.94 1.74,19.16 1.50,19.37 1.22,19.52 0.94,19.66 0.62,19.74 0.31,19.82 -0.00,19.82 -0.31,19.82 -0.63,19.74 -0.94,19.66 -1.22,19.52 -1.50,19.37 -1.74,19.16 -1.98,18.94 -2.16,18.68 -2.34,18.42 -2.46,18.12 -2.57,17.82 -2.61,17.50 -2.65,17.18 -2.37,16.08 -2.08,14.97 -1.90,13.47 -1.72,11.98 -1.68,10.59 -1.63,9.19 -1.66,7.96 -1.69,6.72 -1.67,4.90 -1.66,3.09 -1.15,1.77 -0.64,0.45 -0.36,0.18 -0.09,-0.09 0.23,-0.29 0.57,-0.49 0.93,-0.60 1.30,-0.71 1.69,-0.74 2.08,-0.76 2.46,-0.69 2.84,-0.62 3.19,-0.46 3.54,-0.30 3.84,-0.06 4.15,0.17 4.38,0.47 4.62,0.78 4.78,1.13 4.94,1.48 5.01,1.87 5.08,2.25 5.05,2.63 5.03,3.02 4.91,3.39 4.80,3.75 4.59,4.08 4.39,4.41 4.79,6.15 5.20,7.88 4.97,9.04 4.74,10.21 4.60,12.15 4.46,14.09 4.33,14.46 4.19,14.82 3.98,15.14 3.76,15.46 3.47,15.72 3.18,15.98 2.84,16.17 2.50,16.35 2.12,16.45 1.75,16.54 1.36,16.55 0.97,16.55 0.59,16.46 0.22,16.37 -0.12,16.19 -0.47,16.02 -0.76,15.76 -1.05,15.51 -1.27,15.19 -1.50,14.87 -1.64,14.51 -1.78,14.15 -1.83,13.77 -1.88,13.38 -1.84,12.99 -1.79,12.61 -1.78,12.58 -1.78,12.54 -1.56,12.07 -1.35,11.59 -1.00,11.21 -0.65,10.82 -0.19,10.57 0.25,10.32 0.76,10.23 1.28,10.13 1.79,10.21 2.31,10.28 2.77,10.52 3.24,10.76 3.60,11.13 3.96,11.50 4.19,11.97 4.42,12.44 4.48,12.96 4.55,13.47 4.44,13.98 4.34,14.49 4.08,14.94 3.82,15.39 3.43,15.74 3.04,16.08 2.55,16.28 2.07,16.48 1.55,16.52 1.03,16.56 0.53,16.43 0.03,16.30 -0.40,16.01 -0.83,15.73 -1.16,15.32 -1.48,14.91 -1.65,14.42 -1.83,13.92 -1.84,13.40 -1.84,12.88 -1.69,12.39 -1.53,11.89 -1.22,11.47 -0.91,11.05 -0.49,10.75 -0.06,10.45 0.43,10.31 0.93,10.16 1.45,10.18 1.97,10.20 2.46,10.38 2.94,10.57 3.35,10.90 3.75,11.23 4.02,11.67 4.30,12.11 4.42,12.62 4.54,13.12 4.50,13.61 4.46,14.09 4.33,14.46 4.19,14.82 3.98,15.14 3.76,15.46 3.47,15.72 3.18,15.98 2.84,16.17 2.50,16.35 2.12,16.45 1.75,16.54 1.36,16.55 0.97,16.55 0.59,16.46 0.22,16.37 -0.12,16.19 -0.46,16.02 -0.76,15.76 -1.05,15.51 -1.27,15.19 -1.50,14.87 -1.64,14.51 -1.78,14.15 -1.83,13.77 -1.88,13.38 -1.84,13.00 -1.79,12.61 -1.65,10.67 -1.51,8.73 -1.37,7.32 -1.23,5.91 -1.22,4.64 -1.22,3.37 -0.93,1.91 -0.64,0.45 -0.36,0.18 -0.09,-0.09 0.23,-0.29 0.56,-0.49 0.93,-0.60 1.30,-0.71 1.69,-0.74 2.07,-0.76 2.45,-0.69 2.83,-0.62 3.19,-0.46 3.54,-0.30 3.84,-0.06 4.15,0.17 4.38,0.47 4.62,0.78 4.78,1.13 4.94,1.48 5.01,1.86 5.08,2.25 5.05,2.63 5.03,3.02 4.91,3.39 4.80,3.75 4.59,4.08 4.39,4.41 4.39,4.99 4.38,5.57 4.32,6.72 4.26,7.86 4.15,9.67 4.03,11.48 3.66,13.12 3.28,14.75 2.96,15.97 2.65,17.18 2.61,17.50 2.57,17.82 2.46,18.12 2.34,18.42 2.16,18.68 1.98,18.94 1.74,19.16 1.50,19.37 1.22,19.52 0.94,19.66 0.63,19.74 0.31,19.82 0.00,19.82 -0.31,19.82 -0.62,19.74 -0.94,19.66 -1.22,19.52 -1.50,19.37 -1.74,19.16 -1.98,18.94 -2.16,18.68 -2.34,18.42 -2.46,18.12 -2.57,17.82 -2.61,17.50 -2.65,17.18 -2.55,15.80 -2.46,14.41 -2.42,13.34 -2.37,12.27 -2.32,11.10 -2.28,9.94 -2.25,8.55 -2.22,7.15 -2.20,5.68 -2.17,4.21 -2.32,2.10 -2.46,0 -2.43,-0.29 -2.39,-0.59 -2.29,-0.86 -2.18,-1.14 -2.01,-1.39 -1.84,-1.63 -1.62,-1.83 -1.40,-2.03 -1.13,-2.17 -0.87,-2.30 -0.58,-2.37 -0.29,-2.45 0.00,-2.45 0.29,-2.45 0.58,-2.37 0.87,-2.30 1.13,-2.17 1.40,-2.03 1.62,-1.83 1.84,-1.63 2.01,-1.39 2.18,-1.14 2.29,-0.86 2.39,-0.59 2.43,-0.29 2.46,0.00 2.46,0.00 L 2.46,0 Z"/></g><g transform="translate(240.00001525878906 76) rotate(0 -0.333343505859375 15.666671752929688)" stroke="none"><path fill="#1e1e1e" d="M 2.50,0.41 Q 2.50,0.41 2.33,1.57 2.16,2.72 2.14,4.38 2.11,6.03 2.11,7.17 2.10,8.30 2.09,9.55 2.09,10.81 2.08,12.11 2.07,13.41 2.06,14.73 2.05,16.05 2.06,17.18 2.08,18.32 2.08,19.57 2.08,20.81 2.09,21.92 2.10,23.03 2.15,24.82 2.21,26.61 2.25,28.09 2.29,29.58 2.24,29.93 2.20,30.29 2.07,30.62 1.95,30.95 1.74,31.25 1.54,31.54 1.27,31.78 1.01,32.01 0.69,32.18 0.38,32.34 0.03,32.43 -0.31,32.51 -0.66,32.51 -1.02,32.51 -1.36,32.43 -1.71,32.34 -2.03,32.18 -2.34,32.01 -2.61,31.78 -2.88,31.54 -3.08,31.25 -3.28,30.95 -3.41,30.62 -3.53,30.29 -3.58,29.93 -3.62,29.58 -3.54,29.11 -3.46,28.63 -3.24,28.21 -3.02,27.79 -2.67,27.46 -2.32,27.13 -1.89,26.93 -1.45,26.73 -0.98,26.68 -0.50,26.63 -0.03,26.73 0.42,26.83 0.83,27.08 1.24,27.32 1.55,27.69 1.86,28.05 2.04,28.50 2.22,28.94 2.24,29.42 2.27,29.90 2.14,30.36 2.01,30.82 1.74,31.22 1.48,31.61 1.09,31.90 0.71,32.19 0.26,32.34 -0.18,32.50 -0.66,32.50 -1.14,32.50 -1.59,32.34 -2.05,32.19 -2.43,31.90 -2.81,31.61 -3.08,31.22 -3.35,30.82 -3.47,30.36 -3.60,29.90 -3.58,29.42 -3.55,28.94 -3.37,28.50 -3.20,28.05 -2.89,27.69 -2.58,27.32 -2.17,27.08 -1.76,26.83 -1.29,26.73 -0.82,26.63 -0.35,26.68 0.12,26.73 0.55,26.93 0.99,27.13 1.34,27.46 1.68,27.79 1.91,28.21 2.13,28.64 2.21,29.11 2.29,29.58 2.29,29.58 2.29,29.58 2.24,29.93 2.20,30.29 2.07,30.62 1.95,30.95 1.74,31.25 1.54,31.54 1.28,31.78 1.01,32.01 0.69,32.18 0.38,32.34 0.03,32.43 -0.31,32.51 -0.66,32.51 -1.02,32.51 -1.36,32.43 -1.71,32.34 -2.03,32.18 -2.34,32.01 -2.61,31.78 -2.88,31.54 -3.08,31.25 -3.28,30.95 -3.41,30.62 -3.53,30.29 -3.58,29.93 -3.62,29.58 -3.58,28.09 -3.54,26.61 -3.49,24.82 -3.44,23.03 -3.42,21.92 -3.41,20.81 -3.41,19.56 -3.41,18.31 -3.39,17.18 -3.38,16.04 -3.39,14.72 -3.39,13.40 -3.40,12.09 -3.40,10.78 -3.40,9.51 -3.39,8.23 -3.37,7.03 -3.34,5.83 -3.14,3.85 -2.93,1.87 -2.71,0.72 -2.50,-0.41 -2.41,-0.71 -2.32,-1.00 -2.17,-1.26 -2.02,-1.53 -1.80,-1.75 -1.59,-1.97 -1.33,-2.13 -1.07,-2.29 -0.78,-2.39 -0.49,-2.48 -0.19,-2.51 0.11,-2.53 0.41,-2.48 0.71,-2.43 0.99,-2.31 1.27,-2.19 1.52,-2.00 1.76,-1.82 1.95,-1.58 2.14,-1.34 2.27,-1.07 2.40,-0.79 2.46,-0.49 2.52,-0.19 2.51,0.11 2.50,0.41 2.50,0.41 L 2.50,0.41 Z"/></g><g transform="translate(222.00001525878906 130) rotate(0 -0.0000152587890625 9.666656494140625)" stroke="none"><path fill="#1e1e1e" d="M 2.32,0.19 Q 2.32,0.19 2.00,2.48 1.67,4.77 1.54,6.66 1.41,8.55 1.41,10.12 1.40,11.69 1.43,13.12 1.45,14.55 1.51,15.73 1.56,16.92 1.67,18.10 1.78,19.28 1.82,19.68 1.86,20.08 1.83,20.38 1.79,20.68 1.68,20.97 1.57,21.25 1.40,21.51 1.22,21.76 0.99,21.96 0.76,22.16 0.49,22.30 0.22,22.44 -0.06,22.52 -0.36,22.59 -0.67,22.59 -0.97,22.59 -1.27,22.51 -1.57,22.44 -1.84,22.30 -2.11,22.15 -2.33,21.95 -2.56,21.75 -2.73,21.50 -2.91,21.24 -3.02,20.96 -3.12,20.67 -3.16,20.37 -3.20,20.07 -3.01,18.59 -2.83,17.11 -2.59,15.27 -2.35,13.44 -2.25,11.27 -2.15,9.10 -1.93,7.78 -1.71,6.46 -1.65,4.77 -1.59,3.09 -1.62,1.62 -1.64,0.16 -1.66,-0.27 -1.68,-0.71 -1.64,-1.07 -1.59,-1.43 -1.46,-1.77 -1.32,-2.11 -1.11,-2.41 -0.90,-2.71 -0.63,-2.94 -0.35,-3.18 -0.03,-3.35 0.29,-3.51 0.64,-3.60 1.00,-3.68 1.36,-3.67 1.72,-3.67 2.08,-3.58 2.43,-3.49 2.75,-3.31 3.07,-3.14 3.34,-2.90 3.61,-2.65 3.81,-2.35 4.01,-2.05 4.14,-1.71 4.26,-1.37 4.30,-1.00 4.34,-0.64 4.12,0.71 3.90,2.07 3.61,3.22 3.32,4.37 2.99,5.61 2.65,6.86 2.31,8.02 1.97,9.18 1.85,10.75 1.74,12.32 1.18,12.66 0.62,13.00 1.07,13.20 1.52,13.41 1.88,13.74 2.24,14.08 2.48,14.52 2.71,14.95 2.80,15.44 2.88,15.93 2.80,16.41 2.73,16.90 2.50,17.34 2.27,17.78 1.91,18.12 1.56,18.46 1.11,18.68 0.66,18.89 0.17,18.94 -0.31,19.00 -0.79,18.90 -1.28,18.80 -1.70,18.54 -2.13,18.29 -2.45,17.92 -2.77,17.54 -2.96,17.09 -3.15,16.63 -3.18,16.14 -3.21,15.64 -3.08,15.16 -2.95,14.69 -2.68,14.28 -2.40,13.86 -2.01,13.56 -1.62,13.26 -1.15,13.10 -0.68,12.94 -0.19,12.93 0.30,12.93 0.76,13.08 1.23,13.24 1.63,13.53 2.03,13.83 2.31,14.24 2.59,14.64 2.72,15.12 2.86,15.60 2.84,16.09 2.81,16.58 2.63,17.04 2.45,17.50 2.14,17.88 1.82,18.26 1.40,18.52 0.98,18.78 0.49,18.89 0.01,19.00 -0.47,18.95 -0.96,18.90 -0.96,18.90 -0.96,18.90 -2.64,16.19 -4.33,13.47 -4.19,11.77 -4.06,10.07 -3.87,8.80 -3.68,7.54 -3.38,6.49 -3.08,5.44 -2.80,4.20 -2.51,2.95 -2.10,1.12 -1.68,-0.71 -1.64,-1.07 -1.59,-1.43 -1.46,-1.77 -1.32,-2.11 -1.11,-2.41 -0.90,-2.71 -0.63,-2.94 -0.35,-3.18 -0.03,-3.35 0.29,-3.51 0.64,-3.60 0.99,-3.68 1.36,-3.67 1.72,-3.67 2.07,-3.58 2.43,-3.49 2.75,-3.31 3.07,-3.14 3.34,-2.90 3.61,-2.65 3.81,-2.35 4.01,-2.05 4.14,-1.71 4.26,-1.37 4.30,-1.00 4.34,-0.64 4.28,0.38 4.22,1.42 4.11,3.27 4.01,5.12 3.69,7.20 3.36,9.29 3.32,10.62 3.28,11.95 2.93,14.09 2.57,16.23 2.22,18.15 1.86,20.08 1.83,20.38 1.79,20.68 1.68,20.97 1.57,21.25 1.40,21.51 1.22,21.76 0.99,21.96 0.76,22.16 0.49,22.30 0.22,22.44 -0.06,22.52 -0.36,22.59 -0.67,22.59 -0.97,22.59 -1.27,22.51 -1.57,22.44 -1.84,22.30 -2.11,22.15 -2.33,21.95 -2.56,21.75 -2.73,21.50 -2.91,21.24 -3.02,20.96 -3.12,20.67 -3.16,20.37 -3.20,20.07 -3.15,19.67 -3.11,19.27 -2.99,18.08 -2.88,16.89 -2.81,15.70 -2.74,14.51 -2.69,13.05 -2.63,11.60 -2.57,9.99 -2.50,8.38 -2.47,6.40 -2.44,4.42 -2.38,2.11 -2.32,-0.19 -2.27,-0.46 -2.21,-0.74 -2.09,-0.99 -1.97,-1.25 -1.79,-1.47 -1.61,-1.68 -1.38,-1.85 -1.16,-2.02 -0.90,-2.13 -0.64,-2.24 -0.36,-2.29 -0.08,-2.33 0.19,-2.31 0.47,-2.28 0.74,-2.19 1.00,-2.10 1.24,-1.95 1.48,-1.80 1.67,-1.60 1.87,-1.39 2.01,-1.15 2.15,-0.91 2.22,-0.63 2.30,-0.36 2.31,-0.08 2.32,0.19 2.32,0.19 L 2.32,0.19 Z"/></g><g transform="translate(234.6666717529297 142) rotate(0 5.333343505859375 0.6666717529296875)" stroke="none"><path fill="#1e1e1e" d="M 0.82,-2.48 Q 0.82,-2.48 1.98,-2.11 3.13,-1.74 4.47,-1.64 5.80,-1.55 8.30,-1.86 10.81,-2.18 11.15,-2.12 11.49,-2.07 11.80,-1.93 12.12,-1.80 12.40,-1.59 12.67,-1.38 12.89,-1.11 13.11,-0.85 13.25,-0.53 13.40,-0.22 13.47,0.11 13.54,0.44 13.52,0.79 13.51,1.13 13.41,1.47 13.32,1.80 13.14,2.10 12.97,2.39 12.73,2.64 12.49,2.89 12.20,3.07 11.91,3.26 11.58,3.37 11.25,3.48 10.91,3.50 10.57,3.53 9.73,3.21 8.89,2.90 8.58,2.55 8.27,2.21 8.09,1.78 7.91,1.35 7.87,0.89 7.83,0.43 7.95,-0.01 8.06,-0.46 8.31,-0.85 8.56,-1.24 8.92,-1.53 9.28,-1.81 9.72,-1.97 10.15,-2.13 10.62,-2.14 11.08,-2.15 11.52,-2.02 11.96,-1.88 12.34,-1.61 12.72,-1.34 12.98,-0.96 13.25,-0.58 13.39,-0.14 13.52,0.29 13.51,0.76 13.50,1.22 13.33,1.65 13.17,2.09 12.88,2.45 12.59,2.81 12.20,3.05 11.81,3.30 11.36,3.41 10.91,3.52 10.45,3.49 9.99,3.45 9.56,3.26 9.14,3.08 8.79,2.77 8.45,2.46 8.22,2.05 8.00,1.65 7.91,1.19 7.82,0.74 7.89,0.28 7.95,-0.17 8.16,-0.58 8.37,-1.00 8.69,-1.32 9.02,-1.65 9.44,-1.85 9.85,-2.06 10.31,-2.12 10.77,-2.18 11.23,-2.09 11.68,-2.00 11.24,-2.09 10.81,-2.18 11.15,-2.12 11.49,-2.07 11.80,-1.93 12.12,-1.80 12.40,-1.59 12.67,-1.38 12.89,-1.11 13.11,-0.85 13.25,-0.53 13.40,-0.22 13.47,0.11 13.54,0.44 13.52,0.79 13.51,1.13 13.41,1.47 13.32,1.80 13.14,2.09 12.97,2.39 12.73,2.64 12.49,2.89 12.20,3.07 11.91,3.26 11.58,3.37 11.25,3.48 10.91,3.50 10.57,3.53 8.70,3.84 6.84,4.14 5.19,3.95 3.54,3.76 2.50,3.52 1.46,3.28 0.31,2.88 -0.82,2.48 -1.11,2.35 -1.39,2.21 -1.64,2.01 -1.88,1.81 -2.07,1.56 -2.26,1.31 -2.39,1.02 -2.51,0.73 -2.56,0.41 -2.61,0.10 -2.59,-0.20 -2.56,-0.52 -2.46,-0.82 -2.36,-1.12 -2.19,-1.38 -2.03,-1.65 -1.80,-1.87 -1.57,-2.09 -1.30,-2.25 -1.02,-2.41 -0.72,-2.49 -0.42,-2.58 -0.10,-2.59 0.20,-2.61 0.51,-2.54 0.82,-2.48 0.82,-2.48 L 0.82,-2.48 Z"/></g><g transform="translate(258.00001525878906 136.66665649414062) rotate(0 15.666656494140625 7.6666717529296875)" stroke="none"><path fill="#1e1e1e" d="M 2.65,0 Q 2.65,0 2.67,1.15 2.68,2.3 2.75,3.89 2.81,5.48 3.21,7.19 3.60,8.89 3.82,10.13 4.03,11.38 4.13,12.74 4.24,14.10 4.34,15.31 4.43,16.52 4.67,17.11 4.90,17.69 4.86,18.08 4.82,18.46 4.69,18.82 4.56,19.18 4.35,19.51 4.13,19.83 3.85,20.09 3.56,20.35 3.23,20.53 2.89,20.71 2.52,20.81 2.14,20.91 1.76,20.92 1.37,20.92 1.00,20.84 0.62,20.75 0.28,20.58 -0.05,20.40 -0.35,20.15 -0.64,19.90 -0.86,19.59 -1.09,19.28 -1.23,18.92 -1.37,18.56 -1.42,18.18 -1.48,17.80 -1.05,16.30 -0.62,14.80 -0.06,12.99 0.49,11.18 0.88,9.04 1.27,6.90 1.36,5.57 1.45,4.23 1.71,2.72 1.98,1.20 1.98,-0.14 1.99,-1.50 1.98,-1.85 1.97,-2.20 2.03,-2.60 2.08,-3.00 2.23,-3.38 2.38,-3.75 2.62,-4.08 2.85,-4.41 3.16,-4.67 3.47,-4.93 3.83,-5.12 4.19,-5.30 4.58,-5.39 4.98,-5.48 5.38,-5.47 5.79,-5.46 6.18,-5.36 6.57,-5.26 6.92,-5.06 7.28,-4.87 7.57,-4.59 7.87,-4.32 8.10,-3.98 8.32,-3.65 8.46,-3.27 8.59,-2.89 8.64,-2.49 8.68,-2.08 7.83,-3.52 6.99,-4.95 8.03,-4.01 9.08,-3.06 9.44,-1.96 9.80,-0.85 10.77,0.37 11.75,1.61 13.18,2.36 14.61,3.12 15.85,3.16 17.09,3.19 17.84,1.91 18.59,0.62 19.33,-0.42 20.08,-1.46 20.63,-2.30 21.18,-3.13 21.50,-3.40 21.82,-3.68 22.19,-3.87 22.56,-4.07 22.97,-4.16 23.38,-4.26 23.80,-4.26 24.22,-4.25 24.63,-4.15 25.03,-4.05 25.40,-3.85 25.77,-3.65 26.09,-3.37 26.40,-3.09 26.63,-2.74 26.87,-2.40 27.02,-2.00 27.16,-1.61 27.21,-1.19 27.26,-0.77 27.20,-0.36 27.15,0.05 27.00,0.44 26.85,0.83 26.61,1.18 26.36,1.52 26.85,0.52 27.35,-0.47 27.34,1.80 27.34,4.07 27.29,5.39 27.24,6.71 27.16,8.23 27.09,9.75 27.06,10.97 27.04,12.19 27.04,13.28 27.03,14.38 25.02,14.46 23.00,14.55 24.27,13.13 25.54,11.72 26.82,9.57 28.10,7.43 28.43,7.06 28.75,6.69 29.18,6.44 29.60,6.19 30.08,6.09 30.56,5.99 31.05,6.05 31.54,6.11 31.98,6.32 32.43,6.54 32.78,6.88 33.13,7.22 33.36,7.66 33.58,8.10 33.65,8.58 33.73,9.07 33.64,9.55 33.55,10.04 33.32,10.47 33.08,10.90 32.72,11.23 32.36,11.57 31.91,11.77 31.46,11.97 30.97,12.01 30.48,12.06 30.01,11.95 29.53,11.84 29.11,11.58 28.69,11.32 28.38,10.94 28.06,10.56 27.89,10.10 27.71,9.64 27.69,9.15 27.67,8.66 27.81,8.19 27.95,7.72 28.23,7.31 28.51,6.91 28.90,6.62 29.30,6.33 29.77,6.18 30.24,6.02 30.73,6.03 31.22,6.04 31.68,6.20 32.15,6.36 32.53,6.67 32.92,6.97 33.19,7.38 33.46,7.79 33.59,8.26 33.71,8.74 33.68,9.23 33.65,9.72 33.46,10.18 33.27,10.63 33.27,10.63 33.27,10.63 31.65,13.17 30.02,15.72 27.89,17.62 25.75,19.52 23.43,18.38 21.11,17.23 21.04,15.81 20.96,14.38 20.95,13.29 20.94,12.20 20.92,10.98 20.90,9.76 20.82,8.25 20.73,6.74 20.68,5.44 20.62,4.13 20.54,2.34 20.46,0.55 20.82,-1.28 21.18,-3.13 21.50,-3.40 21.82,-3.68 22.19,-3.87 22.56,-4.07 22.97,-4.16 23.38,-4.26 23.80,-4.26 24.22,-4.25 24.63,-4.15 25.03,-4.05 25.40,-3.85 25.77,-3.65 26.09,-3.37 26.40,-3.09 26.63,-2.74 26.87,-2.40 27.02,-2.00 27.16,-1.61 27.21,-1.19 27.26,-0.77 27.20,-0.36 27.15,0.05 27.00,0.44 26.85,0.83 26.61,1.18 26.36,1.52 25.63,2.53 24.89,3.53 23.85,4.90 22.81,6.27 22.09,7.15 21.37,8.03 20.40,8.74 19.43,9.46 18.32,9.78 17.21,10.10 15.99,10.05 14.78,10.00 13.12,9.60 11.46,9.20 10.06,8.44 8.66,7.68 7.47,6.75 6.28,5.81 5.40,4.84 4.53,3.87 4.48,2.35 4.43,0.82 3.20,-0.68 1.97,-2.20 2.03,-2.60 2.08,-3.00 2.23,-3.38 2.38,-3.75 2.62,-4.08 2.85,-4.41 3.16,-4.67 3.47,-4.93 3.83,-5.12 4.19,-5.30 4.58,-5.39 4.98,-5.48 5.38,-5.47 5.79,-5.46 6.18,-5.36 6.57,-5.26 6.92,-5.06 7.28,-4.87 7.57,-4.59 7.87,-4.32 8.10,-3.99 8.32,-3.65 8.46,-3.27 8.59,-2.89 8.64,-2.49 8.68,-2.08 8.61,-0.85 8.54,0.38 8.18,1.97 7.81,3.57 7.71,4.93 7.60,6.30 7.26,8.20 6.91,10.10 6.44,12.56 5.98,15.02 5.44,16.36 4.90,17.69 4.86,18.08 4.82,18.46 4.69,18.82 4.56,19.18 4.35,19.50 4.13,19.83 3.85,20.09 3.56,20.35 3.23,20.53 2.89,20.71 2.52,20.81 2.14,20.91 1.76,20.92 1.37,20.92 1.00,20.84 0.62,20.75 0.28,20.58 -0.05,20.40 -0.35,20.15 -0.64,19.90 -0.86,19.59 -1.09,19.28 -1.23,18.92 -1.37,18.56 -1.42,18.18 -1.48,17.80 -1.47,18.02 -1.47,18.25 -1.63,17.04 -1.80,15.83 -1.87,14.29 -1.94,12.75 -2.17,11.60 -2.39,10.44 -2.38,9.31 -2.37,8.17 -2.59,6.89 -2.81,5.61 -2.75,3.95 -2.68,2.3 -2.67,1.15 -2.65,0 -2.61,-0.31 -2.57,-0.63 -2.46,-0.93 -2.34,-1.23 -2.16,-1.49 -1.98,-1.75 -1.74,-1.97 -1.50,-2.18 -1.22,-2.33 -0.94,-2.48 -0.63,-2.55 -0.31,-2.63 0.00,-2.63 0.31,-2.63 0.63,-2.55 0.94,-2.48 1.22,-2.33 1.50,-2.18 1.74,-1.97 1.98,-1.75 2.16,-1.49 2.34,-1.23 2.46,-0.93 2.57,-0.63 2.61,-0.31 2.65,0.00 2.65,0.00 L 2.65,0 Z"/></g><g transform="translate(242.00001525878906 78) rotate(0 97.66665649414062 23.666671752929688)" stroke="none"><path fill="#1e1e1e" d="M 0.48,-1.60 Q 0.48,-1.60 2.39,-1.01 4.30,-0.42 5.95,-0.23 7.61,-0.04 9.35,0.22 11.10,0.48 12.97,0.81 14.84,1.13 16.96,1.52 19.08,1.90 21.14,2.26 23.20,2.63 25.53,2.79 27.86,2.96 30.44,3.24 33.02,3.52 35.41,3.64 37.80,3.76 40.35,3.82 42.89,3.88 45.32,3.91 47.74,3.94 50.12,3.95 52.49,3.97 55.03,3.97 57.57,3.98 60.18,3.99 62.80,3.99 65.63,4.00 68.47,4.00 71.40,4.00 74.33,4.00 77.49,4.01 80.65,4.01 83.91,4.01 87.18,4.01 90.48,4.01 93.78,4.01 97.14,4.20 100.50,4.40 103.69,4.87 106.89,5.34 110.12,5.73 113.35,6.11 116.68,6.67 120.00,7.22 123.11,7.64 126.22,8.06 129.49,8.63 132.76,9.20 135.65,9.63 138.55,10.06 141.54,10.63 144.53,11.20 147.71,11.83 150.89,12.45 153.93,12.90 156.98,13.35 159.99,13.74 163.01,14.12 165.83,14.48 168.65,14.83 171.02,15.18 173.38,15.52 175.29,15.63 177.21,15.73 178.70,15.89 180.20,16.04 181.72,16.00 183.24,15.95 184.64,15.80 186.04,15.65 187.41,15.52 188.77,15.39 189.89,15.32 191.01,15.25 192.08,15.46 193.14,15.68 194.71,16.52 196.29,17.36 196.67,18.66 197.05,19.95 197.12,21.70 197.18,23.45 197.46,24.92 197.74,26.39 197.76,27.64 197.78,28.88 197.76,30.16 197.75,31.44 197.72,32.75 197.69,34.06 197.66,35.38 197.63,36.71 197.60,38.04 197.58,39.36 197.58,40.50 197.58,41.64 197.60,43.54 197.63,45.43 197.97,45.20 198.31,44.98 198.27,45.34 198.22,45.70 198.09,46.04 197.97,46.37 197.76,46.67 197.55,46.97 197.28,47.21 197.01,47.45 196.69,47.62 196.37,47.79 196.02,47.87 195.67,47.96 195.31,47.96 194.94,47.96 194.59,47.87 194.24,47.79 193.92,47.62 193.60,47.45 193.33,47.21 193.06,46.97 192.85,46.67 192.65,46.37 192.52,46.04 192.39,45.70 192.35,45.34 192.30,44.98 192.42,44.40 192.53,43.83 192.79,43.41 193.05,43.00 193.42,42.69 193.80,42.38 194.25,42.21 194.70,42.04 195.19,42.02 195.67,42.00 196.14,42.14 196.61,42.27 197.00,42.55 197.40,42.83 197.69,43.22 197.98,43.61 198.13,44.07 198.28,44.54 198.27,45.02 198.26,45.51 198.10,45.97 197.94,46.42 197.64,46.81 197.34,47.19 196.93,47.45 196.53,47.72 196.06,47.84 195.59,47.97 195.10,47.93 194.62,47.90 194.17,47.71 193.72,47.53 193.36,47.21 192.99,46.89 192.75,46.47 192.50,46.05 192.40,45.57 192.31,45.10 192.37,44.62 192.43,44.13 192.64,43.70 192.85,43.26 193.19,42.91 193.52,42.56 193.96,42.34 194.39,42.12 194.87,42.05 195.35,41.98 195.83,42.06 196.31,42.15 196.73,42.38 197.16,42.62 197.49,42.97 197.82,43.33 198.01,43.77 198.21,44.22 198.26,44.70 198.30,45.19 198.31,45.08 198.31,44.98 198.27,45.34 198.22,45.70 198.09,46.03 197.97,46.37 197.76,46.67 197.55,46.97 197.28,47.21 197.01,47.45 196.69,47.62 196.37,47.79 196.02,47.87 195.67,47.96 195.31,47.96 194.95,47.96 194.59,47.87 194.24,47.79 193.92,47.62 193.60,47.45 193.33,47.21 193.06,46.97 192.85,46.67 192.65,46.37 192.52,46.04 192.39,45.70 192.35,45.34 192.30,44.98 192.00,45.20 191.69,45.43 191.72,43.54 191.75,41.65 191.74,40.51 191.74,39.37 191.71,38.04 191.68,36.72 191.65,35.40 191.62,34.09 191.57,32.80 191.53,31.51 191.49,30.29 191.44,29.07 191.36,27.41 191.27,25.75 191.04,24.63 190.80,23.52 191.67,22.53 192.53,21.55 191.34,21.14 190.16,20.73 189.09,20.63 188.02,20.53 186.57,20.37 185.11,20.22 184.03,20.06 182.95,19.90 181.29,19.55 179.63,19.20 178.32,18.85 177.00,18.50 175.00,18.31 173.00,18.12 170.66,17.78 168.33,17.44 165.50,17.08 162.68,16.73 159.64,16.34 156.59,15.95 153.49,15.49 150.38,15.03 147.21,14.40 144.04,13.78 141.10,13.22 138.16,12.66 135.23,12.22 132.31,11.79 129.08,11.23 125.86,10.67 122.72,10.24 119.57,9.81 116.30,9.27 113.03,8.73 109.77,8.33 106.50,7.94 103.42,7.48 100.34,7.03 97.06,6.84 93.78,6.65 90.48,6.65 87.18,6.65 83.91,6.65 80.65,6.65 77.49,6.65 74.33,6.65 71.40,6.65 68.47,6.65 65.63,6.66 62.80,6.66 60.18,6.66 57.57,6.66 55.02,6.66 52.48,6.67 50.10,6.67 47.72,6.66 45.28,6.65 42.84,6.64 40.26,6.61 37.68,6.58 35.21,6.49 32.74,6.40 30.21,6.17 27.68,5.95 25.19,5.83 22.70,5.72 20.64,5.42 18.59,5.13 16.42,4.86 14.26,4.59 12.38,4.28 10.50,3.96 8.82,3.64 7.14,3.32 5.25,3.02 3.36,2.72 1.44,2.16 -0.48,1.60 -0.66,1.52 -0.85,1.44 -1.01,1.32 -1.17,1.19 -1.30,1.04 -1.42,0.88 -1.51,0.69 -1.59,0.51 -1.63,0.31 -1.67,0.11 -1.66,-0.08 -1.65,-0.28 -1.59,-0.47 -1.53,-0.67 -1.43,-0.84 -1.33,-1.02 -1.19,-1.16 -1.04,-1.30 -0.87,-1.41 -0.70,-1.52 -0.51,-1.58 -0.31,-1.64 -0.11,-1.66 0.08,-1.67 0.28,-1.64 0.48,-1.60 0.48,-1.60 L 0.48,-1.60 Z"/></g><g transform="translate(408.6667022705078 136.66665649414062) rotate(0 8.33331298828125 7.66668701171875)" stroke="none"><path fill="#1e1e1e" d="M 2.48,0 Q 2.48,0 2.38,1.91 2.29,3.83 2.08,5.55 1.87,7.26 1.81,8.63 1.76,10.00 1.55,11.34 1.35,12.69 1.32,14.45 1.30,16.21 1.35,17.16 1.40,18.12 1.35,18.45 1.30,18.77 1.18,19.07 1.05,19.38 0.86,19.64 0.66,19.91 0.41,20.12 0.15,20.33 -0.13,20.47 -0.43,20.62 -0.75,20.69 -1.07,20.76 -1.40,20.75 -1.73,20.73 -2.05,20.65 -2.37,20.56 -2.65,20.39 -2.94,20.23 -3.18,20.01 -3.42,19.78 -3.60,19.50 -3.78,19.23 -3.88,18.91 -3.99,18.60 -4.02,18.27 -4.05,17.95 -3.88,15.96 -3.71,13.98 -3.44,12.82 -3.16,11.67 -2.81,9.35 -2.46,7.03 -2.36,5.11 -2.26,3.19 -2.03,2.00 -1.81,0.80 -1.78,-0.64 -1.74,-2.08 -1.76,-2.47 -1.77,-2.86 -1.71,-3.23 -1.65,-3.60 -1.51,-3.94 -1.36,-4.29 -1.14,-4.59 -0.92,-4.89 -0.63,-5.13 -0.34,-5.36 -0.01,-5.53 0.32,-5.69 0.69,-5.77 1.05,-5.84 1.43,-5.83 1.80,-5.82 2.16,-5.71 2.52,-5.61 2.84,-5.43 3.17,-5.24 3.44,-4.98 3.71,-4.73 3.91,-4.41 4.11,-4.10 4.23,-3.74 4.35,-3.39 4.38,-3.02 4.42,-2.65 5.15,-1.45 5.89,-0.26 6.49,1.00 7.08,2.26 8.24,3.12 9.41,3.97 10.45,4.29 11.50,4.61 10.49,4.99 9.49,5.38 10.15,4.30 10.80,3.21 11.45,2.22 12.09,1.24 12.52,0.22 12.95,-0.78 12.91,-0.52 12.86,-0.25 12.97,-0.66 13.07,-1.08 13.27,-1.45 13.48,-1.82 13.76,-2.14 14.05,-2.45 14.40,-2.69 14.75,-2.92 15.15,-3.07 15.55,-3.21 15.97,-3.26 16.40,-3.31 16.82,-3.25 17.24,-3.19 17.63,-3.04 18.03,-2.88 18.37,-2.64 18.72,-2.39 19.00,-2.07 19.28,-1.75 19.47,-1.37 19.66,-0.99 19.76,-0.58 19.85,-0.16 19.85,0.25 19.84,0.68 20.00,2.05 20.15,3.41 20.10,5.51 20.05,7.61 20.03,8.68 20.01,9.75 19.97,10.97 19.93,12.19 19.93,13.86 19.93,15.53 19.88,15.72 19.82,15.92 20.19,16.31 20.55,16.70 20.77,17.18 20.99,17.66 21.05,18.19 21.11,18.72 20.99,19.24 20.87,19.76 20.60,20.21 20.32,20.67 19.91,21.01 19.51,21.35 19.01,21.55 18.52,21.74 17.98,21.77 17.45,21.80 16.94,21.65 16.43,21.51 15.99,21.21 15.55,20.91 15.23,20.48 14.91,20.06 14.74,19.55 14.58,19.05 14.58,18.52 14.58,17.98 14.75,17.48 14.93,16.98 15.25,16.55 15.57,16.13 16.02,15.84 16.46,15.54 16.97,15.40 17.48,15.26 18.01,15.29 18.54,15.32 19.04,15.52 19.53,15.72 19.94,16.07 20.34,16.41 20.61,16.87 20.88,17.33 20.99,17.85 21.11,18.37 21.05,18.90 20.99,19.42 20.76,19.91 20.54,20.39 20.17,20.77 19.80,21.16 19.33,21.40 18.86,21.65 18.33,21.73 17.81,21.82 17.28,21.73 16.76,21.64 16.29,21.39 15.82,21.14 15.82,21.14 15.82,21.14 14.61,18.33 13.39,15.53 13.39,13.86 13.39,12.19 13.35,10.98 13.31,9.76 13.29,8.69 13.26,7.63 13.22,6.48 13.17,5.34 13.13,3.74 13.08,2.15 12.97,0.94 12.86,-0.25 12.97,-0.66 13.07,-1.08 13.27,-1.45 13.48,-1.82 13.76,-2.14 14.05,-2.45 14.40,-2.69 14.75,-2.92 15.15,-3.07 15.55,-3.21 15.97,-3.26 16.40,-3.31 16.82,-3.25 17.24,-3.19 17.63,-3.04 18.03,-2.88 18.37,-2.64 18.72,-2.39 19.00,-2.07 19.27,-1.75 19.47,-1.37 19.66,-0.99 19.76,-0.58 19.85,-0.16 19.85,0.25 19.84,0.68 19.10,2.23 18.35,3.78 17.76,4.82 17.16,5.86 16.28,7.29 15.39,8.72 14.63,9.55 13.87,10.37 11.87,10.71 9.86,11.05 8.69,10.61 7.53,10.16 5.98,9.32 4.43,8.49 3.56,7.73 2.69,6.97 1.65,5.25 0.60,3.52 0.00,1.95 -0.59,0.38 -1.18,-1.23 -1.77,-2.86 -1.71,-3.23 -1.65,-3.60 -1.51,-3.94 -1.36,-4.29 -1.14,-4.59 -0.92,-4.89 -0.63,-5.13 -0.34,-5.36 -0.01,-5.53 0.32,-5.69 0.69,-5.77 1.05,-5.84 1.43,-5.83 1.80,-5.82 2.16,-5.71 2.52,-5.61 2.84,-5.43 3.17,-5.24 3.44,-4.98 3.71,-4.73 3.91,-4.41 4.11,-4.10 4.23,-3.74 4.35,-3.39 4.38,-3.02 4.42,-2.65 4.35,-1.76 4.28,-0.87 4.07,0.58 3.85,2.04 3.59,3.71 3.33,5.39 2.98,7.75 2.64,10.10 2.50,11.55 2.35,13.00 2.08,14.10 1.81,15.21 1.61,16.67 1.40,18.12 1.35,18.44 1.30,18.77 1.18,19.07 1.05,19.38 0.86,19.64 0.66,19.91 0.41,20.12 0.15,20.33 -0.13,20.47 -0.43,20.62 -0.75,20.69 -1.07,20.76 -1.40,20.75 -1.73,20.73 -2.05,20.65 -2.37,20.56 -2.65,20.39 -2.94,20.23 -3.18,20.01 -3.42,19.78 -3.60,19.50 -3.78,19.23 -3.88,18.91 -3.99,18.60 -4.02,18.27 -4.05,17.95 -4.01,17.52 -3.96,17.10 -3.81,15.64 -3.66,14.18 -3.25,11.96 -2.85,9.73 -2.74,8.23 -2.64,6.72 -2.46,5.27 -2.29,3.83 -2.38,1.91 -2.48,0 -2.44,-0.29 -2.40,-0.59 -2.30,-0.87 -2.19,-1.15 -2.02,-1.39 -1.85,-1.64 -1.63,-1.84 -1.40,-2.04 -1.14,-2.18 -0.87,-2.31 -0.58,-2.39 -0.29,-2.46 0.00,-2.46 0.29,-2.46 0.58,-2.39 0.87,-2.31 1.14,-2.18 1.40,-2.04 1.63,-1.84 1.85,-1.64 2.02,-1.39 2.19,-1.15 2.30,-0.87 2.40,-0.59 2.44,-0.29 2.48,0.00 2.48,0.00 L 2.48,0 Z"/></g><g transform="translate(438.00001525878906 146) rotate(0 5 -1)" stroke="none"><path fill="#1e1e1e" d="M 0,-2.55 Q 0,-2.55 1.34,-2.55 2.68,-2.56 4.10,-2.79 5.52,-3.02 6.83,-3.54 8.14,-4.06 8.54,-4.26 8.94,-4.45 9.38,-4.51 9.82,-4.57 10.26,-4.49 10.70,-4.40 11.09,-4.18 11.48,-3.96 11.77,-3.63 12.07,-3.29 12.25,-2.88 12.42,-2.47 12.46,-2.03 12.49,-1.58 12.38,-1.15 12.27,-0.72 12.03,-0.34 11.79,0.02 11.44,0.30 11.09,0.58 10.67,0.73 10.25,0.89 9.81,0.90 9.36,0.91 8.94,0.78 8.51,0.64 8.15,0.38 7.79,0.12 7.53,-0.23 7.27,-0.59 7.14,-1.02 7.01,-1.45 7.02,-1.90 7.03,-2.34 7.19,-2.76 7.34,-3.18 7.62,-3.53 7.90,-3.87 8.28,-4.11 8.66,-4.35 9.09,-4.46 9.53,-4.57 9.97,-4.53 10.42,-4.49 10.82,-4.31 11.23,-4.14 11.57,-3.84 11.90,-3.54 12.12,-3.15 12.33,-2.76 12.42,-2.32 12.50,-1.88 12.44,-1.44 12.38,-1.00 12.18,-0.60 11.98,-0.20 11.66,0.11 11.35,0.42 11.35,0.42 11.35,0.42 9.07,1.34 6.80,2.25 4.74,2.41 2.68,2.56 1.34,2.55 0,2.55 -0.30,2.51 -0.61,2.47 -0.89,2.36 -1.18,2.25 -1.43,2.08 -1.69,1.90 -1.89,1.67 -2.10,1.44 -2.24,1.17 -2.38,0.90 -2.45,0.60 -2.53,0.30 -2.53,-0.00 -2.53,-0.30 -2.45,-0.60 -2.38,-0.90 -2.24,-1.17 -2.09,-1.44 -1.89,-1.67 -1.69,-1.91 -1.43,-2.08 -1.18,-2.25 -0.89,-2.36 -0.61,-2.47 -0.30,-2.51 0.00,-2.55 0.00,-2.55 L 0,-2.55 Z"/></g><g transform="translate(457.3333282470703 136.66665649414062) rotate(0 8.000030517578125 8.333343505859375)" stroke="none"><path fill="#1e1e1e" d="M 2.57,0.42 Q 2.57,0.42 2.39,1.58 2.22,2.73 2.18,4.48 2.14,6.22 1.92,7.28 1.70,8.33 1.70,9.64 1.71,10.95 1.65,11.31 1.59,11.67 1.44,12.01 1.30,12.34 1.08,12.64 0.86,12.93 0.57,13.16 0.29,13.39 -0.03,13.55 -0.37,13.70 -0.72,13.77 -1.08,13.85 -1.45,13.83 -1.82,13.81 -2.17,13.71 -2.52,13.61 -2.83,13.42 -3.15,13.24 -3.41,12.98 -3.68,12.73 -3.87,12.42 -4.07,12.11 -4.18,11.76 -4.30,11.41 -4.33,11.05 -4.35,10.68 -4.11,9.24 -3.87,7.81 -3.30,6.31 -2.73,4.82 -2.09,2.96 -1.44,1.09 -0.74,-0.78 -0.04,-2.67 0.42,-3.96 0.89,-5.25 1.09,-5.58 1.29,-5.91 1.57,-6.18 1.84,-6.45 2.17,-6.64 2.50,-6.84 2.87,-6.95 3.24,-7.06 3.62,-7.08 4.00,-7.10 4.38,-7.03 4.76,-6.96 5.11,-6.80 5.46,-6.64 5.76,-6.40 6.06,-6.16 6.29,-5.85 6.53,-5.55 6.68,-5.20 6.84,-4.85 6.90,-4.47 6.97,-4.09 6.94,-3.71 6.92,-3.32 6.80,-2.96 6.68,-2.59 6.55,-4.15 6.42,-5.71 7.03,-4.56 7.64,-3.40 8.10,-2.16 8.57,-0.92 8.79,0.31 9.01,1.55 9.58,2.45 10.15,3.35 10.80,1.92 11.46,0.50 12.02,-0.91 12.59,-2.33 14.72,-4.35 16.86,-6.38 18.27,-5.65 19.68,-4.92 20.22,-3.95 20.76,-2.97 20.72,-0.85 20.69,1.26 20.63,2.62 20.57,3.98 20.55,5.14 20.53,6.29 20.49,7.55 20.46,8.80 20.44,9.91 20.43,11.02 20.44,12.90 20.44,14.77 20.48,16.01 20.51,17.25 19.09,20.69 17.68,24.13 17.18,24.30 16.67,24.46 16.15,24.46 15.62,24.45 15.12,24.28 14.62,24.11 14.20,23.79 13.78,23.47 13.49,23.03 13.20,22.59 13.06,22.08 12.92,21.57 12.95,21.04 12.98,20.52 13.18,20.03 13.38,19.54 13.73,19.14 14.07,18.74 14.52,18.47 14.98,18.20 15.49,18.09 16.01,17.98 16.53,18.04 17.06,18.10 17.54,18.33 18.01,18.55 18.40,18.92 18.78,19.28 19.02,19.75 19.26,20.22 19.35,20.74 19.43,21.26 19.34,21.78 19.25,22.30 19.00,22.76 18.75,23.23 18.37,23.59 17.98,23.95 17.50,24.17 17.02,24.39 16.49,24.44 15.97,24.50 15.45,24.38 14.94,24.26 14.49,23.99 14.04,23.71 13.70,23.31 13.36,22.90 13.17,22.41 12.98,21.92 12.95,21.39 12.93,20.87 13.07,20.36 13.21,19.85 13.51,19.41 13.81,18.98 14.23,18.66 14.66,18.35 14.66,18.35 14.66,18.35 14.40,17.80 14.15,17.25 14.18,16.01 14.21,14.77 14.22,12.90 14.22,11.02 14.21,9.92 14.20,8.81 14.16,7.55 14.13,6.30 14.10,5.15 14.07,4.00 14.01,2.65 13.94,1.30 14.30,-0.26 14.66,-1.82 15.87,-1.16 17.07,-0.50 18.44,-1.08 19.80,-1.67 19.13,-0.30 18.46,1.06 17.65,2.93 16.83,4.79 16.02,5.89 15.21,7.00 14.15,7.86 13.08,8.73 11.88,9.04 10.67,9.36 9.35,9.25 8.04,9.13 6.47,8.21 4.90,7.30 4.10,5.88 3.30,4.46 2.93,2.97 2.56,1.49 2.36,0.01 2.16,-1.45 1.52,-3.35 0.89,-5.25 1.09,-5.58 1.29,-5.91 1.57,-6.18 1.84,-6.45 2.17,-6.64 2.50,-6.84 2.87,-6.95 3.24,-7.06 3.62,-7.08 4.00,-7.10 4.38,-7.03 4.76,-6.96 5.11,-6.80 5.46,-6.64 5.76,-6.40 6.06,-6.16 6.29,-5.86 6.53,-5.55 6.68,-5.20 6.84,-4.85 6.90,-4.47 6.97,-4.09 6.94,-3.71 6.92,-3.32 6.80,-2.96 6.68,-2.59 6.53,-2.10 6.37,-1.61 5.75,-0.25 5.12,1.11 4.47,3.09 3.81,5.06 3.13,6.95 2.45,8.84 2.08,9.89 1.71,10.95 1.65,11.31 1.59,11.67 1.44,12.01 1.30,12.34 1.08,12.64 0.86,12.93 0.57,13.16 0.29,13.39 -0.03,13.55 -0.37,13.70 -0.72,13.77 -1.08,13.85 -1.45,13.83 -1.82,13.81 -2.17,13.71 -2.52,13.61 -2.83,13.42 -3.15,13.24 -3.41,12.98 -3.68,12.73 -3.87,12.42 -4.07,12.11 -4.18,11.76 -4.30,11.41 -4.33,11.05 -4.35,10.68 -4.28,9.90 -4.21,9.13 -3.98,7.97 -3.75,6.81 -3.49,5.51 -3.23,4.22 -3.11,3.04 -2.99,1.86 -2.78,0.71 -2.57,-0.42 -2.48,-0.72 -2.39,-1.03 -2.23,-1.30 -2.07,-1.57 -1.85,-1.79 -1.64,-2.02 -1.37,-2.19 -1.10,-2.35 -0.80,-2.45 -0.51,-2.55 -0.19,-2.57 0.11,-2.60 0.42,-2.55 0.73,-2.50 1.02,-2.37 1.31,-2.25 1.56,-2.06 1.81,-1.87 2.01,-1.62 2.20,-1.38 2.34,-1.09 2.47,-0.81 2.53,-0.50 2.59,-0.19 2.58,0.11 2.57,0.42 2.57,0.42 L 2.57,0.42 Z"/></g><g transform="translate(433.3333282470703 169.33334350585938) rotate(0 -35 17.666656494140625)" stroke="none"><path fill="#1e1e1e" d="M 2.53,0 Q 2.53,0 2.43,1.91 2.33,3.83 2.35,5.22 2.37,6.61 2.40,7.77 2.44,8.94 2.47,10.20 2.49,11.46 2.52,12.57 2.56,13.69 2.40,15.87 2.25,18.05 1.50,20.01 0.75,21.97 -0.82,22.45 -2.39,22.93 -4.15,22.74 -5.90,22.56 -7.62,22.29 -9.34,22.01 -11.67,21.66 -14.01,21.30 -15.33,21.16 -16.64,21.03 -18.36,20.89 -20.09,20.74 -22.27,20.36 -24.46,19.97 -26.43,19.77 -28.40,19.58 -30.58,19.43 -32.76,19.29 -34.92,19.01 -37.08,18.72 -39.07,18.60 -41.06,18.47 -43.13,18.21 -45.20,17.95 -47.05,17.68 -48.91,17.41 -50.57,17.33 -52.23,17.25 -53.82,17.06 -55.41,16.87 -56.87,16.62 -58.32,16.37 -59.58,16.32 -60.84,16.26 -61.95,16.28 -63.06,16.29 -65.19,16.15 -67.33,16.01 -67.03,17.92 -66.74,19.83 -66.64,21.02 -66.54,22.20 -66.34,23.27 -66.15,24.34 -66.03,25.56 -65.91,26.79 -65.86,27.90 -65.80,29.01 -65.73,30.61 -65.66,32.21 -65.65,33.15 -65.64,34.09 -65.68,34.46 -65.72,34.82 -65.84,35.16 -65.97,35.50 -66.17,35.81 -66.38,36.11 -66.65,36.35 -66.92,36.60 -67.24,36.77 -67.56,36.94 -67.91,37.03 -68.27,37.12 -68.63,37.13 -69.00,37.13 -69.35,37.05 -69.71,36.96 -70.03,36.80 -70.35,36.63 -70.63,36.39 -70.91,36.15 -71.12,35.86 -71.33,35.56 -71.46,35.22 -71.59,34.88 -71.64,34.52 -71.69,34.16 -71.61,33.66 -71.53,33.16 -71.30,32.73 -71.07,32.29 -70.71,31.96 -70.36,31.62 -69.91,31.42 -69.47,31.21 -68.98,31.16 -68.50,31.11 -68.02,31.21 -67.54,31.32 -67.12,31.57 -66.70,31.82 -66.39,32.19 -66.07,32.57 -65.89,33.02 -65.71,33.48 -65.68,33.97 -65.66,34.45 -65.79,34.93 -65.92,35.40 -66.19,35.80 -66.47,36.21 -66.86,36.50 -67.25,36.80 -67.71,36.95 -68.17,37.11 -68.66,37.11 -69.15,37.11 -69.62,36.95 -70.08,36.80 -70.47,36.50 -70.86,36.20 -71.13,35.80 -71.41,35.39 -71.54,34.92 -71.67,34.45 -71.64,33.96 -71.62,33.47 -71.43,33.02 -71.25,32.56 -70.94,32.19 -70.62,31.82 -70.20,31.57 -69.78,31.31 -69.30,31.21 -68.82,31.11 -68.34,31.16 -67.85,31.21 -67.41,31.42 -66.96,31.62 -66.61,31.96 -66.25,32.30 -66.02,32.73 -65.79,33.16 -65.72,33.64 -65.64,34.13 -65.64,34.11 -65.64,34.09 -65.68,34.46 -65.72,34.82 -65.84,35.16 -65.97,35.50 -66.17,35.81 -66.38,36.11 -66.65,36.35 -66.92,36.60 -67.24,36.77 -67.56,36.94 -67.91,37.03 -68.27,37.12 -68.63,37.13 -69.00,37.13 -69.35,37.05 -69.71,36.96 -70.03,36.80 -70.35,36.63 -70.63,36.39 -70.91,36.15 -71.12,35.86 -71.33,35.56 -71.46,35.22 -71.59,34.88 -71.64,34.52 -71.69,34.16 -71.68,33.21 -71.68,32.27 -71.66,30.76 -71.64,29.24 -71.74,27.31 -71.84,25.38 -72.16,23.07 -72.47,20.76 -72.68,19.36 -72.89,17.96 -72.78,16.10 -72.68,14.24 -71.42,12.63 -70.16,11.02 -68.81,10.98 -67.46,10.94 -66.24,11.32 -65.03,11.70 -63.94,11.78 -62.85,11.86 -61.65,11.98 -60.45,12.10 -58.98,12.29 -57.51,12.49 -56.16,12.83 -54.81,13.18 -53.39,13.47 -51.98,13.77 -50.18,13.93 -48.38,14.10 -46.61,14.41 -44.83,14.71 -42.87,14.91 -40.91,15.11 -38.82,15.16 -36.73,15.22 -34.71,15.35 -32.70,15.48 -30.46,15.41 -28.22,15.34 -26.10,15.32 -23.99,15.30 -21.98,15.34 -19.96,15.37 -18.11,15.31 -16.26,15.25 -14.59,15.31 -12.92,15.38 -11.80,15.56 -10.69,15.74 -8.57,16.05 -6.45,16.36 -4.73,16.59 -3.01,16.83 -2.79,15.26 -2.56,13.69 -2.52,12.57 -2.49,11.46 -2.47,10.20 -2.44,8.94 -2.40,7.77 -2.37,6.61 -2.35,5.22 -2.33,3.83 -2.43,1.91 -2.53,0 -2.49,-0.30 -2.45,-0.60 -2.35,-0.89 -2.24,-1.17 -2.06,-1.42 -1.89,-1.67 -1.66,-1.88 -1.43,-2.08 -1.16,-2.22 -0.89,-2.36 -0.60,-2.44 -0.30,-2.51 0.00,-2.51 0.30,-2.51 0.60,-2.44 0.89,-2.36 1.16,-2.22 1.43,-2.08 1.66,-1.88 1.89,-1.67 2.06,-1.42 2.24,-1.17 2.35,-0.89 2.45,-0.60 2.49,-0.30 2.53,0.00 2.53,0.00 L 2.53,0 Z"/></g><g transform="translate(332.00001525878906 216.66665649414062) rotate(0 6.666656494140625 -0.666656494140625)" stroke="none"><path fill="#1e1e1e" d="M 2.54,-0.28 Q 2.54,-0.28 2.67,1.44 2.80,3.18 2.92,4.34 3.04,5.50 3.19,6.89 3.33,8.28 3.41,9.16 3.48,10.04 3.45,10.38 3.41,10.72 3.29,11.04 3.18,11.36 2.99,11.64 2.80,11.93 2.55,12.15 2.29,12.38 1.99,12.55 1.69,12.71 1.36,12.79 1.04,12.88 0.69,12.88 0.35,12.89 0.02,12.81 -0.30,12.73 -0.60,12.58 -0.91,12.43 -1.16,12.20 -1.42,11.98 -1.62,11.70 -1.82,11.43 -1.94,11.11 -2.07,10.79 -2.11,10.45 -2.16,10.12 -2.19,8.94 -2.22,7.76 -2.24,5.72 -2.25,3.69 -2.24,2.43 -2.22,1.18 -2.23,0.07 -2.23,-1.02 -2.22,-2.26 -2.21,-3.50 -2.25,-5.18 -2.30,-6.86 -2.34,-8.25 -2.39,-9.64 -2.00,-10.70 -1.61,-11.76 -0.71,-12.60 0.18,-13.43 1.27,-13.83 2.36,-14.23 4.02,-14.64 5.67,-15.05 7.27,-15.14 8.87,-15.24 10.98,-15.28 13.08,-15.31 13.61,-15.23 14.14,-15.14 14.62,-14.89 15.09,-14.64 15.46,-14.25 15.83,-13.86 16.06,-13.37 16.28,-12.89 16.34,-12.35 16.40,-11.82 16.29,-11.30 16.17,-10.77 15.90,-10.31 15.62,-9.85 15.21,-9.50 14.80,-9.15 14.31,-8.96 13.81,-8.76 13.27,-8.73 12.74,-8.70 12.22,-8.84 11.70,-8.98 11.26,-9.28 10.81,-9.58 10.49,-10.01 10.16,-10.44 9.99,-10.94 9.82,-11.45 9.82,-11.99 9.82,-12.53 9.99,-13.04 10.16,-13.54 10.48,-13.97 10.80,-14.40 11.25,-14.70 11.69,-15.00 12.21,-15.15 12.73,-15.29 13.26,-15.26 13.80,-15.24 14.30,-15.04 14.80,-14.84 15.21,-14.49 15.62,-14.15 15.89,-13.69 16.17,-13.23 16.29,-12.70 16.40,-12.18 16.34,-11.65 16.29,-11.11 16.06,-10.62 15.84,-10.14 15.47,-9.75 15.10,-9.36 14.63,-9.10 14.15,-8.85 13.62,-8.76 13.09,-8.68 13.09,-8.68 13.10,-8.68 11.07,-8.69 9.05,-8.69 7.77,-8.66 6.49,-8.62 5.11,-8.94 3.72,-9.27 3.67,-8.06 3.63,-6.86 3.59,-5.18 3.54,-3.50 3.55,-2.26 3.56,-1.02 3.56,0.07 3.56,1.18 3.57,2.43 3.59,3.69 3.57,5.72 3.55,7.76 3.52,8.90 3.48,10.04 3.45,10.38 3.41,10.72 3.29,11.04 3.18,11.36 2.99,11.64 2.80,11.93 2.55,12.15 2.29,12.38 1.99,12.55 1.69,12.71 1.36,12.79 1.04,12.88 0.69,12.88 0.35,12.89 0.02,12.81 -0.30,12.73 -0.60,12.58 -0.91,12.43 -1.16,12.20 -1.42,11.98 -1.62,11.70 -1.82,11.43 -1.94,11.11 -2.07,10.79 -2.11,10.45 -2.16,10.12 -2.10,9.26 -2.04,8.40 -2.00,7.13 -1.95,5.86 -1.99,4.79 -2.03,3.71 -2.28,2.00 -2.54,0.28 -2.53,-0.02 -2.53,-0.33 -2.45,-0.63 -2.38,-0.93 -2.23,-1.20 -2.08,-1.47 -1.88,-1.70 -1.67,-1.93 -1.42,-2.10 -1.16,-2.27 -0.87,-2.38 -0.58,-2.48 -0.28,-2.52 0.02,-2.55 0.33,-2.51 0.63,-2.47 0.92,-2.36 1.21,-2.25 1.46,-2.07 1.71,-1.89 1.91,-1.66 2.11,-1.43 2.25,-1.15 2.39,-0.88 2.47,-0.58 2.54,-0.28 2.54,-0.28 L 2.54,-0.28 Z"/></g><g transform="translate(329.3333282470703 220) rotate(0 9.333343505859375 -1.6666717529296875)" stroke="none"><path fill="#1e1e1e" d="M -0.93,-2.33 Q -0.93,-2.33 1.03,-2.97 3.00,-3.61 4.54,-4.01 6.09,-4.40 7.19,-4.76 8.30,-5.12 9.53,-5.34 10.76,-5.56 11.88,-5.67 12.99,-5.78 15.61,-5.89 18.24,-6.00 18.66,-5.93 19.09,-5.86 19.47,-5.66 19.86,-5.46 20.16,-5.15 20.46,-4.84 20.64,-4.45 20.83,-4.06 20.88,-3.63 20.92,-3.20 20.83,-2.78 20.74,-2.35 20.52,-1.98 20.30,-1.61 19.98,-1.33 19.65,-1.04 19.25,-0.88 18.85,-0.72 18.42,-0.69 17.98,-0.67 17.57,-0.78 17.15,-0.89 16.79,-1.13 16.43,-1.37 16.17,-1.71 15.90,-2.06 15.76,-2.47 15.62,-2.87 15.62,-3.31 15.61,-3.74 15.75,-4.15 15.88,-4.56 16.14,-4.91 16.40,-5.25 16.76,-5.50 17.12,-5.74 17.53,-5.86 17.95,-5.98 18.38,-5.96 18.81,-5.94 19.21,-5.78 19.62,-5.63 19.95,-5.35 20.28,-5.07 20.51,-4.70 20.73,-4.33 20.83,-3.91 20.92,-3.49 20.88,-3.06 20.84,-2.63 20.66,-2.23 20.48,-1.84 20.18,-1.52 19.89,-1.21 19.51,-1.00 19.13,-0.80 18.70,-0.73 18.27,-0.65 18.27,-0.65 18.27,-0.65 15.78,-0.68 13.29,-0.70 11.43,-0.63 9.58,-0.56 8.36,-0.26 7.13,0.03 5.89,0.29 4.66,0.54 2.79,1.44 0.93,2.33 0.64,2.41 0.34,2.48 0.04,2.49 -0.25,2.50 -0.55,2.43 -0.84,2.36 -1.11,2.23 -1.39,2.09 -1.62,1.89 -1.85,1.70 -2.02,1.45 -2.20,1.20 -2.31,0.92 -2.42,0.64 -2.47,0.34 -2.51,0.04 -2.48,-0.25 -2.45,-0.55 -2.34,-0.84 -2.24,-1.12 -2.07,-1.38 -1.91,-1.63 -1.68,-1.83 -1.46,-2.04 -1.19,-2.18 -0.93,-2.33 -0.93,-2.33 L -0.93,-2.33 Z"/></g><g transform="translate(354.00001525878906 214) rotate(0 1 7)" stroke="none"><path fill="#1e1e1e" d="M 2.65,0 Q 2.65,0 2.65,1.34 2.64,2.68 2.71,4.42 2.78,6.16 2.83,7.84 2.89,9.52 3.01,10.38 3.13,11.24 3.52,11.52 3.91,11.80 4.19,12.20 4.47,12.59 4.61,13.05 4.75,13.51 4.73,13.99 4.72,14.47 4.55,14.92 4.38,15.37 4.08,15.74 3.78,16.12 3.37,16.38 2.97,16.63 2.50,16.75 2.03,16.86 1.55,16.82 1.07,16.78 0.63,16.59 0.19,16.40 -0.16,16.07 -0.51,15.75 -0.75,15.33 -0.98,14.91 -1.07,14.44 -1.16,13.97 -1.09,13.49 -1.03,13.02 -0.81,12.59 -0.60,12.16 -0.25,11.82 0.08,11.48 0.51,11.27 0.94,11.05 1.42,10.99 1.89,10.93 2.37,11.02 2.84,11.11 3.25,11.35 3.67,11.59 3.99,11.95 4.31,12.31 4.50,12.75 4.69,13.19 4.73,13.67 4.76,14.15 4.65,14.62 4.53,15.08 4.27,15.49 4.01,15.89 3.63,16.19 3.25,16.49 2.80,16.66 2.35,16.82 1.87,16.83 1.39,16.84 0.93,16.70 0.47,16.56 0.47,16.56 0.47,16.56 -1.20,13.04 -2.89,9.52 -2.83,7.84 -2.78,6.16 -2.71,4.42 -2.64,2.68 -2.65,1.34 -2.65,0 -2.61,-0.31 -2.57,-0.63 -2.46,-0.93 -2.35,-1.23 -2.16,-1.49 -1.98,-1.75 -1.74,-1.97 -1.50,-2.18 -1.22,-2.33 -0.94,-2.48 -0.63,-2.55 -0.31,-2.63 0.00,-2.63 0.32,-2.63 0.63,-2.55 0.94,-2.48 1.22,-2.33 1.50,-2.18 1.74,-1.97 1.98,-1.75 2.16,-1.49 2.35,-1.23 2.46,-0.93 2.57,-0.63 2.61,-0.31 2.65,0.00 2.65,0.00 L 2.65,0 Z"/></g><g transform="translate(361.3333282470703 214.66665649414062) rotate(0 3.66668701171875 4.333343505859375)" stroke="none"><path fill="#1e1e1e" d="M 1.77,-1.77 Q 1.77,-1.77 2.90,-0.60 4.02,0.57 4.83,1.53 5.64,2.49 7.34,4.55 9.04,6.61 9.28,6.97 9.52,7.32 9.64,7.74 9.75,8.15 9.73,8.58 9.70,9.01 9.54,9.41 9.38,9.81 9.10,10.13 8.82,10.46 8.46,10.68 8.09,10.90 7.67,10.99 7.25,11.08 6.82,11.03 6.40,10.99 6.01,10.81 5.62,10.62 5.31,10.33 4.99,10.03 4.79,9.65 4.59,9.27 4.53,8.85 4.46,8.43 4.53,8.00 4.60,7.58 4.80,7.20 5.00,6.82 5.32,6.53 5.63,6.23 6.02,6.05 6.41,5.87 6.84,5.83 7.26,5.78 7.68,5.88 8.10,5.97 8.47,6.19 8.84,6.41 9.11,6.74 9.39,7.07 9.55,7.47 9.71,7.87 9.73,8.30 9.75,8.73 9.63,9.14 9.52,9.55 9.28,9.91 9.03,10.26 8.69,10.52 8.35,10.78 7.94,10.92 7.53,11.05 7.10,11.05 6.68,11.05 6.27,10.91 5.86,10.77 5.52,10.51 5.18,10.25 5.18,10.25 5.18,10.25 3.80,8.60 2.42,6.95 1.49,5.49 0.57,4.02 -0.60,2.90 -1.77,1.77 -1.96,1.53 -2.15,1.30 -2.27,1.02 -2.40,0.74 -2.45,0.44 -2.50,0.15 -2.49,-0.15 -2.47,-0.45 -2.38,-0.74 -2.29,-1.03 -2.13,-1.29 -1.97,-1.55 -1.76,-1.76 -1.55,-1.97 -1.29,-2.13 -1.03,-2.29 -0.74,-2.38 -0.45,-2.47 -0.15,-2.49 0.15,-2.50 0.45,-2.45 0.74,-2.40 1.02,-2.27 1.30,-2.15 1.53,-1.96 1.77,-1.77 1.77,-1.77 L 1.77,-1.77 Z"/></g><g transform="translate(370.00001525878906 212.66665649414062) rotate(0 -4.333343505859375 6.333343505859375)" stroke="none"><path fill="#1e1e1e" d="M 1.75,1.58 Q 1.75,1.58 -0.06,3.40 -1.89,5.23 -2.98,6.56 -4.08,7.89 -4.64,8.84 -5.21,9.79 -5.82,10.44 -6.43,11.09 -6.24,11.40 -6.05,11.70 -5.97,12.05 -5.89,12.40 -5.92,12.75 -5.95,13.11 -6.10,13.44 -6.24,13.76 -6.49,14.03 -6.73,14.29 -7.04,14.46 -7.36,14.64 -7.71,14.70 -8.06,14.76 -8.41,14.71 -8.77,14.66 -9.09,14.49 -9.40,14.33 -9.65,14.07 -9.90,13.82 -10.06,13.50 -10.21,13.17 -10.26,12.82 -10.30,12.46 -10.23,12.11 -10.16,11.76 -9.98,11.45 -9.80,11.14 -9.53,10.91 -9.26,10.67 -8.93,10.53 -8.60,10.40 -8.24,10.37 -7.89,10.35 -7.54,10.44 -7.19,10.53 -6.89,10.73 -6.60,10.92 -6.37,11.20 -6.15,11.49 -6.03,11.82 -5.92,12.16 -5.91,12.52 -5.90,12.88 -6.01,13.22 -6.12,13.56 -6.34,13.85 -6.55,14.13 -6.84,14.34 -7.13,14.54 -7.48,14.64 -7.82,14.75 -8.18,14.73 -8.54,14.72 -8.87,14.59 -9.20,14.46 -9.48,14.23 -9.76,14.01 -9.76,14.01 -9.76,14.01 -9.28,10.67 -8.81,7.32 -8.04,6.32 -7.28,5.32 -6.14,3.88 -5.00,2.43 -3.38,0.42 -1.75,-1.58 -1.54,-1.77 -1.32,-1.95 -1.07,-2.08 -0.82,-2.22 -0.54,-2.28 -0.26,-2.35 0.01,-2.35 0.30,-2.34 0.58,-2.27 0.85,-2.20 1.10,-2.07 1.36,-1.93 1.57,-1.74 1.78,-1.55 1.94,-1.31 2.10,-1.08 2.20,-0.81 2.30,-0.54 2.33,-0.26 2.36,0.01 2.33,0.30 2.29,0.58 2.19,0.85 2.08,1.11 1.92,1.35 1.75,1.58 1.75,1.58 L 1.75,1.58 Z"/></g><g transform="translate(375.3333282470703 214.66665649414062) rotate(0 2.000030517578125 5.6666717529296875)" stroke="none"><path fill="#1e1e1e" d="M 2.61,0.32 Q 2.61,0.32 2.38,1.85 2.16,3.38 2.12,4.97 2.09,6.56 1.86,7.98 1.62,9.39 3.35,8.81 5.07,8.23 5.56,8.32 6.06,8.40 6.50,8.64 6.94,8.88 7.28,9.25 7.62,9.62 7.82,10.08 8.03,10.53 8.07,11.03 8.12,11.53 8.01,12.02 7.90,12.50 7.63,12.93 7.37,13.36 6.98,13.68 6.60,13.99 6.13,14.17 5.66,14.35 5.16,14.38 4.66,14.40 4.18,14.26 3.70,14.12 3.29,13.83 2.88,13.55 2.58,13.14 2.28,12.74 2.13,12.27 1.97,11.79 1.98,11.29 1.99,10.79 2.15,10.32 2.32,9.84 2.63,9.45 2.93,9.05 3.35,8.78 3.77,8.50 4.25,8.37 4.74,8.24 5.24,8.28 5.74,8.31 6.20,8.50 6.66,8.69 7.04,9.02 7.42,9.35 7.67,9.78 7.92,10.21 8.02,10.70 8.13,11.19 8.07,11.69 8.01,12.19 7.79,12.64 7.57,13.09 7.23,13.45 6.88,13.81 6.43,14.04 5.99,14.27 5.49,14.34 5.00,14.42 5.00,14.42 5.00,14.42 1.98,14.17 -1.02,13.92 -2.07,13.18 -3.12,12.44 -3.57,10.54 -4.03,8.64 -3.60,6.78 -3.17,4.93 -3.05,3.83 -2.93,2.74 -2.77,1.21 -2.61,-0.32 -2.53,-0.63 -2.45,-0.94 -2.30,-1.22 -2.16,-1.50 -1.94,-1.73 -1.73,-1.97 -1.47,-2.15 -1.21,-2.33 -0.91,-2.44 -0.62,-2.55 -0.30,-2.59 0.00,-2.63 0.32,-2.59 0.63,-2.55 0.93,-2.43 1.23,-2.32 1.49,-2.14 1.75,-1.96 1.96,-1.72 2.17,-1.48 2.31,-1.20 2.46,-0.92 2.53,-0.61 2.61,-0.30 2.61,0.00 2.61,0.32 2.61,0.32 L 2.61,0.32 Z"/></g><g transform="translate(373.3333282470703 220) rotate(0 3.333343505859375 -1.3333282470703125)" stroke="none"><path fill="#1e1e1e" d="M -0.88,-2.21 Q -0.88,-2.21 0.05,-2.64 1.00,-3.07 2.51,-3.59 4.01,-4.11 4.50,-4.45 4.99,-4.79 5.31,-4.87 5.64,-4.94 5.97,-4.94 6.30,-4.93 6.62,-4.85 6.94,-4.77 7.23,-4.61 7.52,-4.45 7.76,-4.23 8.01,-4.00 8.19,-3.73 8.38,-3.45 8.49,-3.14 8.60,-2.83 8.64,-2.50 8.67,-2.17 8.63,-1.85 8.58,-1.52 8.46,-1.21 8.34,-0.90 8.15,-0.63 7.95,-0.36 7.70,-0.15 7.45,0.06 7.16,0.21 6.86,0.36 5.12,0.87 3.39,1.38 2.99,1.46 2.60,1.53 2.20,1.48 1.80,1.43 1.44,1.25 1.08,1.08 0.79,0.79 0.51,0.51 0.33,0.15 0.15,-0.20 0.09,-0.59 0.03,-0.99 0.11,-1.39 0.18,-1.78 0.38,-2.13 0.57,-2.48 0.87,-2.75 1.17,-3.02 1.53,-3.18 1.90,-3.34 2.30,-3.38 2.70,-3.41 3.09,-3.32 3.48,-3.23 3.82,-3.01 4.16,-2.80 4.42,-2.48 4.67,-2.17 4.81,-1.80 4.95,-1.42 4.97,-1.02 4.98,-0.62 4.86,-0.23 4.75,0.14 4.51,0.47 4.28,0.80 3.96,1.03 3.63,1.27 3.25,1.39 2.87,1.51 2.46,1.50 2.06,1.49 1.68,1.36 1.31,1.22 0.99,0.97 0.68,0.72 0.46,0.38 0.24,0.05 0.14,-0.33 0.04,-0.72 0.07,-1.12 0.10,-1.52 0.26,-1.89 0.42,-2.26 0.68,-2.56 0.95,-2.86 1.30,-3.06 1.65,-3.26 1.65,-3.26 1.65,-3.26 3.32,-4.03 4.99,-4.79 5.31,-4.87 5.63,-4.94 5.97,-4.94 6.30,-4.93 6.62,-4.85 6.94,-4.77 7.23,-4.61 7.52,-4.45 7.76,-4.23 8.01,-4.00 8.19,-3.73 8.37,-3.45 8.49,-3.14 8.60,-2.83 8.64,-2.50 8.67,-2.17 8.63,-1.85 8.58,-1.52 8.46,-1.21 8.34,-0.90 8.15,-0.63 7.95,-0.36 7.70,-0.15 7.45,0.06 7.16,0.21 6.86,0.36 6.36,0.62 5.85,0.88 4.34,1.21 2.83,1.53 1.85,1.87 0.88,2.21 0.60,2.28 0.33,2.36 0.04,2.36 -0.24,2.37 -0.52,2.30 -0.80,2.24 -1.06,2.11 -1.31,1.98 -1.53,1.79 -1.75,1.61 -1.92,1.37 -2.09,1.14 -2.19,0.87 -2.30,0.61 -2.34,0.32 -2.38,0.04 -2.35,-0.24 -2.32,-0.52 -2.22,-0.79 -2.13,-1.07 -1.97,-1.30 -1.81,-1.54 -1.60,-1.74 -1.38,-1.93 -1.13,-2.07 -0.88,-2.21 -0.88,-2.21 L -0.88,-2.21 Z"/></g><g transform="translate(374.00001525878906 214) rotate(0 3.666656494140625 -1.3333282470703125)" stroke="none"><path fill="#1e1e1e" d="M -0.78,-2.09 Q -0.78,-2.09 0.74,-2.66 2.28,-3.23 3.25,-3.70 4.23,-4.17 4.84,-4.40 5.45,-4.64 5.73,-4.72 6.01,-4.80 6.31,-4.81 6.60,-4.82 6.89,-4.76 7.18,-4.70 7.44,-4.58 7.71,-4.45 7.94,-4.26 8.17,-4.07 8.34,-3.84 8.52,-3.60 8.63,-3.33 8.75,-3.06 8.79,-2.77 8.84,-2.48 8.81,-2.18 8.79,-1.89 8.69,-1.61 8.60,-1.33 8.44,-1.08 8.28,-0.83 8.07,-0.63 7.86,-0.43 7.60,-0.28 7.34,-0.13 5.41,0.42 3.47,0.99 3.13,1.06 2.79,1.13 2.44,1.08 2.10,1.04 1.78,0.89 1.47,0.73 1.22,0.49 0.97,0.24 0.82,-0.06 0.66,-0.37 0.61,-0.71 0.56,-1.06 0.63,-1.40 0.69,-1.74 0.86,-2.05 1.03,-2.35 1.29,-2.58 1.55,-2.82 1.86,-2.96 2.18,-3.10 2.53,-3.13 2.88,-3.16 3.22,-3.08 3.55,-2.99 3.85,-2.81 4.14,-2.62 4.36,-2.35 4.58,-2.08 4.70,-1.76 4.83,-1.43 4.84,-1.08 4.85,-0.73 4.75,-0.40 4.65,-0.07 4.45,0.21 4.24,0.49 3.96,0.70 3.68,0.90 3.35,1.00 3.02,1.11 2.67,1.10 2.32,1.09 1.99,0.98 1.67,0.86 1.39,0.64 1.12,0.42 0.93,0.13 0.74,-0.15 0.66,-0.49 0.57,-0.83 0.60,-1.17 0.62,-1.52 0.76,-1.84 0.90,-2.16 1.13,-2.42 1.36,-2.68 1.66,-2.85 1.96,-3.03 1.96,-3.03 1.96,-3.03 3.70,-3.83 5.45,-4.64 5.73,-4.72 6.01,-4.80 6.31,-4.81 6.60,-4.82 6.89,-4.76 7.18,-4.70 7.44,-4.58 7.71,-4.45 7.94,-4.26 8.17,-4.07 8.34,-3.84 8.52,-3.60 8.63,-3.33 8.75,-3.06 8.79,-2.77 8.84,-2.48 8.81,-2.18 8.79,-1.89 8.69,-1.61 8.60,-1.33 8.44,-1.08 8.28,-0.83 8.07,-0.63 7.86,-0.43 7.60,-0.28 7.34,-0.13 6.69,-0.00 6.03,0.12 4.94,0.52 3.84,0.93 2.31,1.51 0.78,2.09 0.52,2.16 0.26,2.22 -0.00,2.22 -0.27,2.22 -0.54,2.15 -0.80,2.09 -1.04,1.96 -1.27,1.83 -1.48,1.65 -1.68,1.47 -1.83,1.25 -1.98,1.03 -2.08,0.78 -2.17,0.52 -2.20,0.25 -2.24,-0.00 -2.20,-0.27 -2.17,-0.54 -2.07,-0.79 -1.98,-1.04 -1.82,-1.27 -1.67,-1.49 -1.46,-1.67 -1.26,-1.84 -1.02,-1.97 -0.78,-2.09 -0.78,-2.09 L -0.78,-2.09 Z"/></g><g transform="translate(388.00001525878906 210.66665649414062) rotate(0 5.666656494140625 10)" stroke="none"><path fill="#1e1e1e" d="M 2.45,0 Q 2.45,0 2.30,2.68 2.15,5.36 2.14,7.08 2.12,8.79 2.19,9.90 2.25,11.02 2.09,12.57 1.93,14.13 2.09,14.63 2.24,15.14 2.10,15.42 1.97,15.69 1.77,15.93 1.58,16.17 1.33,16.35 1.08,16.53 0.80,16.65 0.52,16.76 0.21,16.81 -0.08,16.86 -0.39,16.83 -0.69,16.80 -0.98,16.70 -1.27,16.60 -1.53,16.43 -1.79,16.27 -2.00,16.04 -2.21,15.82 -2.36,15.55 -2.51,15.29 -2.59,14.99 -2.67,14.70 -2.68,14.39 -2.69,14.08 -2.63,13.78 -2.56,13.48 -2.35,12.25 -2.14,11.01 -2.19,9.95 -2.24,8.88 -2.29,7.59 -2.34,6.30 -2.13,4.31 -1.92,2.33 -1.57,1.16 -1.23,-0.00 -0.45,-1.61 0.32,-3.21 1.86,-4.13 3.40,-5.06 4.60,-5.18 5.80,-5.30 7.95,-4.70 10.10,-4.10 10.98,-3.37 11.87,-2.65 12.69,-1.42 13.50,-0.19 13.98,0.92 14.45,2.03 14.71,3.36 14.97,4.68 15.05,5.83 15.13,6.97 15.18,8.78 15.23,10.60 14.99,12.55 14.75,14.51 14.07,15.66 13.40,16.82 12.69,17.65 11.99,18.47 10.96,19.33 9.92,20.18 8.58,21.42 7.25,22.66 6.40,22.65 5.55,22.63 5.24,22.87 4.93,23.10 4.57,23.25 4.21,23.41 3.83,23.47 3.44,23.53 3.06,23.50 2.67,23.47 2.30,23.35 1.93,23.22 1.60,23.01 1.27,22.81 1.00,22.53 0.73,22.24 0.53,21.91 0.34,21.57 0.23,21.20 0.12,20.82 0.11,20.43 0.09,20.04 0.17,19.66 0.25,19.28 0.41,18.93 0.58,18.57 0.83,18.27 1.07,17.97 0.69,18.55 0.30,19.13 0.57,18.68 0.83,18.23 1.23,17.89 1.62,17.55 2.11,17.35 2.59,17.15 3.11,17.12 3.64,17.09 4.14,17.22 4.65,17.36 5.08,17.65 5.52,17.94 5.84,18.35 6.16,18.76 6.33,19.26 6.50,19.75 6.50,20.27 6.51,20.80 6.35,21.30 6.18,21.79 5.87,22.21 5.56,22.63 5.13,22.93 4.70,23.22 4.19,23.37 3.69,23.51 3.17,23.49 2.65,23.47 2.16,23.28 1.67,23.09 1.27,22.75 0.87,22.42 0.59,21.97 0.32,21.52 0.20,21.01 0.09,20.50 0.14,19.98 0.19,19.46 0.41,18.99 0.62,18.51 0.98,18.13 1.34,17.75 1.80,17.50 2.26,17.25 2.77,17.16 3.29,17.07 3.80,17.15 4.32,17.23 4.78,17.47 5.25,17.71 5.61,18.09 5.97,18.47 6.20,18.94 6.42,19.41 6.48,19.93 6.54,20.45 6.05,21.54 5.55,22.63 5.24,22.87 4.93,23.10 4.57,23.25 4.21,23.41 3.83,23.47 3.44,23.53 3.06,23.50 2.67,23.47 2.30,23.35 1.93,23.22 1.60,23.02 1.27,22.81 1.00,22.53 0.73,22.24 0.53,21.91 0.34,21.57 0.23,21.20 0.12,20.82 0.11,20.43 0.09,20.04 0.17,19.66 0.25,19.28 0.41,18.93 0.58,18.57 0.83,18.27 1.07,17.97 2.66,17.30 4.24,16.63 5.04,15.89 5.83,15.16 6.90,14.15 7.97,13.14 8.35,11.91 8.73,10.69 8.69,9.06 8.65,7.44 8.52,6.01 8.38,4.58 7.95,3.47 7.51,2.37 6.20,1.91 4.88,1.45 4.29,3.03 3.70,4.62 3.66,6.12 3.62,7.63 3.55,8.93 3.48,10.24 3.33,11.40 3.19,12.55 2.71,13.85 2.24,15.14 2.10,15.42 1.97,15.69 1.77,15.93 1.58,16.17 1.33,16.35 1.08,16.53 0.80,16.65 0.52,16.76 0.21,16.81 -0.08,16.86 -0.39,16.83 -0.69,16.80 -0.98,16.70 -1.27,16.60 -1.53,16.43 -1.79,16.27 -2.00,16.04 -2.21,15.82 -2.36,15.55 -2.51,15.29 -2.59,14.99 -2.67,14.70 -2.68,14.39 -2.69,14.08 -2.63,13.78 -2.56,13.48 -2.63,13.52 -2.70,13.55 -2.47,12.29 -2.25,11.02 -2.19,9.90 -2.12,8.79 -2.14,7.08 -2.15,5.36 -2.30,2.68 -2.45,0 -2.41,-0.29 -2.38,-0.58 -2.27,-0.86 -2.17,-1.13 -2.00,-1.38 -1.83,-1.62 -1.61,-1.82 -1.39,-2.01 -1.13,-2.15 -0.86,-2.29 -0.58,-2.36 -0.29,-2.43 0.00,-2.43 0.29,-2.43 0.58,-2.36 0.86,-2.29 1.13,-2.15 1.39,-2.01 1.61,-1.82 1.83,-1.62 2.00,-1.38 2.17,-1.13 2.27,-0.86 2.38,-0.58 2.41,-0.29 2.45,0.00 2.45,0.00 L 2.45,0 Z"/></g><g transform="translate(432.6667022705078 186) rotate(0 38.33331298828125 10.666671752929688)" stroke="none"><path fill="#1e1e1e" d="M -0.94,-2.36 Q -0.94,-2.36 -0.00,-2.78 0.94,-3.19 2.90,-3.84 4.87,-4.50 5.96,-4.60 7.05,-4.70 9.30,-4.76 11.55,-4.82 13.04,-4.61 14.53,-4.40 15.91,-4.09 17.29,-3.79 18.45,-3.69 19.61,-3.58 21.22,-3.29 22.83,-2.99 24.79,-2.56 26.74,-2.13 28.81,-1.88 30.88,-1.62 33.38,-1.27 35.88,-0.92 38.28,-0.54 40.68,-0.16 42.97,0.01 45.26,0.18 47.64,0.48 50.02,0.77 51.94,0.86 53.86,0.95 55.62,0.95 57.39,0.96 58.91,0.91 60.43,0.85 62.46,0.69 64.50,0.53 66.31,0.40 68.11,0.28 69.39,-0.08 70.67,-0.45 72.47,-0.42 74.27,-0.39 75.49,0.93 76.71,2.26 77.13,3.79 77.54,5.33 77.90,6.86 78.27,8.39 78.34,10.45 78.41,12.50 78.40,14.70 78.39,16.90 78.56,18.17 78.73,19.44 79.19,20.43 79.65,21.43 79.70,21.80 79.75,22.18 79.70,22.55 79.66,22.93 79.53,23.28 79.39,23.64 79.18,23.95 78.97,24.26 78.69,24.51 78.41,24.76 78.07,24.94 77.74,25.12 77.37,25.21 77.01,25.31 76.63,25.31 76.25,25.31 75.88,25.22 75.51,25.13 75.18,24.96 74.84,24.79 74.56,24.54 74.27,24.29 74.06,23.98 73.84,23.67 73.70,23.32 73.57,22.96 73.78,21.71 73.99,20.46 74.34,20.09 74.68,19.72 75.13,19.48 75.57,19.23 76.07,19.15 76.57,19.06 77.07,19.13 77.58,19.21 78.03,19.44 78.48,19.68 78.83,20.04 79.18,20.40 79.40,20.86 79.62,21.32 79.68,21.82 79.74,22.33 79.64,22.82 79.54,23.32 79.28,23.76 79.02,24.20 78.64,24.53 78.26,24.86 77.79,25.06 77.32,25.25 76.81,25.28 76.31,25.32 75.81,25.19 75.32,25.06 74.90,24.78 74.48,24.50 74.17,24.10 73.85,23.69 73.69,23.22 73.52,22.74 73.51,22.23 73.51,21.72 73.66,21.24 73.82,20.76 74.12,20.35 74.43,19.94 74.84,19.65 75.26,19.36 75.75,19.22 76.23,19.08 76.74,19.10 77.25,19.12 77.72,19.31 78.20,19.49 78.59,19.81 78.98,20.14 79.24,20.57 79.51,21.00 79.62,21.49 79.74,21.99 79.69,22.49 79.64,23.00 79.64,22.21 79.65,21.43 79.70,21.80 79.75,22.18 79.70,22.55 79.66,22.93 79.53,23.28 79.39,23.64 79.18,23.95 78.97,24.26 78.69,24.51 78.41,24.76 78.07,24.94 77.74,25.12 77.37,25.21 77.01,25.31 76.63,25.31 76.25,25.31 75.88,25.22 75.51,25.13 75.18,24.96 74.84,24.79 74.56,24.54 74.27,24.29 74.06,23.98 73.84,23.67 73.70,23.32 73.57,22.96 73.13,21.96 72.69,20.97 72.47,18.94 72.25,16.92 72.23,15.74 72.21,14.56 72.18,12.65 72.16,10.75 72.12,9.41 72.09,8.07 71.68,6.38 71.27,4.69 69.71,4.87 68.15,5.05 66.32,4.91 64.49,4.78 62.44,4.60 60.38,4.41 58.85,4.32 57.31,4.23 55.50,4.15 53.69,4.06 51.70,3.95 49.70,3.83 47.40,3.63 45.09,3.43 42.67,3.36 40.25,3.29 37.88,3.07 35.50,2.86 33.07,2.72 30.64,2.59 28.34,2.59 26.04,2.60 24.02,2.44 22.00,2.28 20.57,2.10 19.13,1.91 17.65,1.78 16.17,1.66 14.94,1.42 13.71,1.18 12.65,1.02 11.60,0.86 10.44,0.87 9.29,0.88 7.52,0.91 5.76,0.94 4.32,1.30 2.88,1.66 1.91,2.01 0.94,2.36 0.65,2.44 0.35,2.52 0.04,2.53 -0.26,2.53 -0.56,2.46 -0.86,2.40 -1.13,2.26 -1.41,2.12 -1.64,1.92 -1.87,1.72 -2.05,1.47 -2.23,1.22 -2.35,0.94 -2.46,0.65 -2.50,0.35 -2.55,0.04 -2.51,-0.26 -2.48,-0.56 -2.38,-0.85 -2.27,-1.14 -2.10,-1.40 -1.93,-1.65 -1.71,-1.86 -1.48,-2.07 -1.21,-2.22 -0.94,-2.36 -0.94,-2.36 L -0.94,-2.36 Z"/></g></svg>