<svg version="1.1" xmlns="http://www.w3.org/2000/svg" viewBox="0 0 708.9172622781247 685.5788130085915" width="708.9172622781247" height="685.5788130085915">
  <!-- svg-source:excalidraw -->
  
  <defs>
    <style class="style-fonts">
      @font-face {
        font-family: "Virgil";
        src: url("https://excalidraw.com/Virgil.woff2");
      }
      @font-face {
        font-family: "Cascadia";
        src: url("https://excalidraw.com/Cascadia.woff2");
      }
    </style>
    
  </defs>
  <rect x="0" y="0" width="708.9172622781247" height="685.5788130085915" fill="#ffffff"/><g stroke-linecap="round"><g transform="translate(77 10.57881300859151) rotate(0 310.5 161.5)"><path d="M0.58 -0.58 C104.29 53.02, 518.63 268.52, 621.92 322.57 M-0.57 1.73 C103.09 55.41, 517.55 270.55, 621.45 323.88" stroke="#1e1e1e" stroke-width="1" fill="none"/></g><g transform="translate(77 10.57881300859151) rotate(0 310.5 161.5)"><path d="M590.73 321.58 C599.12 319.76, 609.08 322.14, 621.73 325.82 M591.99 320.29 C601.18 320.27, 612.21 322.27, 621.93 323.09" stroke="#1e1e1e" stroke-width="1" fill="none"/></g><g transform="translate(77 10.57881300859151) rotate(0 310.5 161.5)"><path d="M600.15 303.35 C606.11 306.55, 613.51 313.9, 621.73 325.82 M601.41 302.06 C607.29 308.34, 615.1 316.59, 621.93 323.09" stroke="#1e1e1e" stroke-width="1" fill="none"/></g></g><mask/><g stroke-linecap="round" transform="translate(10 273.5788130085915) rotate(0 292 201)"><path d="M284.08 -0.55 C305.98 -4.23, 332.46 0.84, 355.42 4.4 C378.38 7.95, 401.08 13.66, 421.82 20.79 C442.57 27.92, 462.32 36.71, 479.91 47.17 C497.51 57.63, 513.71 70.7, 527.4 83.56 C541.08 96.42, 553.01 109.58, 562.02 124.35 C571.02 139.12, 578.09 156.1, 581.41 172.2 C584.73 188.3, 584.43 205.06, 581.95 220.95 C579.47 236.85, 574.31 252.55, 566.53 267.57 C558.75 282.6, 547.83 297.61, 535.28 311.12 C522.72 324.63, 508.28 337.8, 491.22 348.63 C474.16 359.47, 453.46 368.49, 432.93 376.12 C412.4 383.76, 390.22 390.1, 368.04 394.44 C345.85 398.77, 323.05 401.65, 299.81 402.14 C276.57 402.64, 251.52 400.97, 228.62 397.39 C205.72 393.81, 183.14 387.8, 162.41 380.68 C141.68 373.56, 122.19 364.98, 104.24 354.68 C86.29 344.38, 68.5 331.77, 54.72 318.89 C40.93 306.02, 30.31 292.3, 21.54 277.4 C12.76 262.51, 5.5 245.51, 2.06 229.5 C-1.39 213.49, -1.53 197.16, 0.87 181.33 C3.28 165.51, 8.8 149.78, 16.5 134.53 C24.2 119.28, 34.3 103.3, 47.07 89.82 C59.84 76.34, 76.06 64.31, 93.1 53.64 C110.15 42.97, 128.92 33.72, 149.33 25.79 C169.75 17.87, 190.4 10.38, 215.59 6.09 C240.77 1.8, 283.65 0.16, 300.44 0.06 C317.23 -0.04, 316.27 2.16, 316.32 5.48 M396.45 13.68 C419.08 16.26, 440 27.09, 458.9 36.35 C477.81 45.62, 494.73 57.32, 509.89 69.26 C525.05 81.21, 539.04 93.94, 549.86 108 C560.68 122.07, 569.19 138.24, 574.81 153.63 C580.43 169.03, 583.61 184.51, 583.58 200.4 C583.56 216.28, 580.2 233.33, 574.64 248.95 C569.08 264.57, 561 279.75, 550.24 294.1 C539.49 308.46, 525.4 323.06, 510.11 335.08 C494.82 347.09, 477.73 357.02, 458.5 366.21 C439.27 375.39, 416.79 384.59, 394.74 390.17 C372.7 395.74, 349.37 398.1, 326.23 399.67 C303.09 401.24, 279.24 401.43, 255.89 399.59 C232.54 397.75, 208.07 394.17, 186.12 388.62 C164.18 383.08, 143.35 375.65, 124.22 366.32 C105.09 356.99, 86.39 344.53, 71.34 332.64 C56.29 320.75, 44.19 308.82, 33.92 294.98 C23.65 281.14, 15.48 265.33, 9.72 249.6 C3.95 233.87, -0.27 216.65, -0.68 200.6 C-1.09 184.55, 1.71 169.04, 7.25 153.32 C12.8 137.6, 21.6 120.4, 32.6 106.27 C43.59 92.14, 57.73 80.64, 73.22 68.55 C88.7 56.47, 106.26 43.11, 125.5 33.76 C144.74 24.41, 166.48 18.06, 188.68 12.46 C210.87 6.85, 235.2 2.09, 258.66 0.12 C282.12 -1.85, 306.55 -1.41, 329.43 0.64 C352.31 2.69, 385.14 9.52, 395.94 12.4 C406.74 15.27, 395.95 14.74, 394.23 17.88" stroke="#1e1e1e" stroke-width="1" fill="none"/></g><g stroke-linecap="round" transform="translate(52.69392525670935 142.8491491513546) rotate(0 230.58823529411762 64.70588235294116)"><path d="M288.75 16.25 M288.75 16.25 C319.32 26.5, 351.9 32.19, 403.43 48.75 M288.75 16.25 C320.07 24.16, 352.87 33.59, 403.43 48.75 M403.43 48.75 C460.99 65.65, 459.68 63.08, 403.43 81.25 M403.43 48.75 C460.88 64.73, 459.19 66.15, 403.43 81.25 M403.43 81.25 C366.55 91.54, 331.65 102.86, 288.75 113.16 M403.43 81.25 C371.11 89.13, 339.62 98.23, 288.75 113.16 M288.75 113.16 C231.51 127.64, 232.39 127.88, 173.25 113.16 M288.75 113.16 C230.71 127.97, 231.11 128.78, 173.25 113.16 M173.25 113.16 C148.84 104.48, 124.16 99.23, 57.75 81.25 M173.25 113.16 C128.28 100.62, 81.24 88.02, 57.75 81.25 M57.75 81.25 C-1.15 63.12, -0.1 63.55, 57.75 48.75 M57.75 81.25 C0.44 62.79, -1.74 66.43, 57.75 48.75 M57.75 48.75 C100.24 35.93, 142.9 24.7, 173.25 16.25 M57.75 48.75 C83.35 41.56, 106.05 35.14, 173.25 16.25 M173.25 16.25 C230.51 1.16, 229.31 1.66, 288.75 16.25 M173.25 16.25 C229.61 -0.81, 229.61 -0.23, 288.75 16.25" stroke="#1e1e1e" stroke-width="1" fill="none"/></g><g transform="translate(539.1645134920034 56.96679621017813) rotate(0 0.5882352941176805 44.117647058823536)" stroke="none"><path fill="#1e1e1e" d="M 1.85,0.33 Q 1.85,0.33 1.49,2.19 1.14,4.05 0.85,5.70 0.56,7.35 0.19,9.50 -0.17,11.66 -0.49,13.63 -0.82,15.59 -1.08,17.30 -1.34,19.00 -1.50,20.96 -1.66,22.93 -1.89,24.87 -2.11,26.81 -2.18,28.57 -2.25,30.34 -2.27,32.10 -2.29,33.86 -2.37,36.30 -2.45,38.74 -2.50,41.13 -2.55,43.52 -2.50,45.21 -2.44,46.91 -2.66,49.54 -2.88,52.17 -2.95,54.09 -3.01,56.01 -2.96,57.50 -2.91,58.99 -3.01,60.27 -3.12,61.54 -3.25,63.55 -3.39,65.56 -3.58,67.18 -3.76,68.80 -3.88,70.08 -4.00,71.36 -4.64,72.36 -5.28,73.36 -7.00,74.39 -8.72,75.42 -10.73,76.29 -12.73,77.16 -14.06,77.77 -15.39,78.37 -18.60,79.36 -21.81,80.35 -24.73,81.07 -27.65,81.79 -30.38,82.56 -33.10,83.33 -35.61,84.14 -38.11,84.94 -40.35,85.77 -42.58,86.60 -44.11,87.46 -45.65,88.33 -46.55,89.08 -47.45,89.83 -48.34,90.96 -49.24,92.08 -49.76,93.43 -50.28,94.78 -50.51,96.02 -50.74,97.27 -50.73,98.73 -50.71,100.19 -50.71,101.32 -50.71,102.44 -50.33,104.48 -49.95,106.52 -49.32,107.83 -48.69,109.14 -48.26,110.12 -47.83,111.10 -47.00,112.04 -46.17,112.98 -45.23,113.66 -44.29,114.35 -42.76,115.55 -41.23,116.74 -40.13,117.27 -39.03,117.79 -36.98,118.48 -34.92,119.18 -33.27,119.75 -31.62,120.32 -29.68,120.52 -27.73,120.71 -26.53,120.75 -25.34,120.78 -23.02,120.42 -20.70,120.05 -19.50,119.80 -18.30,119.54 -16.71,118.94 -15.12,118.35 -13.94,117.74 -12.75,117.13 -11.49,116.57 -10.23,116.02 -9.00,115.44 -7.76,114.87 -6.67,114.20 -5.59,113.53 -4.44,112.75 -3.29,111.98 -2.27,111.27 -1.25,110.56 -0.43,109.85 0.37,109.14 1.38,107.68 2.40,106.22 4.62,105.20 6.84,104.18 8.58,104.59 10.32,105.00 12.34,105.85 14.36,106.69 15.70,107.13 17.04,107.57 19.68,108.39 22.32,109.21 24.37,109.96 26.41,110.72 27.69,110.91 28.96,111.10 30.12,111.15 31.28,111.19 32.36,111.24 33.43,111.29 34.28,110.16 35.12,109.02 36.45,107.53 37.77,106.04 39.47,104.11 41.18,102.18 42.18,100.85 43.19,99.52 44.56,97.95 45.94,96.38 47.00,95.14 48.07,93.90 48.82,93.00 49.58,92.09 50.37,90.42 51.16,88.76 51.46,86.94 51.75,85.11 51.83,84.00 51.90,82.89 51.79,81.71 51.68,80.53 51.47,79.38 51.26,78.22 50.78,76.89 50.29,75.56 49.74,74.05 49.18,72.53 48.72,71.37 48.27,70.21 47.25,68.82 46.24,67.42 45.19,65.40 44.14,63.39 43.12,60.99 42.10,58.58 41.76,57.11 41.42,55.63 41.10,54.58 40.78,53.54 40.47,52.16 40.16,50.78 39.56,48.46 38.96,46.15 38.67,44.90 38.38,43.66 38.12,42.04 37.86,40.43 37.58,39.13 37.30,37.83 37.00,35.70 36.69,33.58 36.29,31.51 35.89,29.45 35.49,27.69 35.10,25.94 34.77,24.15 34.43,22.37 34.20,21.24 33.98,20.11 33.73,18.66 33.47,17.22 33.06,15.23 32.65,13.24 32.40,11.42 32.15,9.60 32.05,8.22 31.94,6.85 31.84,5.28 31.75,3.71 32.03,1.95 32.32,0.19 32.56,-1.36 32.81,-2.92 33.68,-4.62 34.55,-6.32 33.61,-6.95 32.67,-7.58 31.91,-8.38 31.15,-9.17 30.22,-9.97 29.29,-10.78 28.13,-12.08 26.96,-13.38 25.70,-14.80 24.44,-16.21 23.74,-17.18 23.04,-18.14 22.01,-19.75 20.98,-21.36 20.34,-22.39 19.70,-23.42 18.67,-24.75 17.64,-26.07 16.20,-26.75 14.75,-27.43 12.34,-28.29 9.94,-29.14 8.78,-29.52 7.62,-29.89 6.28,-30.26 4.93,-30.63 3.76,-30.97 2.58,-31.31 1.26,-30.87 -0.05,-30.44 -1.44,-29.34 -2.82,-28.24 -3.91,-27.49 -5.00,-26.73 -6.12,-25.89 -7.25,-25.05 -8.03,-23.99 -8.81,-22.94 -9.12,-21.91 -9.43,-20.89 -9.71,-19.73 -9.98,-18.57 -10.27,-17.40 -10.55,-16.24 -10.59,-15.03 -10.63,-13.83 -10.41,-12.53 -10.19,-11.23 -9.45,-10.43 -8.70,-9.63 -7.49,-8.66 -6.27,-7.70 -5.24,-6.43 -4.20,-5.17 -4.04,-4.92 -3.89,-4.68 -3.36,-4.43 -2.84,-4.18 -2.42,-3.77 -2.00,-3.37 -1.73,-2.85 -1.47,-2.34 -1.38,-1.76 -1.29,-1.19 -1.39,-0.62 -1.49,-0.04 -1.77,0.46 -2.05,0.97 -2.47,1.36 -2.90,1.76 -3.43,2.00 -3.96,2.24 -4.54,2.29 -5.11,2.35 -5.68,2.22 -6.25,2.09 -6.74,1.78 -7.24,1.48 -7.61,1.03 -7.98,0.59 -8.19,0.04 -8.40,-0.49 -8.42,-1.07 -8.45,-1.65 -8.29,-2.21 -8.13,-2.77 -7.80,-3.24 -7.47,-3.72 -7.00,-4.07 -6.53,-4.41 -5.98,-4.59 -5.43,-4.77 -4.85,-4.77 -4.27,-4.76 -3.72,-4.57 -3.17,-4.38 -2.71,-4.02 -2.25,-3.67 -1.93,-3.18 -1.61,-2.70 -1.46,-2.14 -1.31,-1.58 -1.35,-1.00 -1.38,-0.42 -1.60,0.11 -1.82,0.65 -2.21,1.09 -2.59,1.53 -3.09,1.82 -3.59,2.12 -4.16,2.24 -4.73,2.35 -5.30,2.29 -5.88,2.22 -5.88,2.22 -5.88,2.22 -7.87,0.51 -9.86,-1.18 -10.76,-2.11 -11.67,-3.04 -12.74,-3.88 -13.81,-4.72 -14.73,-5.75 -15.65,-6.79 -16.32,-8.30 -17.00,-9.80 -17.29,-10.83 -17.58,-11.86 -17.56,-12.93 -17.55,-13.99 -17.49,-15.62 -17.42,-17.25 -17.12,-18.42 -16.82,-19.60 -16.53,-20.71 -16.24,-21.83 -15.76,-23.44 -15.27,-25.05 -14.59,-26.20 -13.91,-27.34 -13.11,-28.35 -12.30,-29.35 -11.27,-30.20 -10.23,-31.04 -9.00,-31.90 -7.76,-32.77 -6.52,-33.60 -5.29,-34.43 -3.91,-35.49 -2.54,-36.56 -0.62,-37.28 1.29,-38.00 2.75,-37.59 4.22,-37.19 5.26,-36.91 6.30,-36.64 7.80,-36.37 9.29,-36.09 11.79,-35.40 14.28,-34.71 15.61,-34.44 16.93,-34.18 18.06,-33.82 19.20,-33.46 20.58,-32.65 21.96,-31.84 22.72,-30.82 23.48,-29.80 24.36,-28.74 25.24,-27.67 25.90,-26.79 26.56,-25.90 27.08,-24.82 27.61,-23.73 28.66,-22.43 29.71,-21.12 30.77,-19.80 31.83,-18.48 32.56,-17.51 33.29,-16.53 34.72,-15.29 36.16,-14.05 37.07,-13.09 37.98,-12.13 38.86,-10.49 39.75,-8.85 40.09,-7.84 40.43,-6.83 40.39,-5.63 40.36,-4.43 39.78,-2.99 39.20,-1.54 38.79,-0.39 38.38,0.76 38.02,2.23 37.66,3.70 37.57,5.24 37.48,6.79 37.42,8.08 37.36,9.37 37.37,10.84 37.38,12.32 37.58,14.43 37.78,16.54 38.05,19.08 38.32,21.62 38.66,23.33 39.00,25.04 39.40,26.74 39.80,28.43 40.47,30.51 41.14,32.59 41.76,34.65 42.39,36.71 42.69,38.08 43.00,39.45 43.33,40.94 43.65,42.44 43.96,43.73 44.26,45.02 44.54,46.27 44.82,47.51 45.12,48.53 45.43,49.56 45.72,50.80 46.02,52.04 46.33,53.19 46.64,54.34 47.29,56.64 47.94,58.95 48.53,60.06 49.13,61.16 49.58,62.18 50.02,63.20 50.90,64.75 51.78,66.31 52.37,67.39 52.97,68.46 53.36,69.60 53.75,70.73 54.38,72.23 55.01,73.73 55.73,75.51 56.45,77.29 56.68,78.68 56.91,80.06 57.05,81.68 57.19,83.30 56.79,85.83 56.39,88.35 56.09,89.52 55.79,90.70 55.28,91.80 54.76,92.91 53.78,94.00 52.80,95.10 51.99,95.87 51.18,96.65 50.15,97.78 49.12,98.92 47.95,100.54 46.78,102.16 45.78,103.56 44.78,104.97 43.35,107.08 41.92,109.20 40.42,110.84 38.91,112.47 37.89,113.53 36.87,114.58 35.62,115.28 34.37,115.98 32.62,115.75 30.88,115.52 29.52,115.34 28.17,115.15 26.71,114.80 25.25,114.45 23.25,113.94 21.26,113.43 18.36,112.86 15.47,112.28 14.13,111.83 12.80,111.38 10.91,110.93 9.03,110.47 7.42,110.60 5.81,110.74 4.86,111.98 3.91,113.22 2.85,114.11 1.78,115.00 0.78,115.68 -0.22,116.36 -1.44,117.25 -2.66,118.13 -3.99,119.00 -5.31,119.86 -6.56,120.50 -7.80,121.13 -9.20,121.84 -10.59,122.55 -11.97,123.11 -13.35,123.67 -15.26,124.22 -17.17,124.78 -18.48,125.06 -19.79,125.33 -21.21,125.59 -22.64,125.85 -24.06,126.00 -25.49,126.16 -26.84,126.12 -28.20,126.07 -29.32,125.94 -30.44,125.81 -31.78,125.55 -33.12,125.29 -34.69,124.88 -36.25,124.48 -38.79,123.62 -41.32,122.77 -42.85,122.07 -44.38,121.38 -45.86,120.53 -47.33,119.67 -48.41,118.96 -49.50,118.25 -50.74,116.80 -51.99,115.34 -52.90,113.59 -53.82,111.83 -54.64,109.74 -55.46,107.66 -55.71,106.40 -55.96,105.15 -56.14,103.78 -56.32,102.41 -56.30,101.26 -56.28,100.10 -56.15,98.22 -56.02,96.35 -55.55,95.10 -55.09,93.84 -54.42,92.56 -53.74,91.27 -53.13,90.31 -52.52,89.35 -51.00,88.11 -49.49,86.88 -48.32,86.20 -47.16,85.53 -45.43,84.64 -43.69,83.74 -41.43,82.82 -39.16,81.89 -36.64,80.97 -34.12,80.04 -31.40,79.11 -28.67,78.19 -25.93,77.31 -23.19,76.43 -20.23,75.25 -17.28,74.07 -16.05,73.56 -14.82,73.04 -13.18,72.07 -11.54,71.09 -10.21,69.95 -8.87,68.80 -8.49,67.54 -8.10,66.28 -7.68,64.67 -7.26,63.07 -6.83,60.99 -6.40,58.91 -6.29,57.40 -6.18,55.89 -6.10,53.92 -6.02,51.96 -5.89,49.43 -5.77,46.90 -5.71,45.20 -5.65,43.51 -5.69,41.11 -5.73,38.71 -5.77,36.25 -5.82,33.78 -5.76,31.97 -5.69,30.16 -5.58,28.28 -5.46,26.41 -5.24,24.57 -5.02,22.72 -4.93,20.55 -4.84,18.38 -4.51,16.73 -4.18,15.08 -3.90,13.13 -3.63,11.19 -3.40,8.91 -3.17,6.63 -2.83,5.01 -2.49,3.39 -2.17,1.52 -1.85,-0.33 -1.78,-0.55 -1.72,-0.77 -1.60,-0.96 -1.48,-1.16 -1.32,-1.32 -1.16,-1.48 -0.97,-1.60 -0.77,-1.71 -0.55,-1.78 -0.34,-1.85 -0.11,-1.86 0.11,-1.88 0.33,-1.84 0.55,-1.80 0.76,-1.70 0.97,-1.61 1.15,-1.47 1.33,-1.33 1.47,-1.15 1.61,-0.97 1.70,-0.77 1.80,-0.56 1.84,-0.33 1.88,-0.11 1.86,0.11 1.85,0.33 1.85,0.33 L 1.85,0.33 Z"/></g><g transform="translate(369.75274878612106 26.378560916060508) rotate(0 74.11764705882354 30.588235294117652)" stroke="none"><path fill="#1e1e1e" d="M 1.45,-0.64 Q 1.45,-0.64 2.18,0.85 2.91,2.34 3.96,4.30 5.01,6.25 6.46,8.80 7.92,11.35 9.37,13.79 10.82,16.22 13.08,19.24 15.34,22.25 19.12,25.85 22.89,29.44 29.00,33.47 35.10,37.50 40.06,40.23 45.01,42.97 57.84,47.14 70.68,51.31 82.87,53.76 95.06,56.21 104.60,57.09 114.14,57.96 121.35,57.66 128.56,57.35 133.12,56.73 137.68,56.10 141.82,54.89 145.96,53.67 146.22,53.65 146.47,53.63 146.71,53.69 146.96,53.74 147.18,53.88 147.39,54.01 147.55,54.21 147.71,54.40 147.80,54.64 147.89,54.88 147.90,55.13 147.91,55.38 147.84,55.63 147.77,55.87 147.62,56.08 147.48,56.28 147.27,56.43 147.07,56.58 146.83,56.66 146.59,56.74 146.33,56.73 146.08,56.73 145.84,56.65 145.60,56.56 145.40,56.40 145.20,56.25 145.07,56.04 144.93,55.82 144.86,55.58 144.80,55.33 144.82,55.08 144.83,54.83 144.93,54.60 145.03,54.36 145.20,54.17 145.36,53.98 145.58,53.85 145.80,53.73 146.05,53.68 146.30,53.63 146.55,53.66 146.80,53.69 147.03,53.80 147.26,53.91 147.44,54.08 147.62,54.26 147.73,54.49 147.85,54.71 147.89,54.96 147.92,55.21 147.88,55.46 147.83,55.71 147.71,55.93 147.59,56.16 147.40,56.33 147.22,56.50 146.98,56.60 146.75,56.70 146.75,56.70 146.75,56.70 142.40,57.71 138.05,58.71 133.36,59.36 128.67,60.00 121.29,60.30 113.90,60.61 104.22,59.72 94.54,58.83 82.19,56.35 69.85,53.87 56.78,49.61 43.71,45.35 38.65,42.57 33.59,39.79 27.29,35.63 20.98,31.47 17.03,27.72 13.08,23.98 10.70,20.86 8.32,17.75 6.81,15.32 5.29,12.89 3.76,10.36 2.22,7.83 1.00,5.78 -0.20,3.73 -0.83,2.19 -1.45,0.64 -1.51,0.46 -1.57,0.28 -1.58,0.08 -1.59,-0.10 -1.55,-0.29 -1.52,-0.48 -1.44,-0.65 -1.36,-0.83 -1.24,-0.98 -1.12,-1.13 -0.97,-1.25 -0.81,-1.37 -0.64,-1.44 -0.46,-1.52 -0.27,-1.56 -0.08,-1.59 0.10,-1.58 0.29,-1.56 0.47,-1.51 0.66,-1.45 0.82,-1.35 0.99,-1.25 1.12,-1.11 1.26,-0.97 1.36,-0.81 1.45,-0.64 1.45,-0.64 L 1.45,-0.64 Z"/></g><g transform="translate(330.34098408023874 107.55503150429581) rotate(0 119.41176470588232 2.35294117647058)" stroke="none"><path fill="#1e1e1e" d="M 0.42,1.70 Q 0.42,1.70 -0.89,2.10 -2.22,2.51 -2.45,2.70 -2.69,2.89 -2.93,2.92 -3.17,2.95 -3.41,2.92 -3.64,2.89 -3.87,2.81 -4.09,2.73 -4.29,2.59 -4.49,2.45 -4.65,2.28 -4.81,2.10 -4.92,1.88 -5.03,1.67 -5.09,1.44 -5.15,1.21 -5.15,0.97 -5.15,0.73 -5.10,0.49 -5.04,0.26 -4.93,0.05 -4.82,-0.16 -4.66,-0.34 -4.50,-0.52 -4.30,-0.65 -4.11,-0.79 -3.88,-0.88 -3.66,-0.96 -2.25,-0.77 -0.84,-0.58 1.80,-0.06 4.45,0.44 10.60,0.86 16.74,1.28 26.31,1.66 35.88,2.03 48.89,2.21 61.91,2.38 76.59,2.64 91.27,2.90 113.90,3.01 136.53,3.13 156.64,3.19 176.74,3.24 191.03,3.10 205.32,2.96 215.11,2.74 224.89,2.51 230.07,2.42 235.26,2.33 237.63,2.29 240.00,2.25 240.83,2.11 241.67,1.97 241.86,1.99 242.05,2.01 242.23,2.07 242.41,2.14 242.57,2.24 242.72,2.35 242.85,2.49 242.98,2.63 243.07,2.80 243.17,2.96 243.21,3.15 243.26,3.33 243.27,3.52 243.27,3.71 243.23,3.90 243.19,4.09 243.10,4.26 243.01,4.43 242.89,4.57 242.77,4.72 242.61,4.83 242.46,4.94 242.28,5.01 242.10,5.08 241.91,5.11 241.73,5.13 240.29,5.27 238.85,5.41 236.74,5.31 234.62,5.21 229.93,4.11 225.24,3.00 223.29,2.56 221.35,2.12 221.13,2.03 220.90,1.94 220.72,1.78 220.54,1.62 220.41,1.41 220.29,1.20 220.24,0.96 220.19,0.72 220.22,0.48 220.25,0.24 220.35,0.02 220.46,-0.19 220.63,-0.36 220.79,-0.53 221.01,-0.64 221.22,-0.76 221.46,-0.79 221.70,-0.83 221.94,-0.79 222.18,-0.75 222.40,-0.63 222.61,-0.51 222.77,-0.34 222.94,-0.16 223.04,0.05 223.14,0.27 223.16,0.52 223.18,0.76 223.13,0.99 223.07,1.23 222.95,1.44 222.82,1.64 222.63,1.80 222.45,1.95 222.22,2.04 221.99,2.13 221.75,2.14 221.51,2.15 221.28,2.08 221.04,2.01 220.84,1.87 220.65,1.74 220.50,1.54 220.36,1.35 220.28,1.12 220.21,0.89 220.21,0.64 220.21,0.40 220.29,0.17 220.37,-0.05 220.52,-0.24 220.67,-0.43 220.87,-0.56 221.07,-0.70 221.31,-0.76 221.54,-0.82 221.78,-0.81 222.03,-0.79 222.03,-0.79 222.03,-0.79 223.97,-0.33 225.90,0.11 230.35,1.12 234.79,2.13 236.66,2.23 238.53,2.34 240.10,2.15 241.67,1.97 241.86,1.99 242.05,2.01 242.23,2.07 242.41,2.14 242.57,2.24 242.72,2.35 242.85,2.49 242.98,2.63 243.07,2.80 243.17,2.96 243.21,3.15 243.26,3.33 243.27,3.52 243.27,3.71 243.23,3.90 243.19,4.09 243.10,4.26 243.01,4.43 242.89,4.57 242.77,4.72 242.61,4.83 242.46,4.94 242.28,5.01 242.10,5.08 241.91,5.11 241.73,5.13 240.89,5.03 240.04,4.92 237.68,4.97 235.31,5.02 230.13,5.12 224.96,5.23 215.15,5.47 205.35,5.71 191.04,5.87 176.74,6.04 156.63,6.01 136.52,5.99 113.87,5.91 91.22,5.84 76.55,5.64 61.88,5.44 48.82,5.35 35.77,5.25 26.16,4.98 16.55,4.72 10.21,4.43 3.86,4.14 0.58,3.52 -2.69,2.89 -2.93,2.92 -3.17,2.95 -3.41,2.92 -3.64,2.89 -3.87,2.81 -4.09,2.73 -4.29,2.59 -4.49,2.45 -4.65,2.28 -4.81,2.10 -4.92,1.88 -5.03,1.67 -5.09,1.44 -5.15,1.21 -5.15,0.97 -5.15,0.73 -5.10,0.49 -5.04,0.26 -4.93,0.05 -4.82,-0.16 -4.66,-0.34 -4.50,-0.52 -4.30,-0.65 -4.11,-0.79 -3.88,-0.88 -3.66,-0.96 -3.42,-1.06 -3.19,-1.15 -1.80,-1.43 -0.42,-1.70 -0.21,-1.72 -0.00,-1.75 0.20,-1.72 0.41,-1.70 0.61,-1.63 0.81,-1.55 0.98,-1.43 1.15,-1.31 1.29,-1.15 1.44,-1.00 1.53,-0.81 1.63,-0.62 1.68,-0.42 1.74,-0.21 1.74,-0.00 1.74,0.20 1.69,0.41 1.64,0.61 1.54,0.80 1.44,0.99 1.30,1.15 1.16,1.30 0.99,1.42 0.82,1.55 0.62,1.62 0.42,1.70 0.42,1.70 L 0.42,1.70 Z"/></g></svg>