<svg version="1.1" xmlns="http://www.w3.org/2000/svg" viewBox="0 0 241.1666717529297 218" width="241.1666717529297" height="218">
  <!-- svg-source:excalidraw -->
  
  <defs>
    <style class="style-fonts">
      @font-face {
        font-family: "Virgil";
        src: url("https://excalidraw.com/Virgil.woff2");
      }
      @font-face {
        font-family: "Cascadia";
        src: url("https://excalidraw.com/Cascadia.woff2");
      }
    </style>
    
  </defs>
  <rect x="0" y="0" width="241.1666717529297" height="218" fill="#ffffff"/><g transform="translate(96.50001525878906 70.43750762939453) rotate(0 67.33332824707031 62.666656494140625)" stroke="none"><path fill="#1e1e1e" d="M 1.05,-1.15 Q 1.05,-1.15 3.13,0.78 5.22,2.72 6.90,4.55 8.59,6.39 10.04,7.91 11.50,9.43 13.45,11.42 15.40,13.41 17.97,16.20 20.54,18.98 23.52,21.86 26.49,24.74 29.14,27.74 31.79,30.73 35.56,34.45 39.32,38.17 43.44,42.46 47.55,46.75 52.14,51.04 56.74,55.32 61.56,59.64 66.39,63.95 70.96,68.50 75.54,73.04 79.58,77.07 83.62,81.11 88.17,84.89 92.71,88.67 96.97,92.21 101.22,95.75 105.53,99.57 109.85,103.39 113.38,106.33 116.92,109.28 120.16,112.08 123.41,114.87 126.12,117.21 128.84,119.55 131.60,121.37 134.37,123.19 134.55,123.37 134.73,123.54 134.84,123.77 134.96,124.00 134.99,124.25 135.03,124.50 134.98,124.75 134.93,125.00 134.81,125.23 134.68,125.45 134.49,125.62 134.30,125.79 134.07,125.89 133.84,125.99 133.58,126.01 133.33,126.03 133.08,125.97 132.84,125.91 132.62,125.77 132.41,125.64 132.25,125.44 132.09,125.24 132.00,125.00 131.91,124.76 131.90,124.51 131.90,124.25 131.97,124.01 132.05,123.77 132.19,123.56 132.34,123.35 132.55,123.20 132.75,123.06 133.00,122.98 133.24,122.91 133.49,122.91 133.75,122.92 133.99,123.01 134.23,123.09 134.43,123.25 134.62,123.41 134.76,123.63 134.90,123.84 134.96,124.09 135.02,124.33 135.00,124.59 134.98,124.84 134.88,125.08 134.78,125.31 134.61,125.50 134.44,125.69 134.22,125.81 134.00,125.94 133.75,125.99 133.50,126.04 133.25,126.00 132.99,125.97 132.77,125.85 132.54,125.74 132.54,125.74 132.54,125.74 129.83,123.64 127.12,121.54 124.41,119.20 121.69,116.86 118.46,114.08 115.24,111.30 111.67,108.33 108.10,105.36 103.82,101.56 99.53,97.77 95.28,94.23 91.03,90.69 86.39,86.83 81.76,82.97 77.72,78.94 73.68,74.91 69.15,70.42 64.63,65.92 59.78,61.59 54.93,57.26 50.28,52.93 45.64,48.59 41.54,44.33 37.45,40.07 33.62,36.29 29.79,32.51 27.20,29.60 24.61,26.68 21.58,23.76 18.54,20.84 15.99,18.10 13.43,15.36 11.45,13.38 9.47,11.40 7.98,9.88 6.48,8.36 4.84,6.65 3.21,4.93 1.07,3.04 -1.05,1.15 -1.17,1.01 -1.29,0.87 -1.38,0.70 -1.46,0.53 -1.51,0.35 -1.55,0.16 -1.55,-0.01 -1.54,-0.20 -1.50,-0.39 -1.45,-0.57 -1.36,-0.73 -1.27,-0.90 -1.14,-1.04 -1.02,-1.18 -0.86,-1.28 -0.70,-1.39 -0.53,-1.45 -0.35,-1.52 -0.16,-1.54 0.02,-1.56 0.20,-1.53 0.39,-1.51 0.56,-1.44 0.74,-1.37 0.89,-1.26 1.05,-1.15 1.05,-1.15 L 1.05,-1.15 Z"/></g><g transform="translate(192 15.333328247070312) rotate(0 -91 96.33333587646484)" stroke="none"><path fill="#1e1e1e" d="M 1.99,0.22 Q 1.99,0.22 1.97,1.09 1.95,1.96 1.88,3.27 1.81,4.59 1.11,6.43 0.41,8.27 -0.27,9.93 -0.95,11.60 -1.77,13.32 -2.60,15.05 -3.31,16.62 -4.03,18.19 -5.34,20.17 -6.65,22.15 -7.98,24.17 -9.31,26.19 -10.67,28.28 -12.02,30.38 -13.36,32.67 -14.70,34.96 -16.06,37.28 -17.41,39.61 -19.94,43.32 -22.47,47.03 -24.50,50.02 -26.52,53.01 -28.25,55.53 -29.98,58.04 -31.51,60.01 -33.04,61.97 -34.65,63.95 -36.26,65.93 -37.80,67.82 -39.35,69.71 -41.17,71.78 -43.00,73.84 -44.62,75.76 -46.24,77.67 -48.20,79.76 -50.17,81.85 -52.14,83.97 -54.11,86.09 -55.99,88.22 -57.87,90.36 -59.83,92.61 -61.78,94.86 -63.66,97.06 -65.54,99.26 -67.52,101.28 -69.50,103.31 -71.37,105.38 -73.23,107.45 -76.36,110.57 -79.48,113.69 -82.17,116.08 -84.86,118.47 -87.23,120.63 -89.60,122.78 -92.09,124.69 -94.58,126.60 -97.24,128.73 -99.89,130.86 -102.48,132.83 -105.06,134.80 -109.49,138.41 -113.93,142.01 -118.01,145.45 -122.10,148.90 -125.93,152.36 -129.76,155.83 -132.92,158.74 -136.09,161.65 -139.37,164.44 -142.65,167.23 -145.75,170.03 -148.85,172.82 -152.88,176.05 -156.92,179.28 -161.34,182.39 -165.76,185.50 -168.71,187.32 -171.66,189.13 -173.81,190.21 -175.97,191.29 -178.47,192.54 -180.97,193.80 -181.19,193.85 -181.42,193.91 -181.66,193.89 -181.89,193.87 -182.11,193.78 -182.32,193.69 -182.50,193.53 -182.67,193.38 -182.79,193.17 -182.90,192.97 -182.95,192.74 -182.99,192.51 -182.96,192.28 -182.93,192.04 -182.83,191.83 -182.72,191.62 -182.56,191.46 -182.39,191.29 -182.18,191.18 -181.97,191.08 -181.74,191.05 -181.51,191.02 -181.28,191.06 -181.05,191.10 -180.84,191.22 -180.64,191.33 -180.48,191.51 -180.32,191.68 -180.23,191.90 -180.14,192.11 -180.12,192.35 -180.10,192.58 -180.15,192.81 -180.21,193.04 -180.33,193.23 -180.46,193.43 -180.64,193.58 -180.83,193.73 -181.05,193.81 -181.27,193.89 -181.50,193.90 -181.74,193.90 -181.96,193.84 -182.18,193.77 -182.38,193.63 -182.57,193.49 -182.70,193.30 -182.84,193.11 -182.91,192.89 -182.98,192.66 -182.97,192.43 -182.97,192.20 -182.89,191.97 -182.81,191.75 -182.66,191.57 -182.51,191.39 -182.32,191.26 -182.12,191.13 -182.12,191.13 -182.12,191.13 -179.63,190.04 -177.14,188.94 -175.09,187.92 -173.03,186.89 -170.15,185.13 -167.27,183.36 -162.91,180.29 -158.56,177.23 -154.58,174.05 -150.61,170.87 -147.48,168.05 -144.35,165.23 -141.11,162.47 -137.87,159.72 -134.69,156.80 -131.52,153.88 -127.65,150.38 -123.79,146.89 -119.69,143.43 -115.58,139.97 -111.12,136.34 -106.66,132.72 -104.10,130.76 -101.54,128.81 -98.86,126.66 -96.18,124.51 -93.77,122.67 -91.37,120.83 -88.98,118.67 -86.60,116.51 -83.97,114.17 -81.34,111.83 -78.26,108.76 -75.19,105.69 -73.29,103.58 -71.38,101.46 -69.46,99.51 -67.54,97.55 -65.65,95.34 -63.77,93.13 -61.81,90.87 -59.85,88.61 -57.95,86.45 -56.04,84.29 -54.07,82.16 -52.09,80.04 -50.18,78.00 -48.27,75.96 -46.63,74.02 -44.99,72.09 -43.21,70.05 -41.42,68.02 -39.89,66.13 -38.35,64.23 -36.77,62.27 -35.19,60.30 -33.73,58.40 -32.26,56.49 -30.55,53.97 -28.85,51.45 -26.85,48.44 -24.85,45.43 -22.42,41.79 -19.98,38.14 -18.68,35.80 -17.39,33.45 -16.09,31.06 -14.79,28.68 -13.54,26.52 -12.28,24.37 -11.09,22.28 -9.90,20.18 -8.89,18.32 -7.88,16.47 -7.20,14.89 -6.51,13.30 -5.83,11.66 -5.15,10.02 -4.56,8.28 -3.97,6.54 -3.47,5.33 -2.98,4.11 -2.66,2.80 -2.34,1.48 -2.16,0.63 -1.99,-0.22 -1.93,-0.45 -1.88,-0.69 -1.77,-0.90 -1.66,-1.12 -1.50,-1.30 -1.34,-1.48 -1.14,-1.62 -0.94,-1.76 -0.72,-1.85 -0.49,-1.94 -0.26,-1.97 -0.02,-2.00 0.21,-1.97 0.46,-1.95 0.68,-1.86 0.91,-1.78 1.11,-1.64 1.31,-1.51 1.47,-1.33 1.63,-1.15 1.75,-0.94 1.86,-0.73 1.92,-0.49 1.98,-0.26 1.99,-0.02 1.99,0.22 1.99,0.22 L 1.99,0.22 Z"/></g><g transform="translate(81.66668701171875 38.666656494140625) rotate(0 66.83334350585938 -14.333328247070312)" stroke="none"><path fill="#1e1e1e" d="M -1.06,-1.44 Q -1.06,-1.44 0.79,-2.73 2.65,-4.02 4.11,-5.03 5.57,-6.04 6.51,-6.99 7.46,-7.94 8.48,-8.71 9.49,-9.48 10.96,-10.41 12.42,-11.33 14.34,-12.42 16.27,-13.51 18.67,-14.73 21.08,-15.96 23.96,-17.24 26.84,-18.52 30.37,-20.00 33.89,-21.49 37.84,-22.80 41.79,-24.10 45.21,-25.04 48.63,-25.97 52.62,-26.66 56.62,-27.35 60.33,-27.83 64.04,-28.30 67.54,-28.70 71.03,-29.09 74.64,-29.35 78.26,-29.61 81.54,-29.72 84.81,-29.83 88.31,-29.87 91.82,-29.92 94.84,-29.94 97.86,-29.96 101.06,-29.96 104.26,-29.97 107.35,-29.97 110.43,-29.98 112.90,-29.98 115.36,-29.98 117.74,-29.98 120.13,-29.98 123.45,-29.98 126.76,-29.98 128.50,-29.96 130.24,-29.95 131.89,-29.77 133.54,-29.59 133.79,-29.52 134.03,-29.45 134.24,-29.30 134.45,-29.16 134.60,-28.95 134.75,-28.75 134.83,-28.51 134.91,-28.27 134.90,-28.01 134.90,-27.76 134.82,-27.52 134.73,-27.28 134.58,-27.08 134.42,-26.88 134.21,-26.74 134.00,-26.60 133.76,-26.54 133.51,-26.47 133.26,-26.49 133.00,-26.50 132.77,-26.60 132.53,-26.70 132.34,-26.86 132.15,-27.03 132.02,-27.25 131.89,-27.47 131.84,-27.72 131.79,-27.96 131.82,-28.22 131.85,-28.47 131.96,-28.70 132.07,-28.93 132.25,-29.11 132.42,-29.29 132.65,-29.41 132.87,-29.52 133.12,-29.56 133.38,-29.60 133.63,-29.56 133.88,-29.51 134.10,-29.39 134.32,-29.27 134.49,-29.08 134.67,-28.90 134.77,-28.67 134.87,-28.43 134.90,-28.18 134.92,-27.93 134.86,-27.68 134.81,-27.43 134.67,-27.22 134.54,-27.00 134.35,-26.84 134.15,-26.68 133.91,-26.59 133.68,-26.50 133.42,-26.49 133.17,-26.47 133.17,-26.47 133.17,-26.47 131.62,-26.73 130.07,-26.99 128.42,-27.17 126.76,-27.35 123.45,-27.34 120.13,-27.34 117.75,-27.34 115.36,-27.34 112.90,-27.34 110.44,-27.34 107.35,-27.33 104.27,-27.33 101.07,-27.32 97.88,-27.31 94.87,-27.28 91.85,-27.26 88.38,-27.21 84.90,-27.16 81.68,-27.05 78.46,-26.93 74.90,-26.66 71.34,-26.40 67.87,-25.99 64.40,-25.59 60.75,-25.10 57.10,-24.61 53.24,-23.92 49.39,-23.23 46.06,-22.29 42.73,-21.34 38.91,-20.02 35.10,-18.70 31.64,-17.16 28.18,-15.62 25.44,-14.30 22.70,-12.97 20.46,-11.68 18.21,-10.38 16.41,-9.15 14.60,-7.91 12.28,-6.53 9.96,-5.15 8.72,-4.14 7.49,-3.13 6.06,-2.24 4.62,-1.34 2.84,0.05 1.06,1.44 0.87,1.55 0.68,1.65 0.47,1.71 0.27,1.77 0.05,1.78 -0.16,1.78 -0.37,1.74 -0.58,1.69 -0.77,1.60 -0.97,1.50 -1.14,1.36 -1.30,1.23 -1.43,1.05 -1.56,0.88 -1.64,0.68 -1.72,0.48 -1.76,0.26 -1.79,0.05 -1.77,-0.16 -1.75,-0.37 -1.68,-0.58 -1.61,-0.78 -1.49,-0.96 -1.37,-1.14 -1.22,-1.29 -1.06,-1.44 -1.06,-1.44 L -1.06,-1.44 Z"/></g><g transform="translate(82.33334350585938 51.33332824707031) rotate(0 71.50001525878906 -9)" stroke="none"><path fill="#1e1e1e" d="M -0.69,-1.50 Q -0.69,-1.50 0.51,-2.16 1.72,-2.81 3.10,-3.48 4.48,-4.16 6.56,-4.94 8.65,-5.72 10.85,-6.67 13.04,-7.63 16.11,-8.54 19.17,-9.46 22.96,-10.40 26.75,-11.34 31.35,-12.31 35.95,-13.28 40.97,-14.26 45.99,-15.24 51.12,-16.04 56.24,-16.83 61.32,-17.36 66.40,-17.89 71.34,-18.31 76.27,-18.72 81.18,-18.89 86.08,-19.07 90.08,-19.14 94.08,-19.21 98.08,-19.24 102.08,-19.27 106.18,-19.29 110.27,-19.30 113.55,-19.30 116.82,-19.31 119.75,-19.31 122.67,-19.31 125.64,-19.31 128.61,-19.31 131.02,-19.31 133.43,-19.31 135.41,-19.34 137.40,-19.38 140.07,-19.41 142.75,-19.45 142.98,-19.41 143.21,-19.37 143.42,-19.26 143.63,-19.15 143.79,-18.98 143.95,-18.81 144.05,-18.60 144.15,-18.38 144.17,-18.15 144.20,-17.92 144.15,-17.69 144.10,-17.46 143.98,-17.26 143.86,-17.05 143.68,-16.90 143.50,-16.75 143.28,-16.66 143.06,-16.57 142.83,-16.56 142.59,-16.55 142.36,-16.61 142.14,-16.68 141.94,-16.81 141.75,-16.94 141.61,-17.13 141.46,-17.31 141.39,-17.54 141.31,-17.76 141.31,-18.00 141.31,-18.23 141.39,-18.45 141.46,-18.68 141.61,-18.86 141.75,-19.05 141.94,-19.18 142.14,-19.31 142.36,-19.38 142.59,-19.44 142.83,-19.43 143.06,-19.42 143.28,-19.33 143.50,-19.24 143.68,-19.09 143.86,-18.94 143.98,-18.73 144.10,-18.53 144.15,-18.30 144.20,-18.07 144.17,-17.84 144.15,-17.61 144.05,-17.39 143.95,-17.18 143.79,-17.01 143.63,-16.84 143.42,-16.73 143.21,-16.62 142.98,-16.58 142.75,-16.54 142.75,-16.54 142.75,-16.54 140.07,-16.58 137.40,-16.61 135.41,-16.65 133.43,-16.68 131.02,-16.68 128.61,-16.68 125.64,-16.67 122.67,-16.67 119.75,-16.67 116.83,-16.67 113.55,-16.66 110.28,-16.65 106.19,-16.64 102.10,-16.62 98.11,-16.59 94.13,-16.55 90.15,-16.47 86.18,-16.39 81.34,-16.21 76.50,-16.03 71.59,-15.61 66.69,-15.18 61.68,-14.65 56.67,-14.11 51.60,-13.29 46.54,-12.48 41.54,-11.47 36.55,-10.46 32.03,-9.46 27.50,-8.46 23.80,-7.48 20.10,-6.49 17.26,-5.57 14.43,-4.65 12.22,-3.55 10.01,-2.45 8.04,-1.55 6.06,-0.64 4.66,-0.06 3.25,0.51 1.97,1.01 0.69,1.50 0.50,1.56 0.31,1.63 0.11,1.64 -0.08,1.65 -0.28,1.62 -0.47,1.59 -0.66,1.51 -0.84,1.42 -1.00,1.30 -1.16,1.18 -1.28,1.02 -1.41,0.87 -1.49,0.69 -1.58,0.50 -1.61,0.31 -1.65,0.11 -1.64,-0.08 -1.63,-0.28 -1.57,-0.47 -1.52,-0.66 -1.41,-0.83 -1.31,-1.01 -1.17,-1.15 -1.03,-1.29 -0.86,-1.40 -0.69,-1.50 -0.69,-1.50 L -0.69,-1.50 Z"/></g></svg>