<svg version="1.1" xmlns="http://www.w3.org/2000/svg" viewBox="0 0 300 246.10417938232422" width="300" height="246.10417938232422">
  <!-- svg-source:excalidraw -->
  
  <defs>
    <style class="style-fonts">
      @font-face {
        font-family: "Virgil";
        src: url("https://excalidraw.com/Virgil.woff2");
      }
      @font-face {
        font-family: "Cascadia";
        src: url("https://excalidraw.com/Cascadia.woff2");
      }
    </style>
    
  </defs>
  <rect x="0" y="0" width="300" height="246.10417938232422" fill="#ffffff"/><g transform="translate(10 54.770835876464844) rotate(0 140 90.66667175292969)" stroke="none"><path fill="#1e1e1e" d="M 1.04,-1.30 Q 1.04,-1.30 2.05,-0.60 3.07,0.08 4.48,1.42 5.90,2.76 7.75,4.49 9.61,6.22 11.11,7.27 12.62,8.32 14.84,10.21 17.07,12.09 20.07,14.41 23.07,16.72 26.49,19.66 29.91,22.61 34.55,25.92 39.19,29.24 45.05,33.95 50.91,38.66 58.35,44.29 65.79,49.91 75.27,56.91 84.76,63.90 102.21,76.65 119.65,89.40 133.37,98.64 147.09,107.88 157.54,115.08 167.98,122.27 177.00,128.00 186.01,133.73 194.44,138.84 202.87,143.96 209.32,147.66 215.77,151.37 221.56,154.47 227.36,157.57 232.68,160.22 238.01,162.88 243.13,165.15 248.25,167.42 252.73,169.34 257.21,171.27 260.85,172.86 264.49,174.45 267.37,175.69 270.25,176.94 272.56,177.64 274.87,178.34 277.40,179.11 279.94,179.89 280.16,179.96 280.37,180.04 280.55,180.18 280.73,180.32 280.85,180.51 280.98,180.71 281.03,180.93 281.09,181.15 281.07,181.37 281.06,181.60 280.97,181.81 280.88,182.02 280.73,182.19 280.58,182.36 280.38,182.48 280.18,182.59 279.96,182.63 279.74,182.68 279.51,182.65 279.28,182.62 279.08,182.52 278.87,182.42 278.71,182.26 278.55,182.10 278.45,181.90 278.34,181.70 278.31,181.47 278.28,181.24 278.32,181.02 278.36,180.80 278.47,180.60 278.58,180.40 278.75,180.24 278.92,180.09 279.13,180.00 279.34,179.91 279.56,179.89 279.79,179.87 280.01,179.92 280.23,179.97 280.43,180.10 280.62,180.22 280.76,180.39 280.91,180.57 280.99,180.78 281.07,181.00 281.08,181.22 281.08,181.45 281.02,181.67 280.95,181.89 280.82,182.07 280.69,182.26 280.51,182.39 280.32,182.53 280.10,182.60 279.89,182.66 279.66,182.66 279.43,182.66 279.43,182.66 279.43,182.66 276.77,181.75 274.10,180.85 271.65,180.10 269.21,179.35 266.32,178.10 263.43,176.85 259.80,175.27 256.18,173.69 251.68,171.76 247.19,169.82 242.01,167.53 236.84,165.24 231.48,162.56 226.11,159.89 220.28,156.77 214.45,153.65 207.98,149.94 201.50,146.22 193.05,141.09 184.59,135.96 175.53,130.21 166.47,124.46 156.04,117.28 145.60,110.09 131.84,100.83 118.07,91.57 100.61,78.82 83.15,66.08 73.65,59.09 64.14,52.10 56.66,46.46 49.17,40.83 43.36,36.19 37.55,31.55 32.79,28.19 28.02,24.82 24.64,21.98 21.25,19.13 18.16,16.83 15.06,14.54 12.88,12.81 10.69,11.08 9.03,9.92 7.37,8.76 5.38,7.09 3.39,5.43 2.07,4.20 0.75,2.98 -0.14,2.14 -1.04,1.30 -1.18,1.15 -1.32,1.01 -1.42,0.84 -1.52,0.66 -1.58,0.47 -1.64,0.28 -1.65,0.08 -1.66,-0.11 -1.62,-0.31 -1.58,-0.51 -1.50,-0.69 -1.41,-0.87 -1.29,-1.03 -1.16,-1.19 -1.00,-1.31 -0.84,-1.43 -0.66,-1.51 -0.47,-1.59 -0.28,-1.62 -0.08,-1.66 0.11,-1.64 0.31,-1.63 0.50,-1.57 0.69,-1.51 0.87,-1.40 1.04,-1.30 1.04,-1.30 L 1.04,-1.30 Z"/></g><g transform="translate(229.83334350585938 10) rotate(0 -92.33334350585938 88)" stroke="none"><path fill="#1e1e1e" d="M 1.55,0.41 Q 1.55,0.41 1.24,1.87 0.93,3.33 -0.16,6.19 -1.27,9.06 -3.40,13.74 -5.52,18.42 -9.34,25.24 -13.15,32.05 -16.70,37.72 -20.25,43.40 -23.89,48.33 -27.54,53.26 -31.40,57.95 -35.27,62.64 -38.74,66.46 -42.22,70.29 -45.93,73.85 -49.63,77.41 -53.31,80.92 -56.98,84.43 -63.55,90.07 -70.12,95.71 -75.42,99.93 -80.71,104.15 -85.05,107.66 -89.40,111.16 -92.69,113.81 -95.98,116.45 -99.01,118.82 -102.04,121.20 -104.76,123.35 -107.48,125.51 -109.87,127.56 -112.25,129.60 -114.94,131.57 -117.64,133.53 -120.40,135.51 -123.16,137.48 -125.56,139.27 -127.97,141.06 -130.43,142.97 -132.88,144.87 -135.58,146.76 -138.29,148.65 -140.66,150.39 -143.03,152.13 -145.31,153.66 -147.59,155.19 -149.42,156.40 -151.24,157.62 -152.86,158.74 -154.47,159.87 -155.81,160.80 -157.15,161.73 -158.78,162.77 -160.40,163.81 -161.71,164.77 -163.03,165.72 -164.48,166.65 -165.94,167.57 -168.70,169.14 -171.46,170.70 -172.70,171.47 -173.94,172.24 -175.19,173.10 -176.44,173.96 -177.50,174.91 -178.56,175.87 -181.14,177.15 -183.72,178.43 -184.13,178.48 -184.55,178.54 -184.97,178.46 -185.38,178.38 -185.75,178.17 -186.11,177.96 -186.39,177.65 -186.67,177.33 -186.84,176.95 -187.00,176.56 -187.04,176.14 -187.07,175.72 -186.97,175.31 -186.86,174.90 -186.64,174.55 -186.41,174.19 -186.08,173.93 -185.75,173.67 -185.35,173.52 -184.96,173.38 -184.54,173.37 -184.12,173.36 -183.71,173.48 -183.31,173.61 -182.97,173.86 -182.63,174.10 -182.38,174.44 -182.14,174.79 -182.02,175.19 -181.89,175.59 -181.91,176.02 -181.92,176.44 -182.07,176.83 -182.21,177.23 -182.48,177.55 -182.74,177.88 -183.10,178.11 -183.45,178.33 -183.86,178.43 -184.27,178.53 -184.69,178.50 -185.11,178.46 -185.50,178.30 -185.88,178.13 -186.20,177.85 -186.51,177.56 -186.71,177.20 -186.92,176.83 -187.00,176.41 -187.08,176.00 -187.02,175.58 -186.96,175.17 -186.77,174.79 -186.58,174.41 -186.29,174.12 -185.99,173.82 -185.61,173.63 -185.23,173.45 -185.23,173.45 -185.23,173.45 -183.97,172.98 -182.70,172.52 -181.62,171.93 -180.54,171.34 -179.39,170.72 -178.23,170.09 -176.96,169.57 -175.68,169.05 -174.42,168.45 -173.15,167.85 -170.47,166.18 -167.78,164.51 -166.36,163.70 -164.93,162.89 -163.51,162.01 -162.09,161.13 -160.44,160.11 -158.80,159.08 -157.40,158.32 -156.01,157.56 -154.35,156.50 -152.70,155.44 -150.88,154.22 -149.05,153.00 -146.82,151.51 -144.58,150.01 -142.19,148.25 -139.79,146.49 -137.14,144.64 -134.49,142.80 -132.01,140.87 -129.54,138.95 -127.11,137.15 -124.69,135.34 -121.94,133.38 -119.18,131.41 -116.58,129.51 -113.97,127.61 -111.54,125.52 -109.12,123.44 -106.39,121.28 -103.67,119.12 -100.65,116.76 -97.63,114.39 -94.35,111.75 -91.06,109.11 -86.71,105.59 -82.36,102.07 -77.11,97.88 -71.86,93.68 -65.34,88.09 -58.83,82.50 -55.17,78.98 -51.51,75.47 -47.87,71.96 -44.24,68.46 -40.82,64.67 -37.40,60.89 -33.60,56.24 -29.80,51.59 -26.25,46.73 -22.69,41.88 -19.22,36.24 -15.75,30.60 -12.05,23.88 -8.36,17.16 -6.36,12.55 -4.36,7.94 -3.41,5.18 -2.47,2.41 -2.01,1.00 -1.55,-0.41 -1.48,-0.59 -1.40,-0.77 -1.29,-0.93 -1.18,-1.08 -1.03,-1.21 -0.88,-1.33 -0.71,-1.42 -0.54,-1.51 -0.35,-1.55 -0.16,-1.59 0.03,-1.59 0.22,-1.59 0.41,-1.54 0.59,-1.49 0.76,-1.39 0.93,-1.30 1.08,-1.17 1.22,-1.04 1.32,-0.88 1.43,-0.71 1.50,-0.53 1.56,-0.35 1.58,-0.16 1.60,0.03 1.57,0.22 1.55,0.41 1.55,0.41 L 1.55,0.41 Z"/></g></svg>