<svg version="1.1" xmlns="http://www.w3.org/2000/svg" viewBox="0 0 208.49998474121094 269.43749237060547" width="208.49998474121094" height="269.43749237060547">
  <!-- svg-source:excalidraw -->
  
  <defs>
    <style class="style-fonts">
      @font-face {
        font-family: "Virgil";
        src: url("https://excalidraw.com/Virgil.woff2");
      }
      @font-face {
        font-family: "Cascadia";
        src: url("https://excalidraw.com/Cascadia.woff2");
      }
    </style>
    
  </defs>
  <rect x="0" y="0" width="208.49998474121094" height="269.43749237060547" fill="#ffffff"/><g transform="translate(112.66665649414062 38.770835876464844) rotate(0 -51.33332824707031 110.33332824707031)" stroke="none"><path fill="#1e1e1e" d="M 1.59,0 Q 1.59,0 1.56,2.49 1.52,4.98 1.49,7.76 1.46,10.55 1.48,12.50 1.50,14.45 1.51,16.43 1.52,18.41 1.10,20.90 0.67,23.39 -0.08,27.29 -0.84,31.19 -1.74,35.90 -2.65,40.61 -3.61,45.31 -4.58,50.00 -5.76,55.64 -6.94,61.28 -8.01,67.10 -9.09,72.93 -10.52,78.53 -11.94,84.12 -13.12,88.96 -14.30,93.80 -15.37,98.54 -16.45,103.27 -17.88,108.02 -19.30,112.76 -20.48,117.23 -21.65,121.70 -23.90,127.14 -26.16,132.58 -28.64,138.13 -31.13,143.68 -33.73,148.93 -36.33,154.18 -39.35,159.69 -42.38,165.20 -45.61,170.06 -48.84,174.93 -52.15,179.13 -55.45,183.33 -58.60,186.85 -61.74,190.37 -64.42,193.21 -67.10,196.05 -69.98,198.81 -72.86,201.57 -75.85,203.92 -78.84,206.28 -81.84,208.43 -84.83,210.58 -87.68,212.28 -90.52,213.98 -92.03,215.09 -93.53,216.20 -94.67,217.26 -95.81,218.33 -96.72,219.10 -97.63,219.86 -99.71,221.17 -101.80,222.49 -102.12,222.55 -102.44,222.61 -102.76,222.57 -103.08,222.53 -103.37,222.38 -103.67,222.24 -103.90,222.01 -104.13,221.78 -104.27,221.49 -104.42,221.20 -104.46,220.88 -104.51,220.55 -104.45,220.23 -104.39,219.91 -104.23,219.63 -104.07,219.35 -103.83,219.13 -103.59,218.91 -103.29,218.78 -102.99,218.65 -102.67,218.62 -102.34,218.60 -102.03,218.67 -101.71,218.75 -101.44,218.93 -101.16,219.10 -100.96,219.35 -100.75,219.61 -100.64,219.91 -100.52,220.22 -100.51,220.54 -100.50,220.87 -100.60,221.18 -100.69,221.49 -100.88,221.75 -101.07,222.02 -101.34,222.21 -101.60,222.40 -101.91,222.50 -102.22,222.59 -102.55,222.58 -102.87,222.58 -103.18,222.47 -103.48,222.35 -103.74,222.15 -103.99,221.95 -104.17,221.68 -104.34,221.40 -104.42,221.09 -104.50,220.77 -104.48,220.45 -104.45,220.12 -104.32,219.82 -104.20,219.52 -103.98,219.28 -103.76,219.04 -103.48,218.88 -103.20,218.72 -103.20,218.72 -103.20,218.72 -102.11,218.24 -101.02,217.76 -99.43,216.84 -97.83,215.92 -96.49,214.90 -95.14,213.89 -93.50,212.81 -91.87,211.73 -89.12,210.08 -86.36,208.44 -83.41,206.33 -80.46,204.21 -77.57,201.94 -74.68,199.67 -71.84,196.96 -69.01,194.25 -66.35,191.44 -63.70,188.62 -60.61,185.16 -57.52,181.70 -54.27,177.59 -51.03,173.48 -47.86,168.70 -44.69,163.93 -41.69,158.47 -38.68,153.02 -36.11,147.81 -33.53,142.61 -31.06,137.09 -28.59,131.57 -26.39,126.30 -24.20,121.02 -23.02,116.51 -21.84,112.00 -20.43,107.34 -19.03,102.69 -17.96,97.93 -16.88,93.18 -15.71,88.32 -14.53,83.46 -13.13,77.95 -11.73,72.45 -10.66,66.58 -9.59,60.72 -8.43,55.09 -7.26,49.46 -6.32,44.78 -5.38,40.10 -4.51,35.38 -3.64,30.65 -2.92,26.79 -2.21,22.92 -1.86,20.66 -1.52,18.40 -1.51,16.42 -1.50,14.45 -1.48,12.50 -1.46,10.55 -1.49,7.76 -1.52,4.98 -1.56,2.49 -1.59,0 -1.57,-0.19 -1.55,-0.38 -1.48,-0.56 -1.41,-0.74 -1.30,-0.90 -1.19,-1.06 -1.05,-1.18 -0.90,-1.31 -0.73,-1.40 -0.56,-1.49 -0.38,-1.54 -0.19,-1.58 0.00,-1.58 0.19,-1.58 0.38,-1.54 0.56,-1.49 0.73,-1.40 0.90,-1.31 1.05,-1.18 1.19,-1.06 1.30,-0.90 1.41,-0.74 1.48,-0.56 1.55,-0.38 1.57,-0.19 1.59,0.00 1.59,0.00 L 1.59,0 Z"/></g><g transform="translate(29.499984741210938 10) rotate(0 84.5 93.66667175292969)" stroke="none"><path fill="#1e1e1e" d="M 1.56,-0.78 Q 1.56,-0.78 2.36,0.73 3.15,2.25 3.67,3.19 4.19,4.12 4.93,5.39 5.68,6.66 6.54,8.31 7.41,9.96 8.31,11.98 9.20,14.00 12.48,19.28 15.75,24.56 20.77,31.90 25.79,39.24 30.77,46.00 35.76,52.77 41.12,59.27 46.47,65.77 53.34,73.71 60.21,81.66 68.01,90.40 75.81,99.15 81.90,105.83 87.98,112.52 93.63,118.52 99.28,124.53 106.55,131.66 113.82,138.80 121.59,145.85 129.37,152.90 135.74,158.68 142.12,164.46 147.22,168.93 152.32,173.39 155.62,176.14 158.93,178.90 161.27,180.62 163.61,182.35 165.26,183.32 166.91,184.29 168.31,185.15 169.71,186.01 169.87,186.19 170.03,186.37 170.12,186.59 170.21,186.81 170.23,187.05 170.24,187.29 170.18,187.52 170.12,187.75 169.99,187.94 169.86,188.14 169.68,188.29 169.49,188.44 169.27,188.52 169.04,188.60 168.80,188.60 168.57,188.61 168.34,188.53 168.11,188.46 167.92,188.32 167.73,188.18 167.59,187.99 167.45,187.79 167.39,187.56 167.32,187.34 167.33,187.10 167.34,186.86 167.42,186.64 167.51,186.41 167.66,186.23 167.81,186.05 168.01,185.92 168.21,185.79 168.44,185.74 168.67,185.68 168.91,185.71 169.15,185.73 169.37,185.82 169.58,185.92 169.76,186.08 169.93,186.24 170.05,186.45 170.16,186.66 170.21,186.89 170.25,187.13 170.21,187.36 170.18,187.60 170.07,187.81 169.96,188.02 169.79,188.19 169.62,188.35 169.41,188.46 169.20,188.56 168.96,188.59 168.72,188.62 168.49,188.57 168.26,188.53 168.05,188.41 167.85,188.29 167.85,188.29 167.85,188.29 166.65,187.47 165.45,186.65 163.75,185.56 162.04,184.47 159.64,182.70 157.24,180.93 153.91,178.16 150.57,175.38 145.46,170.91 140.34,166.43 133.96,160.65 127.58,154.87 119.76,147.79 111.94,140.71 104.63,133.55 97.31,126.38 91.64,120.37 85.97,114.36 79.85,107.68 73.74,100.99 65.90,92.25 58.07,83.51 51.15,75.57 44.23,67.62 38.79,61.09 33.35,54.56 28.27,47.80 23.19,41.04 18.06,33.69 12.92,26.35 9.44,20.97 5.96,15.60 4.94,13.73 3.93,11.87 3.01,10.26 2.08,8.65 1.00,6.26 -0.08,3.87 -0.82,2.33 -1.56,0.78 -1.63,0.58 -1.70,0.38 -1.72,0.17 -1.75,-0.03 -1.72,-0.24 -1.69,-0.45 -1.61,-0.64 -1.53,-0.84 -1.41,-1.01 -1.28,-1.18 -1.12,-1.32 -0.96,-1.46 -0.77,-1.55 -0.58,-1.64 -0.38,-1.69 -0.17,-1.74 0.03,-1.73 0.24,-1.73 0.44,-1.67 0.65,-1.62 0.83,-1.52 1.02,-1.42 1.17,-1.27 1.33,-1.13 1.45,-0.95 1.56,-0.78 1.56,-0.78 L 1.56,-0.78 Z"/></g></svg>