<svg version="1.1" xmlns="http://www.w3.org/2000/svg" viewBox="0 0 340.0000305175781 205.23438835144043" width="340.0000305175781" height="205.23438835144043">
  <!-- svg-source:excalidraw -->
  
  <defs>
    <style class="style-fonts">
      @font-face {
        font-family: "Virgil";
        src: url("https://excalidraw.com/Virgil.woff2");
      }
      @font-face {
        font-family: "Cascadia";
        src: url("https://excalidraw.com/Cascadia.woff2");
      }
    </style>
    
  </defs>
  <rect x="0" y="0" width="340.0000305175781" height="205.23438835144043" fill="#ffffff"/><g transform="translate(54.666656494140625 13.333328247070312) rotate(0 -16.666656494140625 46.666664123535156)" stroke="none"><path fill="#1e1e1e" d="M 1.57,0.15 Q 1.57,0.15 1.39,2.07 1.20,3.99 0.69,6.58 0.18,9.18 -0.42,12.55 -1.03,15.91 -2.07,19.90 -3.12,23.88 -4.53,28.26 -5.95,32.65 -7.51,37.19 -9.07,41.74 -10.90,46.37 -12.73,51.01 -14.46,55.27 -16.20,59.54 -17.90,63.47 -19.60,67.40 -21.09,70.79 -22.58,74.18 -23.99,77.17 -25.40,80.16 -26.57,82.58 -27.74,85.00 -28.83,87.01 -29.92,89.02 -30.46,90.30 -31.00,91.57 -31.18,92.33 -31.36,93.10 -31.48,93.27 -31.60,93.45 -31.76,93.59 -31.92,93.73 -32.11,93.83 -32.30,93.92 -32.51,93.98 -32.71,94.03 -32.93,94.03 -33.14,94.02 -33.34,93.97 -33.55,93.92 -33.74,93.82 -33.93,93.72 -34.09,93.58 -34.24,93.44 -34.36,93.27 -34.49,93.09 -34.56,92.89 -34.64,92.69 -34.66,92.48 -34.69,92.27 -34.66,92.06 -34.63,91.85 -34.56,91.65 -34.48,91.45 -34.14,89.75 -33.80,88.06 -33.24,86.92 -32.69,85.78 -31.87,84.07 -31.05,82.37 -30.83,82.08 -30.61,81.79 -30.31,81.58 -30.01,81.38 -29.66,81.28 -29.31,81.18 -28.95,81.19 -28.58,81.21 -28.24,81.35 -27.90,81.48 -27.63,81.71 -27.35,81.95 -27.16,82.26 -26.97,82.57 -26.89,82.92 -26.81,83.28 -26.85,83.64 -26.88,84.00 -27.03,84.34 -27.19,84.67 -27.43,84.93 -27.68,85.20 -28.00,85.37 -28.33,85.54 -28.68,85.60 -29.04,85.66 -29.40,85.61 -29.76,85.55 -30.09,85.38 -30.41,85.21 -30.66,84.95 -30.91,84.69 -31.07,84.36 -31.22,84.03 -31.26,83.66 -31.30,83.30 -31.23,82.95 -31.15,82.59 -30.96,82.28 -30.78,81.96 -30.50,81.73 -30.23,81.49 -29.89,81.35 -29.55,81.22 -29.19,81.20 -28.82,81.17 -28.47,81.27 -28.12,81.37 -27.82,81.57 -27.52,81.77 -27.29,82.06 -27.07,82.35 -26.95,82.69 -26.84,83.04 -26.83,83.40 -26.83,83.77 -26.95,84.11 -27.06,84.46 -27.06,84.46 -27.06,84.46 -28.62,87.04 -30.17,89.63 -30.77,91.36 -31.36,93.10 -31.48,93.27 -31.60,93.45 -31.76,93.59 -31.92,93.73 -32.11,93.83 -32.30,93.92 -32.51,93.98 -32.71,94.03 -32.93,94.03 -33.14,94.02 -33.34,93.97 -33.55,93.92 -33.74,93.82 -33.93,93.72 -34.09,93.58 -34.24,93.44 -34.36,93.27 -34.49,93.09 -34.56,92.89 -34.63,92.69 -34.66,92.48 -34.69,92.27 -34.66,92.06 -34.63,91.85 -34.56,91.65 -34.48,91.45 -34.11,90.79 -33.75,90.12 -32.99,88.95 -32.24,87.77 -31.18,85.81 -30.12,83.85 -28.96,81.44 -27.79,79.03 -26.41,76.08 -25.02,73.12 -23.53,69.73 -22.05,66.34 -20.37,62.43 -18.69,58.53 -16.97,54.27 -15.25,50.02 -13.46,45.43 -11.67,40.85 -10.14,36.33 -8.60,31.80 -7.24,27.48 -5.88,23.17 -4.89,19.29 -3.91,15.42 -3.36,12.03 -2.81,8.63 -2.39,6.15 -1.97,3.67 -1.77,1.75 -1.57,-0.15 -1.52,-0.34 -1.48,-0.52 -1.40,-0.69 -1.31,-0.86 -1.19,-1.01 -1.07,-1.15 -0.91,-1.27 -0.76,-1.38 -0.58,-1.45 -0.41,-1.52 -0.22,-1.55 -0.03,-1.57 0.15,-1.55 0.34,-1.54 0.52,-1.47 0.70,-1.41 0.86,-1.30 1.02,-1.20 1.15,-1.06 1.28,-0.92 1.37,-0.75 1.46,-0.59 1.51,-0.40 1.56,-0.22 1.56,-0.03 1.57,0.15 1.57,0.15 L 1.57,0.15 Z"/></g><g transform="translate(10 14) rotate(0 51 1)" stroke="none"><path fill="#1e1e1e" d="M -0.80,-1.33 Q -0.80,-1.33 1.14,-2.46 3.09,-3.59 6.07,-4.14 9.04,-4.69 13.16,-4.89 17.29,-5.09 22.12,-4.98 26.96,-4.86 32.48,-4.42 38.00,-3.99 43.62,-3.22 49.25,-2.45 54.52,-1.55 59.79,-0.64 66.64,0.69 73.49,2.04 77.91,2.80 82.33,3.56 85.70,3.88 89.07,4.20 91.64,4.34 94.22,4.47 97.42,4.43 100.62,4.38 100.87,4.43 101.12,4.48 101.34,4.60 101.56,4.73 101.73,4.92 101.90,5.11 102.01,5.34 102.11,5.58 102.13,5.83 102.15,6.08 102.09,6.33 102.03,6.58 101.89,6.79 101.75,7.01 101.55,7.17 101.35,7.33 101.12,7.42 100.88,7.51 100.62,7.51 100.37,7.52 100.12,7.45 99.88,7.37 99.67,7.22 99.46,7.07 99.32,6.87 99.17,6.66 99.09,6.42 99.02,6.17 99.02,5.92 99.03,5.66 99.12,5.42 99.20,5.18 99.36,4.99 99.52,4.79 99.74,4.65 99.95,4.51 100.20,4.45 100.45,4.39 100.70,4.41 100.96,4.43 101.19,4.53 101.43,4.63 101.61,4.80 101.80,4.97 101.93,5.19 102.06,5.41 102.10,5.66 102.15,5.91 102.12,6.17 102.08,6.42 101.97,6.65 101.86,6.88 101.68,7.06 101.50,7.24 101.27,7.35 101.04,7.46 100.79,7.50 100.54,7.53 100.54,7.53 100.54,7.53 97.31,7.32 94.08,7.11 91.45,6.97 88.82,6.83 85.35,6.51 81.88,6.18 77.43,5.42 72.97,4.66 66.16,3.32 59.34,1.99 54.11,1.10 48.89,0.21 43.34,-0.52 37.78,-1.27 32.34,-1.68 26.90,-2.10 22.17,-2.19 17.43,-2.28 13.49,-2.07 9.54,-1.85 7.05,-1.43 4.56,-1.00 2.68,0.16 0.80,1.33 0.63,1.41 0.45,1.49 0.27,1.52 0.08,1.55 -0.09,1.54 -0.28,1.53 -0.46,1.47 -0.64,1.42 -0.80,1.32 -0.96,1.22 -1.10,1.09 -1.23,0.95 -1.32,0.79 -1.42,0.63 -1.48,0.45 -1.53,0.27 -1.54,0.08 -1.55,-0.09 -1.52,-0.28 -1.48,-0.46 -1.41,-0.64 -1.33,-0.81 -1.21,-0.96 -1.10,-1.10 -0.95,-1.22 -0.80,-1.33 -0.80,-1.33 L -0.80,-1.33 Z"/></g><g transform="translate(126 31.333343505859375) rotate(0 -17 39)" stroke="none"><path fill="#1e1e1e" d="M 1.27,0.90 Q 1.27,0.90 -0.67,3.57 -2.61,6.23 -4.62,8.73 -6.62,11.22 -8.62,13.79 -10.61,16.36 -12.82,19.01 -15.03,21.65 -17.32,24.31 -19.60,26.96 -21.92,29.62 -24.23,32.28 -26.14,34.90 -28.05,37.51 -29.61,40.12 -31.16,42.73 -32.18,45.30 -33.19,47.87 -33.61,50.22 -34.03,52.57 -34.02,55.03 -34.01,57.49 -33.28,59.74 -32.54,61.99 -31.32,64.04 -30.10,66.09 -28.31,67.85 -26.52,69.61 -24.46,71.11 -22.39,72.61 -20.08,73.59 -17.76,74.57 -15.47,75.17 -13.18,75.78 -10.92,76.04 -8.66,76.29 -6.81,76.17 -4.95,76.05 -3.53,75.59 -2.12,75.12 -0.89,74.09 0.33,73.05 0.58,72.93 0.83,72.81 1.11,72.77 1.39,72.74 1.66,72.79 1.94,72.85 2.18,72.99 2.42,73.13 2.61,73.34 2.79,73.55 2.90,73.80 3.01,74.06 3.03,74.34 3.05,74.62 2.98,74.89 2.91,75.16 2.76,75.40 2.61,75.63 2.39,75.81 2.17,75.98 1.90,76.07 1.64,76.17 1.36,76.17 1.08,76.18 0.81,76.10 0.55,76.01 0.32,75.85 0.09,75.68 -0.06,75.45 -0.22,75.22 -0.30,74.96 -0.38,74.69 -0.37,74.41 -0.36,74.13 -0.26,73.87 -0.16,73.60 0.00,73.39 0.18,73.17 0.42,73.02 0.66,72.87 0.93,72.81 1.20,72.74 1.48,72.77 1.76,72.79 2.01,72.90 2.27,73.02 2.48,73.20 2.68,73.39 2.82,73.64 2.96,73.88 3.01,74.16 3.06,74.43 3.02,74.71 2.98,74.99 2.85,75.24 2.72,75.49 2.53,75.68 2.33,75.88 2.33,75.88 2.33,75.88 0.52,76.99 -1.27,78.10 -3.05,78.46 -4.83,78.83 -6.89,78.86 -8.96,78.90 -11.40,78.61 -13.85,78.32 -16.32,77.65 -18.79,76.98 -21.36,75.86 -23.93,74.74 -26.16,73.11 -28.38,71.47 -30.37,69.45 -32.36,67.44 -33.70,65.11 -35.05,62.79 -35.85,60.16 -36.65,57.53 -36.64,54.81 -36.63,52.10 -36.15,49.50 -35.66,46.90 -34.56,44.14 -33.46,41.37 -31.83,38.65 -30.21,35.94 -28.24,33.22 -26.27,30.51 -23.97,27.85 -21.67,25.19 -19.42,22.54 -17.16,19.89 -15.00,17.27 -12.85,14.64 -10.87,12.04 -8.89,9.43 -6.97,6.96 -5.04,4.49 -3.16,1.79 -1.27,-0.90 -1.14,-1.04 -1.01,-1.18 -0.86,-1.29 -0.70,-1.39 -0.52,-1.45 -0.34,-1.52 -0.16,-1.54 0.02,-1.56 0.21,-1.53 0.39,-1.51 0.57,-1.44 0.74,-1.37 0.90,-1.26 1.05,-1.15 1.17,-1.00 1.29,-0.86 1.38,-0.69 1.46,-0.53 1.51,-0.34 1.55,-0.16 1.55,0.02 1.54,0.21 1.49,0.39 1.45,0.57 1.36,0.74 1.27,0.90 1.27,0.90 L 1.27,0.90 Z"/></g><g transform="translate(100 79.33334350585938) rotate(0 16 -2)" stroke="none"><path fill="#1e1e1e" d="M -0.11,-1.86 Q -0.11,-1.86 2.95,-1.98 6.02,-2.10 8.58,-2.50 11.14,-2.90 13.68,-3.06 16.23,-3.23 18.79,-3.47 21.36,-3.72 23.58,-4.00 25.81,-4.29 28.21,-4.85 30.61,-5.41 30.88,-5.42 31.14,-5.43 31.40,-5.35 31.65,-5.27 31.87,-5.11 32.09,-4.95 32.24,-4.74 32.40,-4.52 32.47,-4.26 32.55,-4.01 32.54,-3.74 32.53,-3.47 32.44,-3.22 32.35,-2.97 32.18,-2.77 32.01,-2.56 31.78,-2.42 31.56,-2.27 31.30,-2.21 31.04,-2.15 30.77,-2.17 30.51,-2.19 30.26,-2.30 30.02,-2.41 29.82,-2.58 29.62,-2.76 29.49,-3.00 29.36,-3.23 29.31,-3.49 29.26,-3.75 29.30,-4.02 29.34,-4.28 29.46,-4.52 29.58,-4.76 29.77,-4.95 29.96,-5.14 30.20,-5.25 30.44,-5.37 30.70,-5.41 30.97,-5.44 31.23,-5.39 31.49,-5.34 31.72,-5.21 31.95,-5.07 32.13,-4.87 32.31,-4.68 32.41,-4.43 32.52,-4.18 32.54,-3.92 32.56,-3.65 32.49,-3.39 32.43,-3.13 32.28,-2.91 32.14,-2.68 31.93,-2.52 31.72,-2.35 31.47,-2.26 31.22,-2.17 31.22,-2.17 31.22,-2.17 28.71,-1.81 26.20,-1.46 23.93,-1.12 21.67,-0.79 19.07,-0.48 16.47,-0.18 14.08,0.04 11.70,0.27 8.97,0.80 6.24,1.33 3.17,1.60 0.11,1.86 -0.10,1.85 -0.33,1.84 -0.54,1.77 -0.76,1.70 -0.95,1.59 -1.15,1.47 -1.31,1.31 -1.47,1.15 -1.58,0.96 -1.70,0.77 -1.77,0.55 -1.84,0.34 -1.85,0.11 -1.86,-0.10 -1.82,-0.33 -1.78,-0.55 -1.69,-0.75 -1.60,-0.96 -1.46,-1.14 -1.32,-1.32 -1.14,-1.46 -0.97,-1.60 -0.76,-1.69 -0.56,-1.78 -0.33,-1.82 -0.11,-1.86 -0.11,-1.86 L -0.11,-1.86 Z"/></g><g transform="translate(118 48) rotate(0 14 -6.3333282470703125)" stroke="none"><path fill="#1e1e1e" d="M -1.88,-0.72 Q -1.88,-0.72 -0.83,-3.18 0.21,-5.64 1.28,-7.28 2.34,-8.91 3.40,-10.09 4.46,-11.26 5.53,-12.20 6.60,-13.15 8.35,-13.71 10.10,-14.27 12.21,-14.38 14.32,-14.49 16.81,-14.27 19.29,-14.04 23.02,-13.49 26.75,-12.93 27.06,-12.83 27.37,-12.72 27.63,-12.52 27.89,-12.32 28.07,-12.04 28.25,-11.77 28.33,-11.45 28.42,-11.14 28.40,-10.81 28.38,-10.48 28.25,-10.18 28.13,-9.88 27.92,-9.63 27.70,-9.38 27.42,-9.21 27.14,-9.05 26.82,-8.98 26.49,-8.91 26.17,-8.95 25.84,-8.99 25.55,-9.13 25.25,-9.27 25.02,-9.50 24.78,-9.73 24.63,-10.02 24.48,-10.31 24.43,-10.63 24.38,-10.96 24.43,-11.28 24.49,-11.60 24.65,-11.89 24.80,-12.18 25.04,-12.40 25.28,-12.62 25.58,-12.76 25.88,-12.89 26.21,-12.93 26.53,-12.96 26.85,-12.89 27.17,-12.81 27.45,-12.64 27.73,-12.47 27.94,-12.22 28.15,-11.97 28.27,-11.66 28.39,-11.35 28.40,-11.03 28.42,-10.70 28.32,-10.38 28.23,-10.07 28.05,-9.80 27.86,-9.53 27.60,-9.33 27.34,-9.14 27.02,-9.04 26.71,-8.93 26.39,-8.94 26.06,-8.94 26.06,-8.94 26.06,-8.94 22.57,-9.64 19.08,-10.33 16.85,-10.37 14.63,-10.40 11.87,-10.10 9.10,-9.79 8.19,-9.12 7.27,-8.45 6.34,-7.63 5.41,-6.81 4.51,-5.56 3.61,-4.31 2.74,-1.79 1.88,0.72 1.76,0.93 1.65,1.15 1.49,1.33 1.32,1.51 1.12,1.65 0.92,1.78 0.70,1.87 0.47,1.95 0.23,1.98 -0.00,2.01 -0.25,1.98 -0.49,1.95 -0.71,1.86 -0.94,1.77 -1.14,1.64 -1.34,1.50 -1.50,1.31 -1.66,1.13 -1.77,0.92 -1.88,0.70 -1.94,0.46 -2.00,0.23 -2.00,-0.00 -1.99,-0.25 -1.94,-0.48 -1.88,-0.72 -1.88,-0.72 L -1.88,-0.72 Z"/></g><g transform="translate(197.33334350585938 43.333343505859375) rotate(0 -18.333343505859375 33.666656494140625)" stroke="none"><path fill="#1e1e1e" d="M -0.51,1.92 Q -0.51,1.92 -3.36,1.06 -6.21,0.21 -8.28,-0.15 -10.35,-0.52 -12.18,-0.65 -14.00,-0.77 -15.72,-0.80 -17.44,-0.83 -18.71,-0.44 -19.99,-0.05 -21.42,0.62 -22.85,1.30 -24.18,2.14 -25.52,2.99 -26.79,4.05 -28.07,5.11 -29.13,6.29 -30.19,7.46 -31.20,8.72 -32.22,9.98 -32.71,11.13 -33.19,12.28 -33.58,13.65 -33.97,15.03 -34.12,16.45 -34.27,17.88 -34.20,19.50 -34.13,21.11 -33.44,22.52 -32.76,23.93 -31.59,25.95 -30.41,27.97 -28.48,30.10 -26.54,32.24 -23.99,34.72 -21.45,37.20 -18.65,39.80 -15.85,42.40 -13.11,45.06 -10.37,47.73 -7.88,50.21 -5.38,52.69 -3.67,54.98 -1.97,57.26 -1.14,59.09 -0.31,60.92 0.10,62.43 0.52,63.94 0.09,65.39 -0.34,66.83 -1.50,67.97 -2.66,69.12 -4.52,69.81 -6.37,70.51 -8.51,70.88 -10.65,71.25 -12.76,71.39 -14.88,71.54 -17.12,71.55 -19.36,71.56 -22.62,71.54 -25.87,71.52 -28.15,71.11 -30.43,70.69 -31.98,70.14 -33.53,69.60 -34.52,68.23 -35.51,66.86 -35.29,65.38 -35.07,63.90 -33.35,61.88 -31.62,59.86 -31.34,59.64 -31.05,59.43 -30.71,59.31 -30.37,59.20 -30.01,59.20 -29.66,59.20 -29.32,59.32 -28.98,59.43 -28.69,59.65 -28.41,59.87 -28.21,60.17 -28.01,60.47 -27.91,60.81 -27.82,61.16 -27.84,61.51 -27.86,61.87 -27.99,62.20 -28.13,62.54 -28.36,62.81 -28.59,63.08 -28.90,63.27 -29.21,63.45 -29.56,63.52 -29.91,63.60 -30.27,63.56 -30.62,63.52 -30.95,63.37 -31.27,63.22 -31.53,62.97 -31.79,62.72 -31.96,62.40 -32.12,62.09 -32.18,61.73 -32.24,61.38 -32.18,61.03 -32.12,60.67 -31.95,60.36 -31.78,60.04 -31.52,59.80 -31.26,59.55 -30.93,59.40 -30.61,59.25 -30.25,59.21 -29.89,59.18 -29.54,59.26 -29.19,59.33 -28.89,59.52 -28.58,59.71 -28.35,59.98 -28.12,60.25 -27.99,60.59 -27.86,60.92 -27.84,61.28 -27.82,61.64 -27.92,61.98 -28.01,62.33 -28.22,62.62 -28.42,62.92 -28.42,62.92 -28.42,62.92 -30.20,64.79 -31.97,66.66 -30.94,67.19 -29.90,67.73 -27.90,68.05 -25.90,68.37 -22.69,68.29 -19.48,68.21 -17.34,68.07 -15.19,67.93 -13.31,67.72 -11.42,67.51 -9.55,67.06 -7.68,66.60 -6.42,66.25 -5.16,65.90 -3.95,65.06 -2.73,64.21 -2.90,63.13 -3.07,62.04 -3.63,60.47 -4.20,58.90 -5.78,56.80 -7.35,54.69 -9.87,52.25 -12.38,49.81 -15.12,47.21 -17.86,44.61 -20.73,42.04 -23.60,39.46 -26.28,36.98 -28.96,34.50 -31.19,32.19 -33.43,29.87 -34.86,27.73 -36.30,25.59 -37.24,23.53 -38.18,21.46 -38.32,19.42 -38.47,17.37 -38.22,15.59 -37.97,13.81 -37.43,12.14 -36.89,10.48 -36.08,8.99 -35.28,7.50 -34.15,6.16 -33.03,4.83 -31.77,3.50 -30.51,2.17 -29.01,0.94 -27.52,-0.27 -25.96,-1.19 -24.41,-2.11 -22.63,-2.89 -20.86,-3.66 -19.10,-3.99 -17.35,-4.32 -15.55,-4.23 -13.75,-4.14 -11.80,-3.99 -9.86,-3.84 -7.57,-3.56 -5.28,-3.28 -2.38,-2.60 0.51,-1.92 0.73,-1.83 0.95,-1.74 1.15,-1.60 1.34,-1.46 1.50,-1.28 1.65,-1.09 1.76,-0.88 1.87,-0.67 1.92,-0.43 1.98,-0.20 1.97,0.03 1.97,0.27 1.90,0.50 1.84,0.74 1.73,0.95 1.61,1.16 1.45,1.33 1.29,1.51 1.09,1.64 0.89,1.77 0.66,1.86 0.43,1.94 0.20,1.96 -0.03,1.99 -0.27,1.95 -0.51,1.92 -0.51,1.92 L -0.51,1.92 Z"/></g><g transform="translate(265.3333435058594 53.333343505859375) rotate(0 -8.666656494140625 35.666656494140625)" stroke="none"><path fill="#1e1e1e" d="M 1.55,0.34 Q 1.55,0.34 1.20,2.08 0.86,3.81 -0.35,6.41 -1.57,9.01 -3.03,12.33 -4.49,15.64 -6.08,19.53 -7.66,23.42 -9.30,27.74 -10.94,32.06 -12.20,36.35 -13.46,40.64 -14.58,44.95 -15.69,49.26 -16.35,52.97 -17.01,56.67 -17.49,59.60 -17.97,62.53 -18.17,64.69 -18.37,66.85 -18.33,68.16 -18.30,69.48 -18.23,70.24 -18.16,71.00 -18.20,71.21 -18.24,71.42 -18.33,71.61 -18.42,71.81 -18.55,71.98 -18.69,72.15 -18.86,72.28 -19.03,72.41 -19.22,72.50 -19.42,72.58 -19.63,72.62 -19.84,72.66 -20.06,72.64 -20.27,72.63 -20.47,72.57 -20.68,72.50 -20.86,72.39 -21.05,72.28 -21.20,72.13 -21.35,71.97 -21.46,71.79 -21.57,71.60 -21.63,71.40 -21.69,71.19 -21.71,70.98 -21.72,70.77 -20.85,68.68 -19.98,66.60 -19.82,66.35 -19.66,66.10 -19.42,65.91 -19.19,65.73 -18.91,65.62 -18.63,65.52 -18.33,65.51 -18.03,65.50 -17.75,65.59 -17.46,65.68 -17.22,65.85 -16.98,66.03 -16.80,66.27 -16.63,66.51 -16.54,66.80 -16.46,67.08 -16.46,67.38 -16.47,67.68 -16.57,67.96 -16.68,68.24 -16.86,68.47 -17.05,68.70 -17.30,68.87 -17.55,69.03 -17.84,69.10 -18.13,69.17 -18.43,69.15 -18.73,69.12 -19.00,69.00 -19.28,68.89 -19.50,68.69 -19.72,68.49 -19.87,68.23 -20.01,67.97 -20.07,67.68 -20.13,67.38 -20.09,67.09 -20.05,66.79 -19.91,66.52 -19.78,66.26 -19.57,66.04 -19.36,65.83 -19.09,65.70 -18.82,65.57 -18.53,65.53 -18.23,65.49 -17.94,65.54 -17.65,65.60 -17.39,65.75 -17.13,65.89 -16.93,66.12 -16.73,66.34 -16.61,66.61 -16.49,66.89 -16.47,67.18 -16.44,67.48 -16.52,67.77 -16.59,68.06 -16.59,68.06 -16.59,68.06 -17.38,69.53 -18.16,71.00 -18.20,71.21 -18.24,71.42 -18.33,71.61 -18.42,71.81 -18.55,71.98 -18.69,72.15 -18.86,72.28 -19.03,72.41 -19.22,72.50 -19.42,72.58 -19.63,72.62 -19.84,72.66 -20.06,72.64 -20.27,72.63 -20.47,72.57 -20.68,72.50 -20.86,72.39 -21.04,72.28 -21.20,72.13 -21.35,71.97 -21.46,71.79 -21.57,71.60 -21.63,71.40 -21.69,71.19 -21.71,70.98 -21.72,70.77 -21.58,70.02 -21.44,69.27 -21.23,67.94 -21.03,66.61 -20.82,64.36 -20.62,62.10 -20.15,59.15 -19.68,56.20 -19.01,52.39 -18.34,48.58 -17.23,44.22 -16.12,39.86 -14.85,35.47 -13.58,31.08 -11.97,26.71 -10.36,22.34 -8.81,18.40 -7.25,14.46 -5.85,11.08 -4.44,7.71 -3.41,5.39 -2.39,3.08 -1.97,1.36 -1.55,-0.34 -1.48,-0.52 -1.42,-0.70 -1.31,-0.86 -1.21,-1.02 -1.07,-1.15 -0.93,-1.28 -0.76,-1.38 -0.59,-1.47 -0.41,-1.52 -0.22,-1.57 -0.03,-1.57 0.15,-1.58 0.34,-1.54 0.52,-1.49 0.70,-1.41 0.87,-1.32 1.01,-1.20 1.16,-1.08 1.27,-0.92 1.39,-0.77 1.46,-0.59 1.53,-0.41 1.56,-0.22 1.59,-0.03 1.57,0.15 1.55,0.34 1.55,0.34 L 1.55,0.34 Z"/></g><g transform="translate(243.33334350585938 34) rotate(0 43.333343505859375 3.666656494140625)" stroke="none"><path fill="#1e1e1e" d="M -0.20,-1.54 Q -0.20,-1.54 2.67,-1.89 5.55,-2.24 9.13,-2.39 12.72,-2.53 17.12,-2.58 21.51,-2.63 26.88,-2.27 32.24,-1.90 37.59,-1.35 42.93,-0.81 48.10,0.00 53.28,0.81 57.76,1.54 62.25,2.27 68.02,3.55 73.80,4.82 77.56,5.55 81.32,6.28 82.95,6.50 84.57,6.72 84.80,6.81 85.03,6.89 85.22,7.04 85.41,7.20 85.54,7.40 85.67,7.61 85.73,7.85 85.79,8.08 85.77,8.33 85.75,8.57 85.65,8.79 85.56,9.02 85.39,9.20 85.23,9.38 85.02,9.50 84.80,9.62 84.57,9.67 84.33,9.71 84.08,9.68 83.84,9.64 83.62,9.54 83.41,9.43 83.23,9.25 83.06,9.08 82.95,8.86 82.84,8.64 82.81,8.40 82.78,8.16 82.83,7.92 82.87,7.68 82.99,7.47 83.11,7.26 83.29,7.09 83.48,6.93 83.70,6.84 83.92,6.74 84.17,6.72 84.41,6.70 84.65,6.76 84.88,6.82 85.09,6.95 85.30,7.08 85.45,7.27 85.60,7.46 85.68,7.69 85.77,7.92 85.77,8.16 85.78,8.41 85.71,8.64 85.64,8.88 85.49,9.07 85.35,9.27 85.15,9.41 84.95,9.56 84.72,9.63 84.49,9.70 84.24,9.69 84.00,9.68 84.00,9.68 84.00,9.68 82.41,9.29 80.82,8.89 77.02,8.16 73.22,7.42 67.52,6.17 61.82,4.91 57.34,4.20 52.86,3.48 47.76,2.69 42.66,1.90 37.36,1.37 32.06,0.85 26.81,0.51 21.55,0.17 17.20,0.26 12.86,0.35 9.40,0.53 5.94,0.71 3.07,1.13 0.20,1.54 0.01,1.55 -0.17,1.55 -0.35,1.50 -0.53,1.46 -0.70,1.38 -0.87,1.29 -1.01,1.17 -1.15,1.04 -1.26,0.89 -1.37,0.74 -1.44,0.56 -1.51,0.39 -1.53,0.20 -1.56,0.01 -1.54,-0.16 -1.52,-0.35 -1.45,-0.53 -1.39,-0.70 -1.28,-0.86 -1.18,-1.02 -1.04,-1.14 -0.90,-1.27 -0.73,-1.36 -0.57,-1.45 -0.38,-1.50 -0.20,-1.54 -0.20,-1.54 L -0.20,-1.54 Z"/></g><g transform="translate(57.16667175292969 133.8958511352539) rotate(0 -2.166656494140625 13.666656494140625)" stroke="none"><path fill="#1e1e1e" d="M 2.36,0 Q 2.36,0 2.37,1.43 2.38,2.87 2.28,4.42 2.19,5.97 1.94,7.57 1.69,9.16 1.26,10.84 0.83,12.53 0.47,14.05 0.11,15.58 -0.22,17.09 -0.57,18.60 -0.90,20.02 -1.23,21.45 -1.42,22.67 -1.62,23.89 -1.19,26.03 -0.77,28.17 -0.86,28.46 -0.96,28.75 -1.12,29.01 -1.28,29.27 -1.49,29.48 -1.71,29.70 -1.97,29.85 -2.24,30.01 -2.53,30.09 -2.82,30.18 -3.13,30.20 -3.43,30.21 -3.73,30.16 -4.03,30.10 -4.31,29.97 -4.58,29.84 -4.82,29.65 -5.06,29.46 -5.24,29.22 -5.43,28.98 -5.55,28.70 -5.68,28.42 -5.73,28.12 -5.78,27.82 -5.76,27.51 -5.74,27.21 -4.22,26.21 -2.71,25.22 -2.33,25.37 -1.95,25.52 -1.63,25.79 -1.32,26.05 -1.11,26.40 -0.90,26.75 -0.81,27.15 -0.73,27.55 -0.77,27.96 -0.81,28.37 -0.99,28.74 -1.16,29.11 -1.44,29.41 -1.72,29.70 -2.08,29.90 -2.45,30.09 -2.85,30.15 -3.25,30.22 -3.66,30.15 -4.06,30.09 -4.42,29.89 -4.78,29.70 -5.07,29.41 -5.35,29.11 -5.52,28.74 -5.69,28.36 -5.73,27.96 -5.78,27.55 -5.69,27.15 -5.60,26.75 -5.39,26.40 -5.18,26.05 -4.87,25.78 -4.55,25.52 -4.17,25.37 -3.79,25.22 -3.38,25.20 -2.98,25.17 -2.58,25.28 -2.19,25.39 -1.85,25.62 -1.51,25.85 -1.26,26.18 -1.02,26.51 -0.88,26.89 -0.75,27.28 -0.76,27.69 -0.76,28.10 -0.89,28.49 -1.02,28.88 -1.27,29.20 -1.51,29.53 -1.85,29.76 -2.19,29.99 -2.59,30.10 -2.98,30.21 -1.87,29.19 -0.77,28.17 -0.86,28.46 -0.96,28.75 -1.12,29.01 -1.28,29.27 -1.49,29.48 -1.71,29.70 -1.97,29.85 -2.24,30.01 -2.53,30.09 -2.82,30.18 -3.13,30.20 -3.43,30.21 -3.73,30.16 -4.03,30.10 -4.31,29.97 -4.58,29.84 -4.82,29.65 -5.06,29.46 -5.24,29.22 -5.43,28.98 -5.55,28.70 -5.68,28.42 -5.73,28.12 -5.78,27.82 -5.76,27.51 -5.74,27.21 -6.03,25.11 -6.33,23.01 -6.05,21.69 -5.77,20.37 -5.42,18.97 -5.07,17.58 -4.73,16.05 -4.39,14.53 -4.04,12.98 -3.69,11.43 -3.35,9.93 -3.00,8.43 -2.79,7.04 -2.57,5.66 -2.47,4.27 -2.38,2.87 -2.37,1.43 -2.36,0 -2.32,-0.28 -2.29,-0.56 -2.19,-0.83 -2.09,-1.09 -1.93,-1.33 -1.76,-1.56 -1.55,-1.75 -1.34,-1.94 -1.09,-2.07 -0.83,-2.21 -0.56,-2.27 -0.28,-2.34 0.00,-2.34 0.28,-2.34 0.56,-2.27 0.83,-2.21 1.09,-2.07 1.34,-1.94 1.55,-1.75 1.76,-1.56 1.93,-1.33 2.09,-1.09 2.19,-0.83 2.29,-0.56 2.32,-0.28 2.36,0.00 2.36,0.00 L 2.36,0 Z"/></g><g transform="translate(73.83335876464844 134.22916412353516) rotate(0 12.666656494140625 10.833343505859375)" stroke="none"><path fill="#1e1e1e" d="M -1.49,-2.15 Q -1.49,-2.15 -0.21,-2.99 1.05,-3.84 2.33,-4.38 3.62,-4.93 4.86,-5.17 6.11,-5.42 7.35,-5.43 8.60,-5.45 9.84,-5.24 11.08,-5.03 12.30,-4.60 13.52,-4.18 14.63,-3.50 15.73,-2.83 16.59,-2.06 17.44,-1.29 18.08,-0.32 18.71,0.63 19.04,1.80 19.37,2.97 19.39,4.13 19.40,5.29 19.03,6.62 18.66,7.95 17.89,9.23 17.12,10.52 16.30,11.59 15.48,12.66 14.52,13.78 13.56,14.89 12.68,15.92 11.80,16.95 10.94,17.95 10.08,18.96 9.15,20.51 8.22,22.06 9.87,21.83 11.53,21.59 12.90,21.65 14.28,21.70 15.55,21.58 16.81,21.45 18.23,21.23 19.64,21.02 21.65,20.44 23.66,19.85 24.11,19.81 24.56,19.76 25.01,19.86 25.46,19.97 25.85,20.20 26.24,20.44 26.53,20.79 26.82,21.14 26.99,21.57 27.15,21.99 27.18,22.45 27.20,22.91 27.07,23.35 26.95,23.79 26.69,24.16 26.43,24.54 26.06,24.81 25.69,25.09 25.26,25.23 24.83,25.37 24.37,25.37 23.91,25.37 23.48,25.22 23.05,25.07 22.69,24.79 22.33,24.51 22.07,24.13 21.82,23.75 21.70,23.31 21.58,22.87 21.61,22.41 21.64,21.95 21.81,21.53 21.98,21.11 22.28,20.76 22.58,20.41 22.97,20.18 23.37,19.95 23.81,19.85 24.26,19.76 24.71,19.81 25.17,19.87 25.58,20.06 25.99,20.26 26.32,20.57 26.65,20.89 26.86,21.29 27.07,21.70 27.14,22.15 27.22,22.60 27.14,23.05 27.06,23.50 26.84,23.91 26.63,24.31 26.29,24.62 25.96,24.93 25.54,25.12 25.13,25.31 25.13,25.31 25.13,25.31 22.88,25.87 20.63,26.44 19.08,26.76 17.53,27.09 15.88,27.33 14.23,27.58 12.80,27.61 11.37,27.64 10.01,27.63 8.66,27.62 7.43,27.49 6.20,27.36 4.86,26.66 3.53,25.96 2.89,24.55 2.25,23.14 2.70,21.25 3.15,19.36 3.73,18.35 4.30,17.34 5.02,16.35 5.74,15.36 6.56,14.33 7.39,13.31 8.22,12.26 9.06,11.21 9.87,10.15 10.69,9.08 11.35,8.19 12.00,7.29 12.75,5.71 13.49,4.13 13.01,3.01 12.54,1.89 11.24,1.16 9.95,0.42 8.43,0.15 6.92,-0.11 5.42,0.14 3.93,0.39 2.71,1.27 1.49,2.15 1.21,2.29 0.93,2.44 0.62,2.52 0.31,2.59 0.00,2.59 -0.31,2.59 -0.61,2.52 -0.92,2.44 -1.20,2.30 -1.48,2.15 -1.72,1.94 -1.95,1.73 -2.13,1.47 -2.31,1.21 -2.42,0.92 -2.54,0.62 -2.57,0.31 -2.61,0.00 -2.58,-0.30 -2.54,-0.62 -2.43,-0.91 -2.31,-1.21 -2.14,-1.47 -1.96,-1.73 -1.72,-1.94 -1.48,-2.15 -1.48,-2.15 L -1.49,-2.15 Z"/></g><g transform="translate(113.83335876464844 131.8958511352539) rotate(0 12 18.833328247070312)" stroke="none"><path fill="#1e1e1e" d="M -1.12,-2.24 Q -1.12,-2.24 0.64,-3.01 2.42,-3.79 4.09,-4.32 5.77,-4.84 7.24,-5.11 8.71,-5.37 10.05,-5.50 11.38,-5.62 12.83,-5.38 14.27,-5.14 15.49,-4.72 16.71,-4.31 17.81,-3.66 18.91,-3.01 20.36,-1.35 21.81,0.30 21.90,2.42 21.99,4.53 21.31,5.63 20.63,6.72 18.93,8.21 17.22,9.69 15.62,10.79 14.01,11.89 12.47,13.08 10.93,14.26 10.04,15.11 9.15,15.95 8.76,14.48 8.36,13.00 9.89,12.82 11.42,12.64 12.53,12.91 13.64,13.17 15.41,13.86 17.18,14.54 18.79,15.66 20.39,16.78 21.70,18.07 23.01,19.37 24.23,20.54 25.44,21.71 25.99,22.69 26.55,23.67 26.81,24.76 27.08,25.84 26.93,27.14 26.79,28.43 26.16,29.66 25.52,30.89 24.68,31.91 23.84,32.92 22.67,33.91 21.50,34.89 20.32,35.73 19.15,36.57 17.96,37.38 16.78,38.19 15.38,38.97 13.99,39.75 12.62,40.43 11.25,41.12 9.87,41.66 8.50,42.20 7.23,42.62 5.97,43.05 3.05,43.13 0.13,43.22 -0.30,43.08 -0.74,42.94 -1.11,42.67 -1.49,42.40 -1.75,42.03 -2.02,41.65 -2.15,41.21 -2.28,40.77 -2.27,40.31 -2.25,39.85 -2.09,39.42 -1.93,38.99 -1.64,38.63 -1.35,38.28 -0.96,38.03 -0.57,37.79 -0.13,37.68 0.31,37.57 0.77,37.61 1.23,37.65 1.65,37.83 2.07,38.02 2.41,38.33 2.75,38.64 2.97,39.04 3.20,39.44 3.28,39.89 3.37,40.34 3.30,40.80 3.24,41.25 3.03,41.66 2.82,42.07 2.50,42.40 2.17,42.72 1.76,42.92 1.34,43.12 0.89,43.18 0.43,43.24 -0.01,43.15 -0.46,43.07 -0.86,42.84 -1.26,42.61 -1.56,42.26 -1.87,41.92 -2.05,41.50 -2.23,41.07 -2.26,40.61 -2.30,40.16 -2.18,39.71 -2.07,39.27 -1.82,38.88 -1.57,38.49 -1.21,38.21 -0.85,37.92 -0.42,37.77 0.01,37.61 0.47,37.60 0.92,37.59 0.92,37.59 0.92,37.59 2.57,37.68 4.21,37.76 5.32,37.39 6.43,37.01 7.50,36.58 8.58,36.14 9.80,35.44 11.02,34.73 12.12,34.04 13.21,33.34 14.28,32.49 15.36,31.64 16.33,30.83 17.31,30.01 18.54,28.77 19.77,27.52 19.83,26.43 19.89,25.34 18.49,24.07 17.10,22.80 16.28,21.93 15.46,21.07 14.43,20.48 13.41,19.90 12.17,19.54 10.93,19.18 9.31,18.96 7.69,18.75 6.11,17.83 4.53,16.91 4.17,14.96 3.80,13.01 4.83,11.79 5.85,10.56 7.28,9.44 8.71,8.31 9.57,7.65 10.44,6.98 11.35,6.32 12.27,5.66 13.62,4.84 14.98,4.03 15.95,3.12 16.92,2.22 15.89,1.35 14.87,0.47 13.26,-0.15 11.65,-0.79 10.53,-0.75 9.41,-0.70 8.26,-0.58 7.12,-0.45 5.80,-0.05 4.47,0.34 2.80,1.29 1.12,2.24 0.83,2.34 0.55,2.44 0.25,2.47 -0.04,2.51 -0.34,2.46 -0.64,2.42 -0.92,2.31 -1.21,2.19 -1.45,2.02 -1.70,1.84 -1.89,1.61 -2.09,1.38 -2.22,1.11 -2.36,0.84 -2.43,0.54 -2.49,0.25 -2.49,-0.04 -2.48,-0.35 -2.40,-0.64 -2.32,-0.93 -2.18,-1.20 -2.03,-1.46 -1.83,-1.68 -1.62,-1.91 -1.37,-2.07 -1.12,-2.24 -1.12,-2.24 L -1.12,-2.24 Z"/></g><g transform="translate(164.83335876464844 176.01041793823242) rotate(0 10.833328247070312 -17.333328247070312)" stroke="none"><path fill="#1e1e1e" d="M -0.64,-1.69 Q -0.64,-1.69 1.39,-2.39 3.42,-3.09 4.93,-3.96 6.44,-4.82 7.92,-5.84 9.40,-6.85 10.75,-8.02 12.10,-9.18 13.30,-10.49 14.50,-11.80 15.56,-13.26 16.61,-14.72 17.40,-16.31 18.19,-17.90 18.71,-19.63 19.22,-21.36 19.46,-23.26 19.70,-25.16 19.81,-27.13 19.93,-29.09 19.92,-30.79 19.91,-32.49 19.75,-33.72 19.59,-34.95 18.35,-34.37 17.11,-33.79 16.46,-32.13 15.81,-30.47 15.57,-29.31 15.34,-28.14 14.78,-25.55 14.21,-22.95 13.92,-20.76 13.63,-18.56 13.46,-16.48 13.29,-14.40 13.23,-12.46 13.17,-10.53 13.17,-8.74 13.17,-6.96 13.39,-5.56 13.62,-4.16 14.02,-3.11 14.42,-2.07 15.44,-0.84 16.45,0.38 18.72,0.44 20.99,0.49 21.39,0.55 21.80,0.60 22.16,0.79 22.53,0.97 22.81,1.26 23.10,1.55 23.28,1.91 23.46,2.28 23.52,2.68 23.57,3.08 23.49,3.48 23.41,3.88 23.21,4.24 23.01,4.59 22.71,4.87 22.40,5.14 22.03,5.30 21.65,5.46 21.25,5.49 20.84,5.52 20.45,5.42 20.05,5.32 19.71,5.10 19.36,4.88 19.11,4.56 18.86,4.24 18.72,3.86 18.58,3.48 18.57,3.07 18.56,2.66 18.68,2.27 18.80,1.88 19.04,1.55 19.28,1.22 19.61,0.99 19.94,0.75 20.33,0.63 20.72,0.51 21.13,0.52 21.53,0.54 21.92,0.68 22.30,0.82 22.62,1.08 22.93,1.33 23.15,1.68 23.37,2.02 23.47,2.42 23.56,2.81 23.53,3.22 23.50,3.62 23.33,4.00 23.17,4.37 22.90,4.68 22.63,4.98 22.27,5.18 21.91,5.38 21.51,5.45 21.11,5.53 21.11,5.53 21.11,5.53 18.26,5.24 15.40,4.94 14.23,4.22 13.06,3.50 12.34,2.54 11.61,1.57 11.05,0.34 10.49,-0.87 10.15,-2.28 9.82,-3.68 9.67,-5.33 9.53,-6.99 9.56,-8.78 9.58,-10.58 9.58,-12.56 9.58,-14.53 9.56,-16.70 9.54,-18.87 9.59,-21.26 9.64,-23.64 9.89,-26.42 10.13,-29.20 10.45,-30.74 10.77,-32.29 11.30,-33.67 11.83,-35.04 12.58,-36.21 13.33,-37.38 14.32,-38.23 15.32,-39.08 16.36,-39.48 17.40,-39.87 18.52,-39.93 19.63,-39.98 21.25,-38.70 22.88,-37.42 23.09,-36.30 23.30,-35.18 23.29,-33.80 23.28,-32.41 23.19,-30.67 23.10,-28.93 23.01,-26.86 22.92,-24.79 22.69,-22.60 22.46,-20.41 21.86,-18.39 21.26,-16.37 20.33,-14.54 19.41,-12.71 18.22,-11.08 17.04,-9.45 15.69,-8.00 14.34,-6.55 12.84,-5.29 11.33,-4.02 9.71,-2.93 8.09,-1.84 6.35,-0.90 4.62,0.03 2.63,0.86 0.64,1.69 0.43,1.74 0.22,1.79 0.00,1.79 -0.21,1.79 -0.42,1.74 -0.63,1.69 -0.83,1.59 -1.02,1.49 -1.18,1.34 -1.35,1.20 -1.47,1.02 -1.60,0.84 -1.67,0.63 -1.75,0.43 -1.78,0.21 -1.80,0.00 -1.78,-0.21 -1.75,-0.43 -1.68,-0.63 -1.60,-0.83 -1.47,-1.01 -1.35,-1.19 -1.19,-1.34 -1.03,-1.48 -0.83,-1.58 -0.64,-1.69 -0.64,-1.69 L -0.64,-1.69 Z"/></g><g transform="translate(195.83335876464844 161.67710494995117) rotate(0 1.9999847412109375 8.166656494140625)" stroke="none"><path fill="#1e1e1e" d="M 2.24,1.26 Q 2.24,1.26 1.32,2.75 0.40,4.25 0.03,5.38 -0.33,6.51 -0.49,8.62 -0.66,10.74 -0.34,11.89 -0.02,13.04 1.07,13.16 2.17,13.28 3.04,12.53 3.91,11.77 4.44,10.67 4.98,9.57 5.23,8.03 5.47,6.49 4.22,5.61 2.98,4.73 1.33,4.61 -0.30,4.50 -1.91,5.58 -3.51,6.66 -3.89,6.68 -4.26,6.71 -4.63,6.64 -5.00,6.57 -5.34,6.42 -5.68,6.26 -5.98,6.03 -6.27,5.80 -6.50,5.51 -6.73,5.21 -6.89,4.87 -7.04,4.53 -7.11,4.16 -7.18,3.79 -7.15,3.41 -7.13,3.04 -7.02,2.68 -6.91,2.32 -6.72,2.00 -6.52,1.68 -6.26,1.42 -5.99,1.15 -5.67,0.96 -5.35,0.76 -4.99,0.65 -4.63,0.54 -3.05,1.21 -1.48,1.89 -1.27,2.35 -1.06,2.81 -1.02,3.31 -0.97,3.81 -1.08,4.30 -1.20,4.79 -1.46,5.22 -1.73,5.65 -2.11,5.97 -2.50,6.29 -2.97,6.47 -3.44,6.65 -3.94,6.67 -4.45,6.69 -4.93,6.55 -5.41,6.41 -5.83,6.12 -6.24,5.83 -6.54,5.43 -6.84,5.02 -6.99,4.55 -7.15,4.07 -7.14,3.56 -7.14,3.06 -6.97,2.58 -6.80,2.11 -6.49,1.71 -6.18,1.32 -5.76,1.04 -5.34,0.76 -4.86,0.63 -4.37,0.50 -3.87,0.54 -3.36,0.57 -2.90,0.76 -2.43,0.96 -2.05,1.29 -1.68,1.62 -1.42,2.05 -1.17,2.49 -1.07,2.98 -0.96,3.47 -1.02,3.97 -1.08,4.47 -1.30,4.93 -1.52,5.38 -1.87,5.74 -2.22,6.10 -2.67,6.33 -3.12,6.56 -3.61,6.64 -4.11,6.71 -4.61,6.62 -5.10,6.54 -5.54,6.30 -5.99,6.05 -4.75,6.36 -3.51,6.66 -3.89,6.68 -4.26,6.71 -4.63,6.64 -5.00,6.57 -5.34,6.42 -5.68,6.26 -5.98,6.03 -6.27,5.80 -6.50,5.51 -6.73,5.21 -6.89,4.87 -7.04,4.53 -7.11,4.16 -7.18,3.79 -7.15,3.42 -7.13,3.04 -7.02,2.68 -6.91,2.32 -6.72,2.00 -6.52,1.68 -6.26,1.42 -5.99,1.15 -5.67,0.96 -5.35,0.76 -4.99,0.65 -4.63,0.54 -3.59,-0.37 -2.55,-1.29 -1.27,-1.48 -0.00,-1.66 1.13,-1.60 2.28,-1.53 3.64,-1.33 5.01,-1.13 6.26,-0.64 7.51,-0.15 8.70,0.82 9.90,1.80 10.56,3.11 11.22,4.42 11.39,5.74 11.55,7.07 11.41,8.28 11.26,9.48 10.96,10.61 10.67,11.74 10.11,13.00 9.56,14.26 8.81,15.20 8.05,16.14 7.07,16.99 6.09,17.85 4.77,18.40 3.46,18.96 1.29,18.71 -0.87,18.46 -1.95,17.89 -3.02,17.32 -3.96,16.28 -4.89,15.24 -5.30,13.99 -5.70,12.73 -5.72,11.56 -5.75,10.39 -5.63,9.08 -5.51,7.78 -5.23,6.34 -4.96,4.90 -4.40,3.39 -3.85,1.87 -3.04,0.30 -2.24,-1.26 -2.05,-1.51 -1.87,-1.76 -1.63,-1.95 -1.39,-2.15 -1.12,-2.29 -0.84,-2.43 -0.53,-2.49 -0.23,-2.56 0.07,-2.55 0.38,-2.54 0.68,-2.46 0.98,-2.37 1.25,-2.22 1.52,-2.07 1.74,-1.86 1.97,-1.64 2.14,-1.38 2.31,-1.12 2.41,-0.83 2.51,-0.54 2.54,-0.23 2.57,0.07 2.52,0.38 2.47,0.68 2.36,0.97 2.24,1.26 2.24,1.26 L 2.24,1.26 Z"/></g><g transform="translate(209.83335876464844 178.3437614440918) rotate(0 9.166656494140625 -13.666671752929688)" stroke="none"><path fill="#1e1e1e" d="M -1.01,-1.56 Q -1.01,-1.56 0.93,-2.75 2.89,-3.93 4.43,-5.08 5.98,-6.22 7.25,-7.39 8.53,-8.55 9.57,-9.83 10.61,-11.12 11.50,-12.49 12.38,-13.86 13.33,-16.37 14.29,-18.88 14.93,-21.01 15.57,-23.15 15.90,-24.98 16.23,-26.82 16.29,-28.24 16.35,-29.66 16.32,-30.72 16.29,-31.79 16.18,-30.69 16.06,-29.59 15.75,-28.40 15.44,-27.21 15.08,-25.76 14.72,-24.32 14.44,-22.73 14.16,-21.15 13.81,-19.44 13.46,-17.73 13.09,-15.97 12.71,-14.21 12.55,-12.52 12.38,-10.83 12.32,-9.25 12.26,-7.66 12.26,-6.23 12.26,-4.79 12.54,-3.65 12.82,-2.50 13.29,-1.44 13.76,-0.39 14.33,0.57 14.90,1.55 15.46,2.45 16.02,3.36 17.66,4.31 19.30,5.25 19.46,5.53 19.61,5.80 19.70,6.10 19.79,6.41 19.80,6.72 19.81,7.04 19.75,7.34 19.68,7.65 19.55,7.94 19.41,8.22 19.21,8.46 19.01,8.71 18.76,8.90 18.51,9.09 18.22,9.21 17.93,9.33 17.62,9.38 17.30,9.43 16.99,9.41 16.68,9.38 16.38,9.28 16.08,9.18 15.81,9.01 15.55,8.84 15.33,8.61 15.11,8.38 15.44,6.51 15.77,4.64 16.15,4.46 16.54,4.29 16.96,4.25 17.38,4.21 17.79,4.31 18.20,4.40 18.56,4.63 18.92,4.85 19.19,5.17 19.46,5.50 19.61,5.90 19.77,6.29 19.78,6.71 19.80,7.14 19.68,7.54 19.56,7.95 19.32,8.29 19.08,8.64 18.74,8.89 18.40,9.14 18.00,9.27 17.59,9.40 17.17,9.40 16.75,9.39 16.35,9.25 15.95,9.11 15.62,8.85 15.28,8.59 15.05,8.24 14.82,7.89 14.71,7.48 14.60,7.07 14.63,6.65 14.66,6.22 14.82,5.83 14.98,5.44 15.26,5.12 15.54,4.80 15.91,4.59 16.27,4.38 16.68,4.29 17.10,4.21 17.52,4.26 17.94,4.31 18.32,4.49 18.70,4.67 19.00,4.97 19.31,5.26 19.50,5.64 19.69,6.02 19.76,6.44 19.82,6.85 19.75,7.27 19.67,7.69 19.47,8.06 19.27,8.43 19.28,6.84 19.30,5.25 19.46,5.53 19.61,5.80 19.70,6.10 19.79,6.41 19.80,6.72 19.81,7.03 19.75,7.34 19.68,7.65 19.55,7.94 19.41,8.22 19.21,8.46 19.01,8.71 18.76,8.90 18.51,9.09 18.22,9.21 17.93,9.33 17.62,9.38 17.31,9.43 16.99,9.41 16.68,9.38 16.38,9.28 16.08,9.18 15.81,9.01 15.55,8.84 15.33,8.61 15.11,8.38 13.41,7.10 11.70,5.82 11.18,4.82 10.66,3.82 10.04,2.58 9.42,1.33 8.88,-0.13 8.35,-1.59 8.07,-3.22 7.80,-4.85 7.85,-6.33 7.90,-7.81 7.95,-9.49 8.01,-11.16 8.11,-13.08 8.21,-15.01 8.47,-16.78 8.73,-18.55 8.97,-20.20 9.20,-21.85 9.40,-23.65 9.59,-25.45 9.90,-27.01 10.20,-28.57 10.56,-29.95 10.91,-31.32 11.32,-32.42 11.72,-33.51 12.26,-34.53 12.81,-35.54 14.82,-36.32 16.82,-37.10 18.04,-36.17 19.26,-35.24 19.72,-33.42 20.17,-31.60 20.02,-30.45 19.86,-29.30 19.62,-27.76 19.38,-26.23 19.00,-24.27 18.62,-22.31 18.04,-20.02 17.46,-17.73 16.44,-14.80 15.42,-11.86 14.37,-10.35 13.33,-8.84 12.07,-7.40 10.82,-5.95 9.41,-4.75 8.01,-3.55 6.39,-2.30 4.77,-1.05 2.89,0.25 1.01,1.56 0.81,1.66 0.61,1.76 0.39,1.81 0.17,1.86 -0.05,1.85 -0.27,1.84 -0.49,1.78 -0.71,1.72 -0.90,1.61 -1.10,1.50 -1.26,1.35 -1.43,1.19 -1.55,1.01 -1.67,0.82 -1.75,0.60 -1.82,0.39 -1.84,0.17 -1.86,-0.05 -1.83,-0.27 -1.80,-0.49 -1.71,-0.70 -1.63,-0.91 -1.49,-1.09 -1.36,-1.27 -1.19,-1.42 -1.01,-1.56 -1.01,-1.56 L -1.01,-1.56 Z"/></g><g transform="translate(276.1666717529297 146.23438835144043) rotate(0 -13.5 10.666656494140625)" stroke="none"><path fill="#1e1e1e" d="M 0.17,2.49 Q 0.17,2.49 -1.15,2.59 -2.48,2.70 -4.00,3.40 -5.52,4.10 -7.40,5.19 -9.29,6.28 -10.45,6.97 -11.61,7.65 -12.78,8.32 -13.95,8.99 -15.11,9.66 -16.28,10.32 -17.31,10.97 -18.33,11.62 -19.41,12.23 -20.49,12.85 -21.75,13.60 -23.00,14.34 -21.05,15.19 -19.10,16.04 -17.58,16.40 -16.06,16.77 -14.30,17.18 -12.54,17.58 -10.89,17.85 -9.23,18.11 -7.74,18.30 -6.25,18.48 -5.09,18.61 -3.94,18.75 -3.84,17.89 -3.74,17.04 -3.66,16.61 -3.58,16.17 -3.36,15.78 -3.15,15.40 -2.82,15.10 -2.49,14.80 -2.08,14.63 -1.68,14.45 -1.23,14.41 -0.79,14.37 -0.36,14.48 0.06,14.59 0.43,14.82 0.81,15.06 1.09,15.41 1.36,15.75 1.52,16.17 1.67,16.58 1.69,17.02 1.70,17.47 1.57,17.89 1.44,18.32 1.19,18.68 0.93,19.04 0.57,19.30 0.21,19.56 -0.20,19.69 -0.63,19.82 -1.07,19.81 -1.51,19.80 -1.93,19.65 -2.35,19.50 -2.69,19.22 -3.04,18.94 -3.28,18.57 -3.52,18.20 -3.63,17.77 -3.74,17.34 -3.70,16.90 -3.67,16.45 -3.49,16.05 -3.32,15.64 -3.02,15.31 -2.73,14.98 -2.34,14.76 -1.96,14.54 -1.52,14.45 -1.09,14.37 -0.65,14.43 -0.21,14.48 0.18,14.68 0.58,14.88 0.89,15.19 1.20,15.50 1.40,15.90 1.60,16.29 1.66,16.73 1.72,17.17 1.72,17.17 1.72,17.17 1.11,19.93 0.49,22.68 -0.47,23.18 -1.45,23.68 -3.07,23.53 -4.68,23.38 -5.76,23.15 -6.84,22.92 -8.34,22.71 -9.85,22.49 -11.63,22.27 -13.41,22.05 -15.23,21.77 -17.05,21.48 -19.00,21.12 -20.94,20.77 -22.71,20.14 -24.47,19.51 -26.50,18.19 -28.53,16.87 -28.77,15.33 -29.02,13.79 -28.35,12.58 -27.68,11.38 -26.75,10.64 -25.81,9.90 -24.47,9.01 -23.12,8.12 -22.14,7.59 -21.17,7.07 -20.06,6.38 -18.94,5.69 -17.79,5.02 -16.64,4.35 -15.50,3.69 -14.37,3.02 -13.26,2.36 -12.16,1.70 -10.95,0.95 -9.74,0.21 -8.74,-0.24 -7.74,-0.70 -6.65,-1.16 -5.55,-1.61 -4.21,-1.96 -2.87,-2.31 -1.52,-2.40 -0.17,-2.49 0.12,-2.48 0.42,-2.46 0.71,-2.37 1.00,-2.29 1.26,-2.13 1.52,-1.98 1.73,-1.77 1.95,-1.56 2.11,-1.30 2.27,-1.05 2.36,-0.76 2.45,-0.47 2.47,-0.17 2.49,0.12 2.44,0.42 2.39,0.71 2.27,0.99 2.15,1.27 1.97,1.51 1.78,1.75 1.55,1.93 1.31,2.12 1.04,2.25 0.77,2.38 0.47,2.43 0.17,2.49 0.17,2.49 L 0.17,2.49 Z"/></g><g transform="translate(276.1666717529297 146.56770133972168) rotate(0 -5.166656494140625 15.666671752929688)" stroke="none"><path fill="#1e1e1e" d="M 2.11,0.77 Q 2.11,0.77 1.37,2.57 0.63,4.36 0.06,5.91 -0.50,7.45 -1.14,9.01 -1.78,10.56 -2.31,12.03 -2.84,13.50 -3.47,15.05 -4.10,16.59 -4.64,18.12 -5.17,19.66 -5.68,21.13 -6.19,22.59 -6.68,23.92 -7.16,25.25 -7.44,27.08 -7.71,28.91 -7.14,28.79 -6.56,28.67 -6.17,28.83 -5.78,28.99 -5.45,29.26 -5.13,29.54 -4.92,29.90 -4.70,30.26 -4.61,30.68 -4.52,31.09 -4.57,31.51 -4.61,31.93 -4.79,32.31 -4.97,32.70 -5.26,33.00 -5.55,33.31 -5.93,33.51 -6.30,33.70 -6.72,33.77 -7.14,33.84 -7.55,33.77 -7.97,33.70 -8.34,33.50 -8.72,33.30 -9.01,32.99 -9.30,32.69 -9.47,32.30 -9.65,31.92 -9.70,31.50 -9.74,31.08 -9.65,30.66 -9.56,30.25 -9.34,29.89 -9.12,29.53 -8.79,29.25 -8.47,28.98 -8.08,28.82 -7.68,28.67 -7.26,28.65 -6.84,28.63 -6.43,28.74 -6.03,28.85 -5.68,29.09 -5.33,29.33 -5.07,29.67 -4.82,30.01 -4.68,30.41 -4.55,30.81 -4.55,31.23 -4.55,31.65 -4.69,32.05 -4.82,32.46 -5.08,32.79 -5.34,33.13 -5.69,33.36 -6.04,33.60 -6.45,33.71 -6.85,33.82 -7.28,33.80 -7.70,33.78 -7.70,33.78 -7.70,33.78 -10.05,32.16 -12.40,30.55 -12.47,29.40 -12.55,28.26 -12.33,27.15 -12.12,26.05 -11.72,24.83 -11.32,23.61 -10.79,22.37 -10.26,21.12 -9.72,19.70 -9.19,18.27 -8.63,16.62 -8.06,14.96 -7.45,13.49 -6.85,12.03 -6.27,10.49 -5.69,8.94 -5.08,7.46 -4.46,5.98 -3.89,4.45 -3.31,2.91 -2.71,1.06 -2.11,-0.77 -1.98,-1.02 -1.86,-1.26 -1.68,-1.46 -1.50,-1.67 -1.28,-1.82 -1.06,-1.98 -0.81,-2.08 -0.55,-2.18 -0.29,-2.21 -0.02,-2.25 0.24,-2.22 0.51,-2.19 0.77,-2.09 1.02,-2.00 1.25,-1.85 1.47,-1.69 1.65,-1.49 1.84,-1.29 1.96,-1.05 2.09,-0.81 2.16,-0.55 2.23,-0.29 2.23,-0.02 2.23,0.25 2.17,0.51 2.11,0.77 2.11,0.77 L 2.11,0.77 Z"/></g><g transform="translate(303.5000457763672 154.23438835144043) rotate(0 -12.5 15.166656494140625)" stroke="none"><path fill="#1e1e1e" d="M -0.59,2.51 Q -0.59,2.51 -2.18,2.07 -3.78,1.64 -5.42,2.19 -7.07,2.73 -8.59,3.91 -10.11,5.08 -11.02,6.24 -11.93,7.39 -12.24,8.52 -12.54,9.65 -12.58,10.85 -12.62,12.05 -11.96,12.93 -11.29,13.80 -10.40,14.44 -9.51,15.08 -8.21,16.18 -6.91,17.28 -5.96,19.19 -5.01,21.10 -5.03,22.26 -5.05,23.43 -5.66,24.76 -6.27,26.10 -7.16,27.04 -8.04,27.99 -9.15,28.76 -10.26,29.52 -11.22,30.13 -12.17,30.74 -14.04,31.54 -15.91,32.35 -17.28,32.91 -18.65,33.47 -19.66,33.85 -20.67,34.23 -22.30,34.52 -23.93,34.81 -25.24,34.15 -26.56,33.50 -27.00,30.43 -27.45,27.37 -27.29,26.90 -27.14,26.43 -26.84,26.03 -26.54,25.63 -26.12,25.35 -25.71,25.07 -25.23,24.94 -24.75,24.80 -24.26,24.83 -23.76,24.86 -23.30,25.04 -22.83,25.22 -22.45,25.54 -22.07,25.87 -21.82,26.29 -21.56,26.72 -21.45,27.20 -21.34,27.69 -21.40,28.18 -21.45,28.68 -21.66,29.13 -21.86,29.58 -22.21,29.95 -22.55,30.31 -22.99,30.54 -23.43,30.78 -23.92,30.86 -24.41,30.94 -24.90,30.86 -25.39,30.78 -25.83,30.55 -26.27,30.32 -26.62,29.95 -26.96,29.59 -27.17,29.14 -27.38,28.69 -27.43,28.20 -27.49,27.70 -27.38,27.21 -27.28,26.73 -27.02,26.30 -26.76,25.87 -26.39,25.55 -26.01,25.23 -25.54,25.04 -25.08,24.86 -24.58,24.83 -24.09,24.80 -23.61,24.93 -23.13,25.07 -22.72,25.35 -22.30,25.62 -22.00,26.02 -21.70,26.42 -21.54,26.89 -21.38,27.36 -21.38,27.86 -21.38,28.35 -21.38,28.35 -21.38,28.35 -22.48,28.63 -23.58,28.91 -22.24,28.57 -20.91,28.23 -19.73,27.70 -18.56,27.16 -17.14,26.28 -15.72,25.40 -14.80,24.76 -13.88,24.12 -12.59,23.03 -11.30,21.94 -12.17,21.13 -13.03,20.31 -14.60,18.98 -16.17,17.65 -17.18,15.85 -18.19,14.05 -18.39,12.92 -18.58,11.79 -18.34,9.91 -18.11,8.04 -17.34,6.19 -16.57,4.34 -15.82,3.34 -15.08,2.35 -14.26,1.64 -13.43,0.94 -12.47,0.21 -11.50,-0.50 -10.23,-1.26 -8.96,-2.02 -7.51,-2.52 -6.06,-3.01 -4.39,-3.09 -2.73,-3.18 -1.07,-2.84 0.59,-2.51 0.88,-2.40 1.17,-2.29 1.43,-2.12 1.69,-1.94 1.89,-1.71 2.10,-1.48 2.25,-1.21 2.40,-0.94 2.47,-0.63 2.55,-0.33 2.56,-0.02 2.56,0.28 2.49,0.58 2.42,0.88 2.27,1.16 2.13,1.44 1.93,1.67 1.73,1.91 1.47,2.09 1.22,2.27 0.93,2.38 0.64,2.49 0.33,2.53 0.02,2.57 -0.28,2.54 -0.59,2.51 -0.59,2.51 L -0.59,2.51 Z"/></g><g transform="translate(318.1666717529297 152.23438835144043) rotate(0 -5.33331298828125 21.5)" stroke="none"><path fill="#1e1e1e" d="M 1.30,1.30 Q 1.30,1.30 0.06,2.54 -1.16,3.79 -1.93,5.12 -2.70,6.45 -3.95,9.40 -5.20,12.35 -6.26,14.99 -7.32,17.62 -8.16,19.96 -9.01,22.31 -9.66,24.51 -10.31,26.72 -10.66,28.67 -11.01,30.61 -11.09,32.27 -11.18,33.93 -10.98,35.26 -10.79,36.59 -9.31,38.15 -7.83,39.72 -5.76,40.11 -3.69,40.49 -2.62,40.36 -1.54,40.22 -0.39,39.19 0.76,38.15 1.11,36.83 1.46,35.50 0.73,34.46 -0.00,33.42 -1.79,32.79 -3.57,32.17 -4.91,31.82 -6.25,31.47 -7.34,31.36 -8.44,31.24 -9.56,31.20 -10.68,31.15 -12.64,31.14 -14.59,31.12 -15.04,31.04 -15.48,30.96 -15.88,30.75 -16.27,30.53 -16.58,30.20 -16.88,29.86 -17.06,29.45 -17.25,29.04 -17.29,28.59 -17.33,28.14 -17.23,27.70 -17.12,27.26 -16.88,26.88 -16.65,26.50 -16.30,26.21 -15.95,25.92 -15.53,25.76 -15.11,25.60 -14.66,25.59 -14.21,25.57 -13.77,25.70 -13.34,25.82 -12.97,26.08 -12.60,26.34 -12.33,26.70 -12.07,27.07 -11.93,27.50 -11.79,27.93 -11.80,28.38 -11.81,28.83 -11.96,29.25 -12.11,29.68 -12.39,30.03 -12.66,30.39 -13.04,30.64 -13.42,30.88 -13.85,31.00 -14.29,31.11 -14.74,31.08 -15.19,31.05 -15.61,30.87 -16.02,30.70 -16.36,30.40 -16.70,30.11 -16.93,29.72 -17.16,29.33 -17.25,28.88 -17.34,28.44 -17.28,27.99 -17.22,27.55 -17.03,27.14 -16.83,26.73 -16.52,26.41 -16.20,26.09 -15.80,25.88 -15.40,25.68 -14.95,25.61 -14.51,25.55 -14.51,25.55 -14.51,25.55 -12.46,25.62 -10.41,25.69 -9.12,25.76 -7.83,25.83 -6.40,26.01 -4.98,26.18 -3.55,26.50 -2.11,26.82 -0.61,27.25 0.88,27.68 2.23,28.42 3.59,29.16 4.64,30.22 5.70,31.28 6.25,32.81 6.81,34.35 6.67,35.51 6.54,36.67 6.15,37.95 5.76,39.23 5.02,40.38 4.27,41.53 3.13,42.53 1.98,43.54 0.43,44.13 -1.11,44.73 -2.74,44.79 -4.36,44.84 -5.98,44.52 -7.60,44.19 -9.07,43.43 -10.55,42.67 -11.74,41.39 -12.93,40.11 -13.58,38.54 -14.24,36.98 -14.30,35.31 -14.35,33.65 -14.13,31.87 -13.90,30.09 -13.52,28.01 -13.15,25.93 -12.53,23.62 -11.91,21.31 -11.13,18.89 -10.35,16.48 -9.39,13.77 -8.42,11.07 -7.17,7.77 -5.92,4.48 -4.87,2.83 -3.81,1.18 -2.55,-0.05 -1.30,-1.30 -1.12,-1.43 -0.95,-1.57 -0.74,-1.66 -0.54,-1.75 -0.32,-1.79 -0.11,-1.83 0.11,-1.82 0.33,-1.80 0.54,-1.74 0.75,-1.67 0.94,-1.56 1.13,-1.44 1.29,-1.29 1.44,-1.13 1.56,-0.94 1.67,-0.75 1.74,-0.54 1.80,-0.33 1.82,-0.11 1.83,0.11 1.79,0.32 1.75,0.54 1.66,0.74 1.57,0.95 1.43,1.12 1.30,1.30 1.30,1.30 L 1.30,1.30 Z"/></g></svg>