<svg version="1.1" xmlns="http://www.w3.org/2000/svg" viewBox="0 0 134.66665649414062 256.6666564941406" width="134.66665649414062" height="256.6666564941406">
  <!-- svg-source:excalidraw -->
  
  <defs>
    <style class="style-fonts">
      @font-face {
        font-family: "Virgil";
        src: url("https://excalidraw.com/Virgil.woff2");
      }
      @font-face {
        font-family: "Cascadia";
        src: url("https://excalidraw.com/Cascadia.woff2");
      }
    </style>
    
  </defs>
  <rect x="0" y="0" width="134.66665649414062" height="256.6666564941406" fill="#ffffff"/><g transform="translate(10 10) rotate(0 57.33332824707031 118.33332824707031)" stroke="none"><path fill="#1e1e1e" d="M 1.58,-0.12 Q 1.58,-0.12 1.73,2.37 1.89,4.86 2.01,6.71 2.13,8.56 2.50,11.17 2.87,13.78 3.59,17.59 4.32,21.39 5.19,25.69 6.06,30.00 7.38,35.06 8.69,40.12 10.59,46.28 12.48,52.44 15.20,60.62 17.91,68.80 22.30,78.93 26.70,89.07 32.01,100.08 37.32,111.10 42.65,121.92 47.97,132.74 53.87,144.04 59.77,155.33 65.53,165.48 71.28,175.64 76.22,183.78 81.15,191.92 85.16,198.25 89.17,204.58 92.77,209.54 96.37,214.50 99.60,218.31 102.84,222.12 105.55,225.08 108.26,228.04 110.18,230.06 112.10,232.09 113.62,233.51 115.13,234.94 115.27,235.15 115.41,235.35 115.48,235.59 115.55,235.83 115.53,236.07 115.52,236.32 115.43,236.55 115.34,236.78 115.18,236.97 115.02,237.16 114.81,237.29 114.60,237.42 114.36,237.47 114.12,237.53 113.87,237.50 113.63,237.47 113.40,237.37 113.18,237.27 112.99,237.10 112.81,236.93 112.70,236.71 112.58,236.49 112.54,236.25 112.50,236.01 112.54,235.76 112.58,235.52 112.69,235.30 112.80,235.08 112.98,234.91 113.16,234.74 113.39,234.63 113.61,234.53 113.86,234.50 114.10,234.47 114.34,234.52 114.59,234.58 114.80,234.70 115.01,234.83 115.17,235.02 115.33,235.20 115.43,235.43 115.52,235.66 115.53,235.91 115.55,236.16 115.48,236.39 115.42,236.63 115.28,236.84 115.14,237.04 114.95,237.20 114.75,237.35 114.52,237.43 114.28,237.51 114.03,237.51 113.79,237.51 113.55,237.43 113.32,237.35 113.12,237.20 112.92,237.06 112.92,237.06 112.92,237.06 111.56,235.48 110.19,233.90 108.26,231.86 106.32,229.82 103.58,226.82 100.83,223.82 97.54,219.94 94.24,216.05 90.59,211.02 86.94,205.99 82.92,199.64 78.89,193.29 73.94,185.11 68.98,176.94 63.20,166.75 57.42,156.56 51.51,145.24 45.59,133.91 40.25,123.09 34.92,112.26 29.57,101.20 24.23,90.13 19.79,79.89 15.34,69.65 12.60,61.45 9.86,53.25 7.93,47.04 6.00,40.82 4.64,35.70 3.28,30.58 2.37,26.27 1.45,21.95 0.66,18.10 -0.11,14.25 -0.57,11.47 -1.04,8.70 -1.08,6.90 -1.12,5.09 -1.35,2.61 -1.58,0.12 -1.57,-0.06 -1.56,-0.26 -1.51,-0.44 -1.45,-0.62 -1.36,-0.79 -1.26,-0.95 -1.13,-1.09 -1.00,-1.23 -0.83,-1.33 -0.67,-1.43 -0.49,-1.49 -0.31,-1.55 -0.12,-1.57 0.07,-1.58 0.25,-1.55 0.44,-1.52 0.62,-1.44 0.80,-1.37 0.95,-1.25 1.10,-1.14 1.22,-0.99 1.34,-0.84 1.42,-0.67 1.50,-0.49 1.54,-0.30 1.58,-0.12 1.58,-0.12 L 1.58,-0.12 Z"/></g></svg>