<svg version="1.1" xmlns="http://www.w3.org/2000/svg" viewBox="0 0 484.0000305175781 180.66665649414062" width="484.0000305175781" height="180.66665649414062">
  <!-- svg-source:excalidraw -->
  
  <defs>
    <style class="style-fonts">
      @font-face {
        font-family: "Virgil";
        src: url("https://excalidraw.com/Virgil.woff2");
      }
      @font-face {
        font-family: "Cascadia";
        src: url("https://excalidraw.com/Cascadia.woff2");
      }
    </style>
    
  </defs>
  <rect x="0" y="0" width="484.0000305175781" height="180.66665649414062" fill="#ffffff"/><g transform="translate(153.33334350585938 40.666656494140625) rotate(0 -17.333343505859375 25.333343505859375)" stroke="none"><path fill="#1e1e1e" d="M -2.20,1.25 Q -2.20,1.25 -2.89,-0.04 -3.59,-1.34 -4.87,-1.86 -6.15,-2.38 -7.21,-2.40 -8.28,-2.43 -10.56,-2.47 -12.84,-2.51 -14.13,-2.53 -15.42,-2.54 -16.54,-2.38 -17.65,-2.22 -19.64,-1.66 -21.63,-1.11 -22.18,0.57 -22.74,2.26 -23.65,5.69 -24.56,9.12 -25.38,11.28 -26.19,13.44 -26.97,15.66 -27.75,17.88 -28.68,21.27 -29.62,24.66 -30.24,27.24 -30.85,29.81 -31.33,32.04 -31.80,34.28 -32.20,37.48 -32.60,40.68 -32.79,42.80 -32.97,44.92 -32.97,46.58 -32.97,48.24 -32.90,49.52 -32.83,50.80 -32.61,52.08 -32.39,53.37 -31.26,53.35 -30.12,53.32 -27.76,53.37 -25.40,53.41 -24.06,53.42 -22.72,53.44 -20.64,52.72 -18.56,52.01 -17.07,51.33 -15.57,50.65 -14.62,50.00 -13.66,49.34 -13.19,48.41 -12.71,47.48 -12.40,47.13 -12.08,46.77 -11.67,46.54 -11.26,46.30 -10.80,46.21 -10.33,46.12 -9.86,46.18 -9.39,46.24 -8.97,46.45 -8.54,46.66 -8.21,46.99 -7.87,47.32 -7.66,47.74 -7.44,48.17 -7.38,48.64 -7.31,49.10 -7.40,49.57 -7.48,50.03 -7.71,50.45 -7.94,50.86 -8.29,51.18 -8.64,51.50 -9.08,51.69 -9.51,51.88 -9.98,51.92 -10.45,51.96 -10.91,51.85 -11.37,51.74 -11.77,51.48 -12.17,51.23 -12.47,50.86 -12.77,50.50 -12.94,50.05 -13.10,49.61 -13.12,49.14 -13.14,48.67 -13.00,48.21 -12.86,47.76 -12.59,47.37 -12.32,46.99 -11.93,46.71 -11.55,46.43 -11.10,46.29 -10.65,46.15 -10.17,46.16 -9.70,46.17 -9.26,46.33 -8.81,46.49 -8.44,46.78 -8.07,47.08 -7.81,47.47 -7.56,47.87 -7.44,48.33 -7.32,48.79 -7.36,49.26 -7.39,49.73 -7.58,50.17 -7.76,50.60 -7.76,50.60 -7.76,50.60 -9.83,52.73 -11.91,54.86 -13.50,55.60 -15.09,56.34 -16.12,56.68 -17.16,57.02 -18.36,57.35 -19.57,57.68 -21.12,58.10 -22.67,58.52 -24.08,58.51 -25.49,58.50 -26.97,58.49 -28.45,58.47 -29.71,58.36 -30.96,58.25 -32.81,57.47 -34.66,56.68 -35.41,55.83 -36.15,54.98 -36.28,52.85 -36.41,50.72 -36.28,49.41 -36.16,48.11 -36.02,46.41 -35.88,44.71 -35.75,42.52 -35.61,40.33 -35.27,37.01 -34.93,33.69 -34.55,31.40 -34.16,29.11 -33.67,26.45 -33.18,23.78 -32.41,20.27 -31.63,16.75 -31.09,14.45 -30.56,12.15 -30.08,9.98 -29.61,7.82 -29.24,5.62 -28.87,3.43 -28.74,2.06 -28.60,0.68 -28.22,-0.80 -27.84,-2.30 -26.73,-3.72 -25.62,-5.14 -24.43,-5.80 -23.24,-6.46 -22.10,-6.77 -20.96,-7.09 -19.70,-7.38 -18.44,-7.66 -16.92,-7.88 -15.40,-8.10 -14.09,-8.10 -12.78,-8.10 -11.51,-8.09 -10.23,-8.08 -9.01,-8.04 -7.78,-7.99 -6.69,-7.84 -5.60,-7.70 -3.78,-6.84 -1.96,-5.98 -0.71,-5.00 0.53,-4.01 1.36,-2.63 2.20,-1.25 2.31,-0.97 2.43,-0.69 2.48,-0.39 2.53,-0.09 2.50,0.21 2.48,0.51 2.38,0.80 2.28,1.09 2.12,1.35 1.95,1.61 1.73,1.82 1.51,2.03 1.24,2.18 0.98,2.33 0.68,2.42 0.39,2.50 0.08,2.51 -0.21,2.52 -0.51,2.46 -0.81,2.40 -1.08,2.26 -1.36,2.13 -1.60,1.94 -1.83,1.74 -2.01,1.50 -2.20,1.25 -2.20,1.25 L -2.20,1.25 Z"/></g><g transform="translate(176.00003051757812 47.333343505859375) rotate(0 -5.3333740234375 14.666656494140625)" stroke="none"><path fill="#1e1e1e" d="M 2.16,0.46 Q 2.16,0.46 1.47,3.12 0.78,5.78 0.29,7.69 -0.18,9.61 -1.00,11.38 -1.82,13.16 -2.51,14.75 -3.20,16.35 -4.12,17.93 -5.04,19.50 -6.00,20.95 -6.97,22.39 -7.71,23.58 -8.45,24.77 -9.17,25.77 -9.90,26.76 -10.70,27.53 -11.51,28.31 -13.31,28.85 -15.11,29.39 -16.48,27.90 -17.85,26.41 -17.89,24.89 -17.93,23.36 -17.73,21.81 -17.53,20.25 -16.98,18.90 -16.43,17.56 -15.69,15.85 -14.95,14.14 -14.15,13.05 -13.36,11.95 -11.82,10.96 -10.27,9.96 -8.96,9.77 -7.64,9.58 -5.66,10.21 -3.68,10.83 -2.52,12.35 -1.37,13.87 -0.70,15.42 -0.03,16.96 0.39,18.13 0.82,19.30 1.21,20.38 1.59,21.47 1.82,22.75 2.05,24.03 2.27,25.14 2.50,26.26 3.45,26.26 4.41,26.26 4.89,26.38 5.37,26.49 5.78,26.75 6.20,27.01 6.51,27.39 6.82,27.77 7.00,28.23 7.17,28.69 7.19,29.19 7.21,29.68 7.07,30.15 6.93,30.62 6.64,31.02 6.36,31.42 5.96,31.71 5.57,32.00 5.10,32.15 4.63,32.30 4.14,32.29 3.65,32.28 3.18,32.12 2.72,31.95 2.33,31.65 1.95,31.34 1.68,30.93 1.41,30.52 1.29,30.05 1.16,29.57 1.20,29.08 1.24,28.59 1.43,28.14 1.62,27.68 1.94,27.31 2.27,26.94 2.69,26.70 3.12,26.45 3.60,26.35 4.08,26.26 4.57,26.32 5.06,26.38 5.50,26.60 5.94,26.81 6.29,27.15 6.64,27.50 6.87,27.94 7.09,28.38 7.16,28.86 7.23,29.35 7.14,29.83 7.05,30.32 6.81,30.75 6.58,31.18 6.21,31.51 5.85,31.84 5.40,32.04 4.95,32.24 4.46,32.28 3.97,32.33 3.97,32.33 3.97,32.33 0.84,31.04 -2.28,29.75 -2.77,28.64 -3.26,27.52 -3.64,25.48 -4.02,23.44 -4.37,22.43 -4.73,21.43 -5.55,19.45 -6.37,17.48 -7.66,16.66 -8.96,15.84 -9.82,16.81 -10.69,17.79 -11.50,19.41 -12.32,21.03 -12.48,22.14 -12.63,23.25 -13.54,23.97 -14.45,24.68 -13.17,23.56 -11.88,22.45 -11.05,21.31 -10.22,20.17 -9.29,18.84 -8.36,17.51 -7.53,16.17 -6.70,14.83 -5.98,13.17 -5.25,11.50 -4.55,10.13 -3.85,8.75 -3.46,6.85 -3.08,4.95 -2.62,2.24 -2.16,-0.46 -2.07,-0.71 -1.98,-0.96 -1.84,-1.19 -1.69,-1.41 -1.50,-1.59 -1.31,-1.78 -1.07,-1.91 -0.84,-2.04 -0.59,-2.11 -0.33,-2.18 -0.06,-2.19 0.19,-2.20 0.46,-2.14 0.72,-2.09 0.96,-1.97 1.20,-1.85 1.40,-1.68 1.60,-1.51 1.76,-1.30 1.92,-1.08 2.02,-0.84 2.13,-0.59 2.17,-0.33 2.21,-0.06 2.18,0.19 2.16,0.46 2.16,0.46 L 2.16,0.46 Z"/></g><g transform="translate(194.66665649414062 62.666656494140625) rotate(0 0.3333740234375 8)" stroke="none"><path fill="#1e1e1e" d="M 2.32,0.16 Q 2.32,0.16 2.00,2.83 1.67,5.51 1.55,7.38 1.42,9.26 1.44,10.63 1.46,12.00 1.66,12.93 1.85,13.86 2.15,14.06 2.44,14.25 2.65,14.52 2.87,14.80 2.98,15.13 3.10,15.46 3.10,15.81 3.11,16.16 3.00,16.49 2.89,16.82 2.68,17.11 2.47,17.39 2.19,17.59 1.90,17.78 1.56,17.88 1.23,17.98 0.88,17.96 0.53,17.95 0.20,17.82 -0.11,17.70 -0.38,17.47 -0.65,17.25 -0.84,16.95 -1.02,16.66 -1.10,16.31 -1.18,15.97 -1.14,15.63 -1.11,15.28 -0.97,14.96 -0.82,14.64 -0.59,14.38 -0.35,14.13 -0.04,13.96 0.26,13.79 0.60,13.73 0.95,13.67 1.29,13.73 1.64,13.78 1.95,13.94 2.26,14.10 2.50,14.35 2.74,14.60 2.89,14.92 3.04,15.23 3.09,15.58 3.13,15.93 3.06,16.27 2.98,16.61 2.81,16.91 2.63,17.21 2.37,17.44 2.10,17.67 1.78,17.81 1.46,17.94 1.11,17.96 0.76,17.98 0.42,17.89 0.08,17.80 0.08,17.80 0.08,17.80 -1.30,14.85 -2.69,11.89 -2.60,10.49 -2.51,9.09 -2.48,7.15 -2.44,5.21 -2.38,2.52 -2.32,-0.16 -2.27,-0.44 -2.21,-0.71 -2.10,-0.97 -1.98,-1.22 -1.80,-1.44 -1.63,-1.66 -1.40,-1.83 -1.18,-2.00 -0.92,-2.12 -0.66,-2.23 -0.39,-2.28 -0.11,-2.32 0.16,-2.30 0.44,-2.28 0.71,-2.20 0.98,-2.11 1.21,-1.96 1.45,-1.81 1.65,-1.61 1.85,-1.41 1.99,-1.17 2.13,-0.93 2.21,-0.66 2.29,-0.39 2.31,-0.11 2.32,0.16 2.32,0.16 L 2.32,0.16 Z"/></g><g transform="translate(236.00003051757812 46) rotate(0 -7.3333740234375 16.333328247070312)" stroke="none"><path fill="#1e1e1e" d="M 1.80,0.67 Q 1.80,0.67 1.24,2.21 0.69,3.75 0.27,5.44 -0.14,7.12 -0.77,9.07 -1.40,11.02 -2.08,12.98 -2.76,14.95 -3.67,17.15 -4.58,19.36 -5.57,21.29 -6.57,23.23 -7.56,25.02 -8.55,26.81 -9.54,28.26 -10.53,29.70 -11.70,31.24 -12.87,32.78 -14.61,32.50 -16.35,32.21 -16.99,30.47 -17.62,28.74 -17.76,26.76 -17.89,24.78 -17.72,23.53 -17.54,22.29 -16.95,20.46 -16.35,18.63 -15.44,17.28 -14.53,15.93 -13.45,15.34 -12.36,14.75 -10.49,14.86 -8.61,14.96 -7.68,15.65 -6.75,16.34 -5.98,17.51 -5.21,18.69 -4.42,20.14 -3.63,21.59 -2.98,22.94 -2.33,24.29 -1.26,25.82 -0.20,27.36 1.16,28.84 2.52,30.32 2.78,30.72 3.04,31.12 3.16,31.59 3.27,32.05 3.24,32.52 3.20,33.00 3.01,33.44 2.83,33.88 2.51,34.24 2.19,34.59 1.78,34.83 1.36,35.07 0.90,35.16 0.43,35.25 -0.04,35.19 -0.51,35.12 -0.94,34.91 -1.37,34.70 -1.70,34.37 -2.04,34.03 -2.26,33.61 -2.47,33.18 -2.54,32.71 -2.60,32.23 -2.52,31.76 -2.43,31.30 -2.19,30.88 -1.96,30.46 -1.61,30.14 -1.25,29.82 -0.82,29.63 -0.38,29.44 0.09,29.40 0.56,29.36 1.03,29.47 1.49,29.59 1.89,29.84 2.30,30.10 2.60,30.47 2.90,30.84 3.06,31.29 3.23,31.73 3.25,32.21 3.26,32.69 3.12,33.14 2.98,33.60 2.71,33.99 2.43,34.38 2.04,34.66 1.66,34.94 1.20,35.08 0.75,35.22 0.27,35.21 -0.20,35.20 -0.65,35.04 -1.10,34.88 -1.47,34.58 -1.84,34.28 -1.84,34.28 -1.84,34.28 -3.89,31.64 -5.93,29.00 -6.67,27.90 -7.42,26.81 -7.95,25.76 -8.49,24.70 -9.85,22.77 -11.21,20.83 -11.77,22.06 -12.33,23.28 -12.56,24.95 -12.78,26.61 -12.84,28.07 -12.90,29.54 -14.01,29.62 -15.12,29.69 -14.16,28.70 -13.20,27.71 -12.22,26.51 -11.24,25.32 -10.29,23.59 -9.33,21.86 -8.46,20.03 -7.59,18.20 -6.82,16.05 -6.05,13.90 -5.48,11.94 -4.91,9.98 -4.40,8.09 -3.89,6.21 -3.44,4.29 -2.99,2.37 -2.39,0.85 -1.80,-0.67 -1.69,-0.88 -1.58,-1.08 -1.43,-1.26 -1.28,-1.43 -1.09,-1.56 -0.89,-1.69 -0.68,-1.78 -0.46,-1.86 -0.23,-1.89 -0.00,-1.92 0.22,-1.89 0.45,-1.86 0.67,-1.78 0.88,-1.70 1.07,-1.57 1.26,-1.44 1.42,-1.27 1.57,-1.09 1.68,-0.89 1.79,-0.68 1.85,-0.46 1.90,-0.23 1.90,-0.00 1.90,0.22 1.85,0.45 1.80,0.67 1.80,0.67 L 1.80,0.67 Z"/></g><g transform="translate(247.33334350585938 68) rotate(0 7.333343505859375 7.3333282470703125)" stroke="none"><path fill="#1e1e1e" d="M -0.72,-2.54 Q -0.72,-2.54 0.63,-2.91 1.99,-3.29 3.34,-3.34 4.68,-3.39 5.83,-3.15 6.98,-2.91 8.05,-2.18 9.11,-1.46 10.18,0.40 11.24,2.28 11.39,3.39 11.53,4.51 11.36,5.82 11.20,7.12 10.91,8.24 10.62,9.35 10.02,10.62 9.41,11.89 8.69,12.91 7.97,13.93 7.16,15.20 6.35,16.46 5.63,15.25 4.91,14.03 6.22,13.71 7.52,13.39 8.76,13.24 10.01,13.10 11.17,12.36 12.33,11.63 12.81,11.40 13.28,11.17 13.81,11.10 14.34,11.04 14.85,11.14 15.37,11.25 15.83,11.51 16.29,11.77 16.64,12.17 16.99,12.57 17.20,13.06 17.40,13.55 17.44,14.07 17.48,14.60 17.35,15.12 17.21,15.63 16.92,16.07 16.63,16.52 16.22,16.84 15.80,17.17 15.30,17.35 14.81,17.53 14.28,17.54 13.75,17.55 13.24,17.39 12.74,17.23 12.31,16.92 11.88,16.60 11.58,16.17 11.27,15.74 11.12,15.23 10.97,14.72 10.99,14.19 11.01,13.66 11.19,13.17 11.38,12.67 11.72,12.26 12.05,11.85 12.50,11.57 12.95,11.29 13.47,11.17 13.98,11.04 14.51,11.09 15.04,11.14 15.52,11.35 16.01,11.57 16.40,11.92 16.79,12.28 17.04,12.74 17.30,13.21 17.40,13.73 17.49,14.25 17.41,14.77 17.34,15.30 17.10,15.77 16.86,16.24 16.48,16.61 16.10,16.98 16.10,16.98 16.10,16.98 13.73,18.21 11.35,19.45 9.33,19.65 7.31,19.85 5.48,19.69 3.65,19.53 2.64,18.87 1.62,18.22 1.53,15.47 1.43,12.72 2.27,11.53 3.11,10.35 3.95,9.06 4.80,7.77 5.19,6.38 5.57,4.99 5.45,3.86 5.32,2.74 4.34,2.25 3.36,1.76 2.04,2.15 0.72,2.54 0.41,2.59 0.09,2.64 -0.22,2.61 -0.53,2.59 -0.84,2.48 -1.14,2.38 -1.41,2.21 -1.68,2.04 -1.90,1.81 -2.12,1.58 -2.27,1.30 -2.43,1.02 -2.52,0.72 -2.61,0.41 -2.62,0.09 -2.63,-0.22 -2.57,-0.53 -2.50,-0.84 -2.36,-1.13 -2.23,-1.42 -2.02,-1.66 -1.82,-1.91 -1.57,-2.10 -1.31,-2.29 -1.02,-2.42 -0.72,-2.54 -0.72,-2.54 L -0.72,-2.54 Z"/></g><g transform="translate(299.3333435058594 46.666656494140625) rotate(0 -3 17.666671752929688)" stroke="none"><path fill="#1e1e1e" d="M 1.96,-0.13 Q 1.96,-0.13 2.07,2.75 2.17,5.63 1.99,7.91 1.82,10.19 1.33,12.39 0.83,14.59 -0.20,16.62 -1.23,18.64 -2.22,20.41 -3.21,22.17 -4.45,23.79 -5.68,25.40 -6.72,26.83 -7.76,28.25 -8.56,29.33 -9.36,30.41 -10.15,31.19 -10.94,31.97 -11.22,32.48 -11.50,32.99 -11.71,33.13 -11.93,33.27 -12.18,33.36 -12.43,33.44 -12.68,33.46 -12.94,33.48 -13.20,33.44 -13.46,33.40 -13.69,33.30 -13.93,33.20 -14.14,33.04 -14.35,32.89 -14.52,32.69 -14.68,32.49 -14.79,32.25 -14.90,32.02 -14.96,31.76 -15.01,31.51 -15.00,31.25 -14.99,30.99 -14.92,30.74 -14.85,30.49 -14.72,30.27 -14.59,30.04 -14.41,29.85 -14.23,29.66 -14.56,30.83 -14.90,31.99 -15.18,30.65 -15.46,29.31 -15.10,27.92 -14.73,26.53 -14.16,25.39 -13.60,24.25 -12.98,23.19 -12.37,22.13 -11.73,21.10 -11.10,20.07 -10.45,19.05 -9.80,18.02 -8.97,17.15 -8.13,16.27 -6.97,15.34 -5.80,14.40 -3.87,14.42 -1.94,14.44 -0.64,15.43 0.65,16.43 1.36,17.59 2.08,18.74 3.11,20.70 4.14,22.67 4.55,24.01 4.97,25.35 5.31,26.42 5.65,27.49 5.86,28.76 6.07,30.04 6.87,31.16 7.67,32.29 8.12,32.48 8.58,32.67 8.94,33.00 9.31,33.33 9.55,33.75 9.80,34.18 9.89,34.66 9.98,35.14 9.92,35.63 9.85,36.12 9.64,36.56 9.42,37.00 9.08,37.35 8.73,37.69 8.29,37.91 7.85,38.13 7.37,38.20 6.88,38.27 6.40,38.18 5.91,38.09 5.49,37.85 5.06,37.61 4.73,37.24 4.40,36.88 4.20,36.43 4.01,35.98 3.97,35.49 3.93,35.00 4.04,34.52 4.16,34.05 4.42,33.63 4.69,33.22 5.07,32.91 5.45,32.60 5.91,32.43 6.37,32.26 6.86,32.24 7.35,32.23 7.82,32.37 8.29,32.51 8.69,32.80 9.09,33.08 9.38,33.48 9.66,33.88 9.81,34.35 9.96,34.82 9.94,35.31 9.93,35.80 9.76,36.26 9.60,36.72 9.29,37.10 8.98,37.49 8.57,37.75 8.16,38.02 7.68,38.14 7.21,38.26 6.72,38.22 6.23,38.18 6.23,38.18 6.23,38.18 3.47,35.71 0.71,33.23 0.34,31.28 -0.02,29.33 -0.38,28.25 -0.74,27.17 -1.41,25.37 -2.08,23.58 -2.69,22.59 -3.31,21.60 -3.40,20.47 -3.48,19.35 -4.48,20.13 -5.47,20.92 -6.13,21.89 -6.79,22.86 -7.44,23.82 -8.09,24.78 -8.70,25.70 -9.31,26.61 -10.34,28.26 -11.36,29.90 -11.43,31.45 -11.50,32.99 -11.71,33.13 -11.93,33.27 -12.18,33.36 -12.43,33.44 -12.68,33.46 -12.94,33.48 -13.20,33.44 -13.46,33.40 -13.69,33.30 -13.93,33.20 -14.14,33.04 -14.35,32.89 -14.51,32.69 -14.68,32.49 -14.79,32.25 -14.90,32.02 -14.96,31.76 -15.01,31.51 -15.00,31.25 -14.99,30.99 -14.92,30.74 -14.85,30.49 -14.72,30.27 -14.59,30.04 -14.41,29.85 -14.23,29.66 -13.19,28.84 -12.14,28.01 -11.26,27.13 -10.38,26.24 -9.26,24.85 -8.15,23.47 -7.02,22.07 -5.88,20.67 -4.92,18.95 -3.95,17.24 -3.09,15.58 -2.23,13.93 -1.86,11.97 -1.49,10.02 -1.45,7.94 -1.40,5.86 -1.68,2.99 -1.96,0.13 -1.95,-0.10 -1.94,-0.34 -1.87,-0.57 -1.80,-0.79 -1.68,-1.00 -1.55,-1.20 -1.39,-1.37 -1.22,-1.54 -1.02,-1.66 -0.82,-1.79 -0.59,-1.86 -0.36,-1.93 -0.13,-1.95 0.10,-1.96 0.34,-1.92 0.57,-1.88 0.79,-1.78 1.00,-1.69 1.19,-1.54 1.38,-1.40 1.53,-1.21 1.68,-1.03 1.77,-0.81 1.87,-0.59 1.92,-0.36 1.96,-0.13 1.96,-0.13 L 1.96,-0.13 Z"/></g><g transform="translate(318.6666564941406 66) rotate(0 2.66668701171875 15)" stroke="none"><path fill="#1e1e1e" d="M -0.27,-2.44 Q -0.27,-2.44 1.45,-2.58 3.18,-2.72 4.36,-2.85 5.53,-2.98 6.64,-2.80 7.75,-2.62 8.78,-1.92 9.80,-1.21 10.41,0.88 11.02,2.97 9.87,4.68 8.71,6.39 7.42,7.46 6.12,8.54 5.08,9.49 4.03,10.43 2.51,11.60 0.99,12.76 -0.15,12.36 -1.29,11.95 0.46,12.07 2.22,12.19 4.12,12.86 6.01,13.52 6.99,14.32 7.98,15.11 8.99,16.29 10.01,17.48 10.77,19.21 11.52,20.94 11.43,23.15 11.33,25.35 10.69,26.60 10.06,27.85 9.35,28.75 8.64,29.64 6.73,31.17 4.81,32.71 2.77,32.68 0.73,32.66 -0.50,30.73 -1.74,28.79 -1.55,26.59 -1.35,24.40 -1.20,23.89 -1.06,23.37 -0.75,22.94 -0.45,22.50 -0.03,22.18 0.39,21.87 0.90,21.70 1.40,21.54 1.93,21.54 2.47,21.55 2.97,21.72 3.47,21.90 3.89,22.22 4.31,22.55 4.60,22.99 4.90,23.43 5.03,23.95 5.17,24.46 5.14,24.99 5.10,25.52 4.90,26.02 4.70,26.51 4.35,26.91 4.00,27.31 3.54,27.58 3.09,27.85 2.57,27.96 2.05,28.07 1.52,28.00 0.99,27.94 0.51,27.71 0.03,27.49 -0.34,27.12 -0.73,26.75 -0.97,26.27 -1.21,25.80 -1.29,25.28 -1.37,24.75 -1.28,24.23 -1.19,23.70 -0.94,23.24 -0.68,22.77 -0.29,22.41 0.09,22.05 0.57,21.83 1.05,21.61 1.58,21.56 2.11,21.50 2.63,21.62 3.15,21.74 3.60,22.02 4.05,22.30 4.39,22.71 4.73,23.12 4.93,23.62 5.12,24.11 5.14,24.64 5.16,25.17 5.16,25.17 5.16,25.17 4.74,26.57 4.31,27.97 2.99,27.58 1.67,27.19 2.69,26.40 3.72,25.60 4.57,24.40 5.42,23.20 4.99,21.69 4.57,20.19 3.46,19.22 2.35,18.26 0.54,17.63 -1.25,17.00 -2.71,16.22 -4.17,15.43 -4.64,13.95 -5.11,12.47 -4.48,11.44 -3.84,10.42 -2.99,9.73 -2.15,9.04 -0.85,7.82 0.44,6.60 1.54,5.55 2.63,4.50 4.45,3.33 6.27,2.16 4.99,2.06 3.71,1.96 1.99,2.20 0.27,2.44 -0.02,2.44 -0.32,2.44 -0.60,2.36 -0.89,2.29 -1.15,2.15 -1.41,2.01 -1.63,1.81 -1.85,1.61 -2.02,1.36 -2.19,1.12 -2.29,0.84 -2.39,0.56 -2.42,0.26 -2.46,-0.02 -2.42,-0.31 -2.38,-0.61 -2.27,-0.88 -2.16,-1.16 -1.99,-1.40 -1.82,-1.65 -1.60,-1.84 -1.37,-2.03 -1.11,-2.17 -0.84,-2.31 -0.56,-2.37 -0.27,-2.44 -0.27,-2.44 L -0.27,-2.44 Z"/></g><g transform="translate(336.6666564941406 40.666656494140625) rotate(0 14.66668701171875 33)" stroke="none"><path fill="#1e1e1e" d="M 0.29,-2.23 Q 0.29,-2.23 3.15,-1.72 6.01,-1.22 8.31,-0.97 10.61,-0.72 12.55,-0.62 14.48,-0.53 16.26,-0.51 18.04,-0.50 19.56,-0.54 21.08,-0.58 22.31,-0.65 23.54,-0.72 24.66,-0.58 25.79,-0.43 27.23,-0.16 28.67,0.10 29.75,0.99 30.83,1.87 31.29,2.90 31.74,3.92 31.91,6.11 32.08,8.30 32.09,9.56 32.10,10.81 32.07,12.30 32.03,13.79 31.95,15.58 31.86,17.36 31.32,21.11 30.77,24.86 30.30,28.12 29.82,31.38 29.00,36.24 28.19,41.11 27.62,44.50 27.05,47.88 26.80,50.61 26.55,53.33 26.22,55.51 25.90,57.69 25.82,59.51 25.73,61.34 25.58,62.49 25.42,63.64 24.71,65.15 24.01,66.67 23.10,67.24 22.18,67.81 21.13,68.02 20.08,68.22 17.91,68.36 15.73,68.51 14.46,68.53 13.19,68.55 11.86,68.37 10.53,68.19 9.35,67.91 8.17,67.64 6.93,66.97 5.70,66.29 4.89,65.28 4.09,64.27 3.75,63.22 3.42,62.18 3.52,60.77 3.63,59.36 4.72,57.47 5.80,55.59 6.13,55.24 6.46,54.89 6.88,54.66 7.31,54.43 7.78,54.36 8.26,54.28 8.73,54.35 9.21,54.43 9.63,54.65 10.06,54.88 10.39,55.23 10.72,55.57 10.93,56.01 11.13,56.45 11.18,56.92 11.24,57.40 11.13,57.87 11.03,58.34 10.78,58.75 10.54,59.17 10.17,59.48 9.81,59.79 9.36,59.97 8.91,60.15 8.43,60.18 7.95,60.20 7.49,60.08 7.03,59.95 6.63,59.68 6.23,59.41 5.94,59.03 5.64,58.65 5.49,58.19 5.33,57.74 5.33,57.26 5.33,56.78 5.48,56.32 5.64,55.86 5.93,55.48 6.22,55.10 6.61,54.83 7.01,54.55 7.47,54.42 7.94,54.29 8.42,54.32 8.90,54.34 9.34,54.52 9.79,54.70 10.16,55.01 10.53,55.32 10.78,55.73 11.02,56.14 11.13,56.61 11.23,57.08 11.18,57.56 11.13,58.04 10.93,58.47 10.73,58.91 10.73,58.91 10.73,58.91 10.15,60.70 9.58,62.49 11.38,62.95 13.18,63.42 14.43,63.43 15.67,63.44 16.79,63.46 17.92,63.48 19.63,63.52 21.33,63.57 21.97,62.35 22.61,61.13 22.77,59.21 22.92,57.30 23.16,55.19 23.41,53.09 23.58,50.24 23.75,47.40 24.18,43.98 24.62,40.57 25.25,35.76 25.88,30.95 26.11,27.67 26.35,24.39 26.57,20.88 26.79,17.36 26.70,15.59 26.61,13.81 26.57,12.33 26.53,10.86 26.51,8.60 26.49,6.34 26.32,5.26 26.14,4.17 24.82,3.77 23.50,3.37 22.28,3.29 21.05,3.21 19.52,3.14 17.98,3.08 16.17,3.03 14.36,2.99 12.36,2.95 10.36,2.90 7.92,2.83 5.48,2.75 2.59,2.49 -0.29,2.23 -0.56,2.16 -0.82,2.09 -1.06,1.96 -1.30,1.84 -1.50,1.65 -1.70,1.47 -1.85,1.24 -2.00,1.02 -2.10,0.76 -2.19,0.51 -2.22,0.24 -2.25,-0.02 -2.21,-0.29 -2.18,-0.56 -2.08,-0.81 -1.98,-1.07 -1.82,-1.29 -1.67,-1.51 -1.46,-1.69 -1.25,-1.87 -1.01,-1.99 -0.77,-2.11 -0.50,-2.17 -0.24,-2.24 0.02,-2.23 0.29,-2.23 0.29,-2.23 L 0.29,-2.23 Z"/></g><g transform="translate(418.0000305175781 12) rotate(0 -20.333343505859375 78.66665649414062)" stroke="none"><path fill="#1e1e1e" d="M -0.37,2.23 Q -0.37,2.23 -2.65,1.72 -4.93,1.21 -6.78,1.01 -8.63,0.81 -10.37,0.75 -12.10,0.68 -14.18,0.58 -16.25,0.47 -17.52,0.54 -18.80,0.61 -20.49,0.76 -22.19,0.91 -21.51,3.02 -20.84,5.14 -20.97,8.47 -21.11,11.79 -21.22,14.92 -21.33,18.04 -21.42,21.48 -21.51,24.92 -21.58,28.68 -21.64,32.44 -21.69,36.33 -21.74,40.23 -21.78,44.38 -21.82,48.53 -21.84,52.78 -21.87,57.04 -22.08,61.18 -22.30,65.32 -22.78,69.60 -23.26,73.88 -24.05,78.03 -24.84,82.19 -25.76,86.25 -26.67,90.31 -27.84,94.19 -29.01,98.06 -29.87,101.94 -30.74,105.81 -31.69,109.42 -32.65,113.03 -33.43,116.45 -34.21,119.87 -34.73,123.02 -35.25,126.17 -35.85,130.38 -36.46,134.60 -37.10,138.70 -37.75,142.81 -38.21,145.52 -38.68,148.23 -38.83,150.10 -38.97,151.98 -38.94,153.16 -38.90,154.34 -37.94,154.93 -36.97,155.52 -35.18,155.46 -33.38,155.41 -32.16,155.59 -30.94,155.78 -29.37,155.92 -27.81,156.05 -26.33,156.10 -24.84,156.15 -23.45,156.16 -22.06,156.17 -20.34,155.58 -18.61,154.98 -17.25,154.02 -15.90,153.05 -15.44,150.82 -14.98,148.59 -14.79,148.16 -14.60,147.73 -14.28,147.38 -13.96,147.04 -13.55,146.81 -13.13,146.59 -12.67,146.51 -12.21,146.43 -11.74,146.50 -11.28,146.57 -10.86,146.78 -10.44,147.00 -10.11,147.34 -9.79,147.67 -9.58,148.10 -9.38,148.52 -9.33,148.99 -9.27,149.46 -9.36,149.92 -9.46,150.38 -9.70,150.78 -9.94,151.19 -10.29,151.50 -10.65,151.81 -11.08,151.98 -11.52,152.16 -11.99,152.19 -12.45,152.22 -12.91,152.10 -13.36,151.98 -13.76,151.72 -14.15,151.46 -14.44,151.09 -14.73,150.72 -14.88,150.28 -15.04,149.83 -15.04,149.36 -15.05,148.89 -14.90,148.45 -14.76,148.00 -14.48,147.62 -14.20,147.24 -13.81,146.98 -13.42,146.71 -12.97,146.58 -12.52,146.45 -12.05,146.47 -11.58,146.49 -11.14,146.66 -10.70,146.82 -10.34,147.13 -9.98,147.43 -9.73,147.83 -9.49,148.23 -9.38,148.68 -9.27,149.14 -9.32,149.61 -9.36,150.08 -9.36,150.08 -9.36,150.08 -9.81,151.64 -10.26,153.20 -10.67,154.25 -11.08,155.30 -12.74,156.83 -14.40,158.36 -15.48,159.04 -16.55,159.71 -17.94,160.23 -19.32,160.76 -20.71,160.93 -22.10,161.11 -23.53,161.09 -24.96,161.07 -26.50,161.05 -28.05,161.02 -30.76,160.78 -33.46,160.54 -35.43,160.40 -37.40,160.25 -39.35,159.59 -41.31,158.93 -41.88,157.95 -42.46,156.96 -42.32,155.54 -42.18,154.11 -41.97,152.90 -41.77,151.69 -41.52,149.73 -41.27,147.78 -40.81,145.09 -40.35,142.40 -39.71,138.31 -39.07,134.22 -38.46,129.98 -37.86,125.74 -37.32,122.51 -36.79,119.28 -36.00,115.82 -35.21,112.36 -34.28,108.80 -33.34,105.23 -32.46,101.26 -31.58,97.29 -30.45,93.50 -29.31,89.72 -28.42,85.70 -27.53,81.68 -26.78,77.63 -26.02,73.58 -25.58,69.38 -25.13,65.19 -24.96,61.11 -24.79,57.04 -24.81,52.78 -24.84,48.53 -24.88,44.38 -24.92,40.23 -24.97,36.34 -25.02,32.44 -25.09,28.68 -25.16,24.92 -25.26,21.49 -25.36,18.06 -25.49,14.95 -25.63,11.83 -25.82,8.60 -26.01,5.37 -26.07,4.10 -26.13,2.82 -26.25,1.42 -26.37,0.03 -25.91,-1.19 -25.46,-2.42 -23.82,-2.99 -22.17,-3.57 -20.47,-3.41 -18.76,-3.24 -17.48,-3.15 -16.20,-3.05 -14.08,-3.10 -11.95,-3.14 -10.13,-3.07 -8.31,-3.00 -6.29,-2.87 -4.26,-2.75 -1.94,-2.49 0.37,-2.23 0.63,-2.15 0.89,-2.07 1.13,-1.93 1.36,-1.80 1.56,-1.61 1.75,-1.42 1.90,-1.19 2.04,-0.96 2.13,-0.70 2.21,-0.44 2.23,-0.17 2.25,0.10 2.21,0.36 2.16,0.63 2.06,0.88 1.95,1.13 1.78,1.35 1.62,1.57 1.41,1.74 1.20,1.91 0.95,2.03 0.70,2.14 0.43,2.20 0.17,2.25 -0.09,2.24 -0.37,2.23 -0.37,2.23 L -0.37,2.23 Z"/></g><g transform="translate(414.0000305175781 31.333343505859375) rotate(0 7.999969482421875 9.333328247070312)" stroke="none"><path fill="#1e1e1e" d="M 2.44,-0.54 Q 2.44,-0.54 2.77,1.19 3.09,2.93 3.57,4.28 4.06,5.64 4.52,6.86 4.98,8.07 5.38,9.41 5.79,10.75 6.76,12.76 7.72,14.78 8.94,14.49 10.16,14.20 11.06,12.46 11.96,10.72 12.34,9.55 12.72,8.39 13.93,5.35 15.13,2.31 15.54,2.14 15.96,1.96 16.41,1.92 16.87,1.89 17.31,2.00 17.75,2.11 18.13,2.35 18.51,2.60 18.79,2.95 19.08,3.31 19.23,3.73 19.39,4.16 19.40,4.61 19.41,5.07 19.28,5.50 19.14,5.93 18.88,6.30 18.61,6.67 18.24,6.93 17.87,7.20 17.44,7.33 17.00,7.46 16.55,7.45 16.10,7.43 15.67,7.28 15.24,7.12 14.89,6.83 14.54,6.55 14.30,6.17 14.05,5.78 13.94,5.34 13.84,4.90 13.87,4.45 13.91,4.00 14.09,3.58 14.27,3.16 14.58,2.83 14.88,2.49 15.28,2.27 15.67,2.05 16.12,1.96 16.56,1.88 17.01,1.94 17.46,2.00 17.87,2.20 18.27,2.41 18.59,2.73 18.91,3.05 19.11,3.46 19.32,3.87 19.38,4.31 19.44,4.76 19.35,5.21 19.26,5.66 19.04,6.05 18.81,6.44 18.47,6.75 18.14,7.05 18.14,7.05 18.14,7.05 18.10,8.56 18.06,10.07 17.64,11.48 17.21,12.89 16.58,14.38 15.95,15.87 14.99,17.23 14.02,18.59 12.94,19.48 11.87,20.38 10.51,20.83 9.15,21.29 8.01,21.08 6.86,20.86 5.68,19.83 4.51,18.80 3.77,17.79 3.02,16.77 2.65,15.77 2.28,14.76 1.69,13.44 1.10,12.12 0.76,10.89 0.43,9.66 0.04,8.46 -0.34,7.25 -0.95,5.61 -1.55,3.96 -2.00,2.25 -2.44,0.54 -2.47,0.24 -2.50,-0.05 -2.46,-0.35 -2.42,-0.65 -2.30,-0.93 -2.19,-1.21 -2.01,-1.46 -1.83,-1.70 -1.60,-1.90 -1.37,-2.09 -1.10,-2.23 -0.83,-2.36 -0.54,-2.43 -0.24,-2.49 0.05,-2.49 0.35,-2.48 0.65,-2.40 0.94,-2.32 1.20,-2.17 1.47,-2.03 1.69,-1.82 1.91,-1.62 2.08,-1.36 2.24,-1.11 2.34,-0.82 2.44,-0.54 2.44,-0.54 L 2.44,-0.54 Z"/></g><g transform="translate(439.3333435058594 37.333343505859375) rotate(0 -0.666656494140625 11.333328247070312)" stroke="none"><path fill="#1e1e1e" d="M 2.30,0 Q 2.30,0 2.17,2.68 2.04,5.36 2.00,7.27 1.96,9.18 1.95,10.95 1.95,12.72 1.79,14.36 1.63,16.00 1.61,17.17 1.60,18.34 1.27,20.40 0.95,22.46 0.85,22.81 0.74,23.16 0.54,23.45 0.33,23.75 0.03,23.97 -0.25,24.18 -0.60,24.29 -0.94,24.40 -1.30,24.40 -1.67,24.39 -2.01,24.27 -2.35,24.15 -2.64,23.92 -2.92,23.70 -3.12,23.39 -3.32,23.09 -3.41,22.74 -3.50,22.39 -3.48,22.02 -3.45,21.66 -3.31,21.33 -3.17,20.99 -2.93,20.72 -2.69,20.44 -2.38,20.26 -2.06,20.08 -1.71,20.01 -1.35,19.94 -0.99,19.98 -0.63,20.03 -0.30,20.18 0.01,20.34 0.27,20.60 0.53,20.85 0.70,21.17 0.86,21.50 0.91,21.86 0.97,22.22 0.90,22.57 0.84,22.93 0.66,23.25 0.49,23.57 0.22,23.81 -0.04,24.06 -0.37,24.21 -0.70,24.35 -1.07,24.39 -1.43,24.42 -1.78,24.34 -2.13,24.25 -2.44,24.06 -2.75,23.87 -2.98,23.59 -3.21,23.31 -3.34,22.97 -3.47,22.63 -3.48,22.26 -3.50,21.90 -3.50,21.90 -3.50,21.90 -3.09,19.97 -2.69,18.04 -2.54,16.77 -2.39,15.50 -2.17,14.10 -1.95,12.71 -1.95,10.94 -1.96,9.18 -2.00,7.27 -2.04,5.36 -2.17,2.68 -2.30,0 -2.27,-0.27 -2.24,-0.55 -2.14,-0.81 -2.04,-1.07 -1.88,-1.30 -1.72,-1.53 -1.51,-1.71 -1.31,-1.89 -1.06,-2.02 -0.81,-2.15 -0.54,-2.22 -0.27,-2.29 0.00,-2.29 0.27,-2.29 0.54,-2.22 0.81,-2.15 1.06,-2.02 1.31,-1.89 1.51,-1.71 1.72,-1.52 1.88,-1.30 2.04,-1.07 2.14,-0.81 2.24,-0.55 2.27,-0.27 2.30,0.00 2.30,0.00 L 2.30,0 Z"/></g><g transform="translate(410.6666564941406 72.66665649414062) rotate(0 10.333343505859375 12.666671752929688)" stroke="none"><path fill="#1e1e1e" d="M 2.18,-0.48 Q 2.18,-0.48 2.53,1.24 2.88,2.97 3.22,4.68 3.56,6.39 4.05,7.97 4.53,9.55 5.40,11.95 6.27,14.35 6.88,16.21 7.50,18.07 8.01,19.39 8.52,20.71 9.21,22.19 9.91,23.66 8.85,23.53 7.79,23.40 8.28,22.40 8.77,21.40 9.44,20.30 10.12,19.19 10.79,17.96 11.47,16.73 12.15,15.32 12.82,13.91 13.26,12.73 13.69,11.56 14.04,10.49 14.40,9.42 15.06,7.70 15.73,5.97 17.65,3.70 19.57,1.43 20.01,1.36 20.46,1.29 20.90,1.36 21.34,1.43 21.74,1.64 22.14,1.85 22.45,2.17 22.76,2.50 22.95,2.91 23.13,3.31 23.18,3.76 23.23,4.21 23.14,4.65 23.04,5.09 22.81,5.47 22.58,5.86 22.24,6.15 21.90,6.44 21.48,6.61 21.06,6.77 20.61,6.80 20.17,6.82 19.73,6.70 19.30,6.58 18.93,6.33 18.56,6.08 18.28,5.73 18.01,5.37 17.87,4.94 17.72,4.52 17.72,4.07 17.72,3.62 17.86,3.19 18.01,2.77 18.28,2.41 18.55,2.05 18.92,1.80 19.29,1.55 19.72,1.42 20.16,1.30 20.60,1.33 21.05,1.35 21.47,1.52 21.89,1.68 22.23,1.97 22.57,2.26 22.81,2.65 23.04,3.03 23.14,3.47 23.23,3.91 23.19,4.35 23.14,4.80 22.95,5.21 22.76,5.62 22.45,5.94 22.15,6.27 21.75,6.48 21.35,6.69 21.35,6.69 21.35,6.69 20.96,7.45 20.58,8.21 19.83,9.67 19.09,11.13 18.65,12.24 18.20,13.35 17.68,14.61 17.15,15.87 16.45,17.47 15.76,19.08 15.02,20.43 14.28,21.77 13.43,23.14 12.57,24.50 11.27,25.69 9.97,26.88 7.79,25.90 5.60,24.91 5.20,23.44 4.80,21.98 4.40,20.62 4.01,19.26 3.40,17.51 2.78,15.77 1.66,13.29 0.55,10.82 -0.03,9.04 -0.61,7.27 -0.98,5.59 -1.35,3.92 -1.77,2.20 -2.18,0.48 -2.21,0.21 -2.23,-0.05 -2.20,-0.31 -2.16,-0.58 -2.06,-0.83 -1.95,-1.08 -1.80,-1.30 -1.64,-1.52 -1.43,-1.69 -1.22,-1.87 -0.98,-1.99 -0.74,-2.11 -0.48,-2.17 -0.21,-2.22 0.05,-2.22 0.32,-2.21 0.58,-2.14 0.84,-2.07 1.07,-1.94 1.31,-1.81 1.51,-1.63 1.71,-1.44 1.85,-1.22 2.00,-0.99 2.09,-0.74 2.18,-0.48 2.18,-0.48 L 2.18,-0.48 Z"/></g><g transform="translate(430.0000305175781 92) rotate(0 7 7)" stroke="none"><path fill="#1e1e1e" d="M 0,-2.56 Q 0,-2.56 1.91,-2.46 3.83,-2.35 5.90,-2.17 7.97,-1.98 9.17,-0.66 10.37,0.64 10.59,2.17 10.80,3.70 10.60,4.90 10.40,6.11 9.78,7.29 9.16,8.47 8.48,9.33 7.80,10.19 7.17,11.34 6.55,12.48 7.28,11.45 8.02,10.42 10.00,9.59 11.98,8.76 12.46,8.56 12.95,8.37 13.47,8.34 14.00,8.31 14.50,8.44 15.01,8.58 15.45,8.87 15.88,9.17 16.20,9.58 16.52,10.00 16.69,10.49 16.86,10.99 16.86,11.52 16.86,12.04 16.70,12.54 16.53,13.04 16.22,13.45 15.90,13.87 15.47,14.17 15.04,14.47 14.53,14.61 14.03,14.75 13.50,14.73 12.98,14.70 12.49,14.51 12.00,14.32 11.60,13.98 11.20,13.64 10.93,13.19 10.66,12.74 10.54,12.23 10.43,11.72 10.48,11.20 10.54,10.68 10.75,10.20 10.97,9.72 11.33,9.34 11.69,8.96 12.15,8.71 12.61,8.46 13.13,8.38 13.65,8.29 14.17,8.37 14.68,8.45 15.15,8.70 15.61,8.94 15.98,9.32 16.34,9.70 16.56,10.17 16.78,10.65 16.84,11.17 16.90,11.69 16.79,12.20 16.68,12.72 16.41,13.17 16.14,13.62 15.74,13.96 15.35,14.30 15.35,14.30 15.35,14.30 13.39,15.23 11.43,16.16 10.35,16.46 9.26,16.77 7.04,16.94 4.81,17.11 3.19,16.26 1.57,15.42 0.96,13.82 0.34,12.21 0.79,10.87 1.23,9.52 2.23,7.96 3.24,6.40 4.02,5.58 4.80,4.76 5.49,3.75 6.19,2.74 5.01,2.55 3.83,2.35 1.91,2.46 0,2.56 -0.30,2.53 -0.61,2.49 -0.90,2.38 -1.19,2.27 -1.44,2.09 -1.70,1.92 -1.90,1.69 -2.11,1.45 -2.25,1.18 -2.40,0.91 -2.47,0.60 -2.54,0.30 -2.54,-0.00 -2.54,-0.30 -2.47,-0.61 -2.40,-0.91 -2.25,-1.18 -2.11,-1.45 -1.90,-1.69 -1.70,-1.92 -1.44,-2.09 -1.19,-2.27 -0.90,-2.38 -0.61,-2.49 -0.30,-2.53 0.00,-2.56 0.00,-2.56 L 0,-2.56 Z"/></g><g transform="translate(410.0000305175781 125.33334350585938) rotate(0 10 12.333328247070312)" stroke="none"><path fill="#1e1e1e" d="M 2.22,-0.83 Q 2.22,-0.83 2.78,0.70 3.33,2.24 3.78,3.96 4.22,5.68 4.74,7.26 5.25,8.84 5.69,10.59 6.13,12.33 6.36,13.94 6.59,15.54 6.87,16.86 7.16,18.17 7.49,19.25 7.82,20.34 8.41,21.40 9.00,22.47 8.85,21.18 8.69,19.89 9.29,18.70 9.89,17.51 10.58,16.16 11.28,14.81 11.97,13.48 12.66,12.14 13.64,10.34 14.62,8.55 14.91,7.33 15.19,6.12 15.51,4.91 15.83,3.69 16.93,1.10 18.03,-1.49 18.34,-1.73 18.65,-1.98 19.03,-2.11 19.40,-2.24 19.80,-2.25 20.20,-2.25 20.58,-2.13 20.96,-2.01 21.28,-1.77 21.60,-1.54 21.82,-1.21 22.05,-0.89 22.16,-0.50 22.27,-0.12 22.26,0.26 22.24,0.66 22.10,1.03 21.96,1.40 21.71,1.71 21.45,2.02 21.12,2.23 20.78,2.44 20.39,2.53 20.00,2.62 19.61,2.58 19.21,2.54 18.85,2.38 18.49,2.22 18.19,1.95 17.90,1.68 17.71,1.33 17.52,0.98 17.45,0.59 17.38,0.20 17.44,-0.18 17.50,-0.57 17.68,-0.93 17.86,-1.28 18.14,-1.56 18.43,-1.84 18.79,-2.01 19.15,-2.18 19.54,-2.23 19.93,-2.28 20.32,-2.20 20.71,-2.12 21.06,-1.92 21.40,-1.72 21.66,-1.42 21.92,-1.12 22.08,-0.75 22.23,-0.38 22.26,0.00 22.28,0.40 22.18,0.78 22.08,1.17 21.86,1.50 21.64,1.83 21.64,1.83 21.64,1.83 21.05,3.45 20.46,5.07 20.09,6.19 19.72,7.31 19.28,8.87 18.84,10.43 18.11,12.45 17.37,14.47 16.74,15.82 16.11,17.16 15.49,18.51 14.88,19.85 14.19,21.39 13.51,22.93 12.63,24.19 11.75,25.45 10.87,26.09 9.99,26.73 8.92,26.90 7.84,27.07 6.26,26.13 4.68,25.18 3.97,23.36 3.26,21.54 2.98,20.29 2.70,19.04 2.44,17.57 2.19,16.10 2.05,14.76 1.92,13.43 1.49,11.86 1.06,10.29 0.44,8.59 -0.18,6.88 -0.60,5.38 -1.03,3.88 -1.63,2.36 -2.22,0.83 -2.29,0.55 -2.36,0.27 -2.36,-0.00 -2.36,-0.29 -2.29,-0.57 -2.22,-0.85 -2.08,-1.10 -1.95,-1.35 -1.76,-1.57 -1.57,-1.78 -1.33,-1.95 -1.09,-2.11 -0.82,-2.21 -0.56,-2.31 -0.27,-2.34 0.00,-2.38 0.29,-2.34 0.57,-2.30 0.84,-2.20 1.11,-2.10 1.35,-1.94 1.58,-1.77 1.77,-1.56 1.96,-1.34 2.09,-1.09 2.22,-0.83 2.22,-0.83 L 2.22,-0.83 Z"/></g><g transform="translate(435.3333435058594 134.66665649414062) rotate(0 5 9.333343505859375)" stroke="none"><path fill="#1e1e1e" d="M -1.68,-2.01 Q -1.68,-2.01 -0.50,-2.96 0.66,-3.91 1.79,-4.52 2.93,-5.14 4.85,-5.57 6.76,-6.00 8.60,-5.36 10.44,-4.72 11.32,-2.85 12.19,-0.98 11.96,0.13 11.72,1.24 10.37,2.77 9.02,4.29 7.75,5.61 6.49,6.92 5.47,7.86 4.46,8.81 4.03,9.79 3.61,10.78 2.99,9.85 2.36,8.93 3.65,8.82 4.94,8.71 6.54,9.01 8.14,9.31 9.56,9.70 10.97,10.08 12.01,10.97 13.05,11.86 13.59,13.04 14.13,14.23 13.97,16.08 13.82,17.93 12.84,19.30 11.86,20.68 10.85,21.45 9.85,22.23 8.83,22.92 7.80,23.62 6.38,24.11 4.96,24.60 3.71,24.76 2.46,24.93 0.88,24.56 -0.70,24.19 -1.96,22.83 -3.23,21.47 -3.78,18.47 -4.33,15.48 -4.32,14.97 -4.30,14.45 -4.12,13.97 -3.95,13.49 -3.62,13.09 -3.30,12.69 -2.87,12.42 -2.43,12.14 -1.93,12.02 -1.44,11.89 -0.92,11.94 -0.41,11.98 0.05,12.18 0.52,12.39 0.90,12.73 1.28,13.08 1.53,13.52 1.79,13.97 1.88,14.48 1.98,14.98 1.91,15.49 1.84,16.00 1.61,16.46 1.38,16.92 1.01,17.28 0.65,17.64 0.19,17.87 -0.26,18.10 -0.77,18.16 -1.28,18.23 -1.78,18.13 -2.29,18.04 -2.73,17.78 -3.18,17.53 -3.52,17.14 -3.87,16.76 -4.07,16.29 -4.27,15.82 -4.31,15.30 -4.35,14.79 -4.22,14.29 -4.10,13.80 -3.82,13.36 -3.54,12.93 -3.14,12.61 -2.74,12.29 -2.26,12.12 -1.78,11.94 -1.26,11.93 -0.75,11.91 -0.26,12.07 0.22,12.22 0.64,12.52 1.05,12.82 1.35,13.24 1.65,13.66 1.80,14.15 1.95,14.64 1.95,14.64 1.95,14.64 2.59,16.60 3.23,18.56 4.59,17.87 5.95,17.18 6.95,16.40 7.94,15.62 6.57,15.28 5.19,14.93 3.68,14.59 2.16,14.24 0.63,13.45 -0.90,12.65 -1.44,11.00 -1.97,9.35 -1.31,7.96 -0.66,6.56 0.86,5.02 2.39,3.48 4.27,1.53 6.16,-0.41 5.04,-0.16 3.93,0.07 2.80,1.04 1.68,2.01 1.41,2.19 1.15,2.36 0.85,2.46 0.55,2.56 0.23,2.59 -0.07,2.62 -0.39,2.57 -0.70,2.53 -0.99,2.41 -1.29,2.28 -1.54,2.10 -1.80,1.91 -2.00,1.67 -2.20,1.42 -2.34,1.14 -2.48,0.85 -2.55,0.54 -2.61,0.23 -2.60,-0.07 -2.59,-0.39 -2.51,-0.70 -2.42,-1.00 -2.27,-1.28 -2.11,-1.55 -1.89,-1.78 -1.68,-2.01 -1.68,-2.01 L -1.68,-2.01 Z"/></g><g transform="translate(448.6666564941406 10.666656494140625) rotate(0 12.000030517578125 79.66667175292969)" stroke="none"><path fill="#1e1e1e" d="M 0.30,-2.47 Q 0.30,-2.47 1.84,-2.26 3.37,-2.05 4.70,-1.98 6.04,-1.91 7.56,-1.86 9.07,-1.80 10.49,-1.79 11.90,-1.78 13.10,-1.97 14.30,-2.15 15.54,-2.27 16.77,-2.39 18.61,-2.78 20.45,-3.17 21.60,-3.29 22.75,-3.41 23.84,-3.03 24.92,-2.66 25.88,-0.89 26.84,0.86 27.09,2.38 27.33,3.90 27.44,5.07 27.55,6.25 27.58,7.52 27.61,8.80 27.75,10.11 27.89,11.42 27.88,13.33 27.88,15.24 27.75,18.92 27.61,22.61 27.49,27.99 27.37,33.38 27.28,37.77 27.19,42.16 27.12,46.14 27.04,50.12 26.80,53.96 26.55,57.79 26.24,61.34 25.92,64.89 25.58,68.32 25.25,71.74 24.90,74.93 24.56,78.11 24.02,81.23 23.47,84.35 23.05,87.17 22.63,89.99 22.26,92.73 21.88,95.46 21.53,97.97 21.17,100.47 20.83,102.70 20.48,104.92 20.15,107.02 19.81,109.11 19.67,111.28 19.53,113.45 19.28,116.71 19.02,119.96 18.72,122.33 18.41,124.71 18.29,126.80 18.17,128.90 17.97,130.83 17.77,132.75 17.76,134.27 17.75,135.79 17.79,137.20 17.83,138.60 17.89,139.96 17.94,141.32 18.01,142.48 18.08,143.63 18.15,144.69 18.21,145.76 18.33,147.60 18.44,149.45 18.32,151.35 18.19,153.25 17.52,154.96 16.84,156.67 16.16,157.88 15.47,159.09 14.66,159.79 13.85,160.50 11.77,161.66 9.68,162.82 8.20,162.96 6.72,163.09 5.65,162.80 4.58,162.51 3.27,161.20 1.96,159.89 1.15,157.72 0.34,155.56 0.26,155.03 0.18,154.50 0.28,153.97 0.38,153.44 0.64,152.97 0.90,152.50 1.30,152.14 1.70,151.78 2.19,151.56 2.68,151.34 3.22,151.30 3.76,151.25 4.28,151.38 4.80,151.50 5.26,151.79 5.71,152.08 6.05,152.49 6.39,152.91 6.58,153.41 6.77,153.92 6.79,154.45 6.80,154.99 6.65,155.51 6.49,156.02 6.18,156.46 5.87,156.90 5.44,157.22 5.00,157.53 4.49,157.69 3.98,157.85 3.44,157.84 2.90,157.83 2.40,157.65 1.89,157.47 1.47,157.13 1.05,156.80 0.76,156.35 0.46,155.90 0.33,155.38 0.20,154.86 0.24,154.32 0.28,153.78 0.49,153.29 0.70,152.79 1.05,152.39 1.41,151.99 1.87,151.72 2.34,151.45 2.87,151.35 3.40,151.24 3.93,151.31 4.46,151.38 4.95,151.62 5.43,151.85 5.81,152.23 6.19,152.61 6.44,153.09 6.68,153.57 6.68,153.57 6.68,153.57 6.69,155.19 6.71,156.82 8.01,156.66 9.31,156.51 10.30,155.80 11.29,155.09 12.16,153.61 13.04,152.12 13.29,150.79 13.55,149.45 13.67,147.59 13.79,145.74 13.86,144.67 13.93,143.60 14.02,142.44 14.10,141.27 14.20,139.88 14.29,138.49 14.42,137.04 14.55,135.58 14.75,133.98 14.95,132.38 15.24,130.56 15.53,128.75 15.66,126.56 15.79,124.37 16.09,122.06 16.38,119.76 16.63,116.52 16.88,113.28 17.03,110.99 17.18,108.69 17.51,106.61 17.84,104.52 18.18,102.31 18.51,100.11 18.85,97.60 19.19,95.10 19.55,92.35 19.91,89.60 20.32,86.74 20.72,83.88 21.22,80.85 21.72,77.82 22.02,74.65 22.32,71.48 22.60,68.07 22.87,64.66 23.11,61.15 23.34,57.63 23.47,53.88 23.61,50.12 23.53,46.15 23.45,42.17 23.34,37.78 23.23,33.39 23.08,28.02 22.94,22.66 22.72,19.08 22.51,15.51 22.34,13.87 22.16,12.23 21.88,10.61 21.61,8.99 21.50,7.03 21.39,5.08 21.72,3.60 22.06,2.13 20.84,2.16 19.62,2.19 18.37,2.41 17.12,2.62 16.04,2.66 14.96,2.70 13.41,2.89 11.86,3.07 10.41,3.05 8.97,3.04 7.36,3.02 5.76,3.00 4.26,2.91 2.76,2.82 1.22,2.64 -0.30,2.47 -0.60,2.40 -0.89,2.33 -1.15,2.18 -1.42,2.04 -1.64,1.84 -1.87,1.64 -2.04,1.40 -2.21,1.15 -2.31,0.87 -2.42,0.58 -2.46,0.28 -2.49,-0.00 -2.45,-0.30 -2.42,-0.60 -2.31,-0.88 -2.20,-1.16 -2.03,-1.41 -1.86,-1.66 -1.63,-1.86 -1.41,-2.05 -1.14,-2.19 -0.87,-2.33 -0.58,-2.40 -0.29,-2.47 0.00,-2.47 0.30,-2.47 0.30,-2.47 L 0.30,-2.47 Z"/></g><g transform="translate(10 52) rotate(0 22.000015258789062 8.333328247070312)" stroke="none"><path fill="#1e1e1e" d="M 1.57,-2.10 Q 1.57,-2.10 2.45,-1.43 3.32,-0.76 4.06,0.78 4.79,2.33 5.48,4.31 6.18,6.30 6.96,8.07 7.74,9.85 8.62,10.71 9.49,11.57 10.97,11.56 12.45,11.55 13.62,10.64 14.78,9.73 15.65,8.77 16.51,7.81 17.20,6.76 17.89,5.70 18.72,3.88 19.55,2.06 19.62,0.95 19.69,-0.15 19.68,-0.90 19.66,-1.65 19.73,-2.00 19.80,-2.36 19.95,-2.68 20.10,-3.01 20.33,-3.29 20.55,-3.57 20.84,-3.79 21.13,-4.01 21.46,-4.15 21.79,-4.30 22.14,-4.36 22.50,-4.42 22.85,-4.39 23.21,-4.37 23.56,-4.25 23.90,-4.14 24.20,-3.95 24.51,-3.76 24.76,-3.51 25.01,-3.25 25.20,-2.94 25.38,-2.63 25.48,-2.28 25.59,-1.94 25.60,-1.58 25.62,-1.22 25.40,-0.03 25.18,1.15 25.14,2.60 25.10,4.04 25.60,5.91 26.10,7.78 26.60,9.01 27.10,10.23 27.66,11.25 28.21,12.27 28.90,13.13 29.58,14.00 31.00,14.70 32.42,15.40 33.69,15.21 34.96,15.03 36.12,14.00 37.27,12.97 38.41,11.32 39.55,9.67 39.93,8.48 40.31,7.29 41.03,3.37 41.75,-0.55 42.03,-0.85 42.31,-1.15 42.67,-1.34 43.04,-1.54 43.44,-1.61 43.85,-1.68 44.25,-1.61 44.66,-1.55 45.03,-1.36 45.39,-1.17 45.68,-0.87 45.96,-0.57 46.14,-0.20 46.31,0.16 46.36,0.57 46.41,0.98 46.32,1.38 46.23,1.78 46.02,2.14 45.81,2.49 45.50,2.76 45.19,3.03 44.81,3.18 44.43,3.34 44.02,3.36 43.61,3.39 43.21,3.28 42.81,3.17 42.47,2.94 42.13,2.71 41.88,2.39 41.63,2.06 41.49,1.67 41.36,1.28 41.36,0.87 41.35,0.46 41.48,0.07 41.61,-0.31 41.86,-0.64 42.10,-0.97 42.44,-1.20 42.78,-1.44 43.18,-1.55 43.57,-1.66 43.98,-1.64 44.40,-1.62 44.78,-1.47 45.16,-1.32 45.48,-1.06 45.79,-0.79 46.01,-0.44 46.22,-0.09 46.31,0.30 46.40,0.70 46.36,1.11 46.32,1.52 46.15,1.90 45.98,2.27 45.98,2.27 45.98,2.27 45.74,4.21 45.50,6.15 45.22,7.50 44.94,8.85 44.38,10.47 43.81,12.09 42.72,14.34 41.62,16.59 40.39,17.92 39.15,19.25 37.83,19.88 36.51,20.52 34.87,20.84 33.23,21.17 31.63,20.86 30.03,20.55 28.86,19.96 27.69,19.38 26.47,18.46 25.25,17.54 24.25,16.30 23.25,15.05 22.55,13.81 21.84,12.57 21.19,11.19 20.53,9.81 19.97,8.27 19.41,6.74 19.24,4.26 19.08,1.77 19.37,0.06 19.66,-1.65 19.73,-2.00 19.80,-2.35 19.95,-2.68 20.10,-3.01 20.33,-3.29 20.55,-3.57 20.84,-3.79 21.13,-4.01 21.46,-4.15 21.79,-4.30 22.14,-4.36 22.50,-4.42 22.85,-4.39 23.21,-4.37 23.56,-4.25 23.90,-4.14 24.20,-3.95 24.51,-3.76 24.76,-3.51 25.01,-3.25 25.20,-2.94 25.38,-2.63 25.48,-2.28 25.59,-1.94 25.60,-1.58 25.62,-1.22 25.58,-0.84 25.55,-0.46 25.36,0.71 25.17,1.90 24.42,4.01 23.66,6.12 23.05,7.36 22.44,8.60 21.56,10.01 20.68,11.41 19.64,12.65 18.61,13.88 16.73,15.52 14.86,17.16 13.50,17.40 12.14,17.65 10.39,17.42 8.64,17.19 7.29,16.68 5.94,16.17 5.04,15.36 4.14,14.54 3.42,13.53 2.70,12.51 2.09,11.30 1.47,10.08 0.84,8.06 0.20,6.04 -0.02,4.55 -0.26,3.06 -0.92,2.58 -1.57,2.10 -1.80,1.88 -2.03,1.66 -2.20,1.39 -2.37,1.13 -2.47,0.82 -2.57,0.52 -2.60,0.21 -2.63,-0.10 -2.58,-0.41 -2.52,-0.73 -2.40,-1.02 -2.28,-1.31 -2.09,-1.56 -1.90,-1.82 -1.65,-2.02 -1.40,-2.22 -1.12,-2.36 -0.83,-2.49 -0.52,-2.56 -0.21,-2.62 0.10,-2.61 0.42,-2.59 0.72,-2.51 1.03,-2.42 1.30,-2.26 1.58,-2.10 1.57,-2.10 L 1.57,-2.10 Z"/></g><g transform="translate(68.66665649414062 52.666656494140625) rotate(0 5.333343505859375 0.333343505859375)" stroke="none"><path fill="#1e1e1e" d="M 0.35,-2.51 Q 0.35,-2.51 1.70,-2.32 3.04,-2.13 4.93,-2.09 6.82,-2.06 8.60,-2.05 10.39,-2.05 10.82,-1.98 11.26,-1.90 11.65,-1.69 12.03,-1.49 12.33,-1.16 12.63,-0.84 12.82,-0.44 13.00,-0.04 13.04,0.39 13.09,0.82 12.99,1.25 12.90,1.68 12.67,2.06 12.44,2.43 12.10,2.72 11.76,3.00 11.35,3.16 10.94,3.32 10.50,3.34 10.07,3.36 9.64,3.24 9.22,3.12 8.86,2.87 8.49,2.62 8.23,2.27 7.97,1.92 7.83,1.50 7.69,1.08 7.69,0.64 7.69,0.20 7.84,-0.20 7.98,-0.62 8.25,-0.97 8.52,-1.32 8.88,-1.56 9.25,-1.80 9.67,-1.92 10.10,-2.03 10.54,-2.01 10.98,-1.98 11.38,-1.82 11.79,-1.65 12.12,-1.36 12.46,-1.08 12.68,-0.70 12.91,-0.32 13.00,0.10 13.09,0.53 13.04,0.97 12.99,1.40 12.80,1.80 12.62,2.20 12.31,2.52 12.01,2.83 11.62,3.04 11.23,3.24 10.79,3.31 10.36,3.38 10.36,3.38 10.36,3.38 7.57,3.26 4.78,3.13 3.55,3.02 2.32,2.90 0.98,2.70 -0.35,2.51 -0.65,2.43 -0.94,2.35 -1.21,2.20 -1.48,2.05 -1.70,1.84 -1.93,1.64 -2.10,1.38 -2.27,1.13 -2.37,0.84 -2.47,0.55 -2.50,0.25 -2.53,-0.05 -2.49,-0.35 -2.44,-0.65 -2.33,-0.94 -2.22,-1.22 -2.04,-1.47 -1.86,-1.72 -1.62,-1.91 -1.39,-2.11 -1.12,-2.25 -0.84,-2.39 -0.55,-2.45 -0.25,-2.52 0.05,-2.51 0.35,-2.51 0.35,-2.51 L 0.35,-2.51 Z"/></g><g transform="translate(68.66665649414062 70) rotate(0 6.66668701171875 0)" stroke="none"><path fill="#1e1e1e" d="M 0,-2.32 Q 0,-2.32 2.49,-2.18 4.98,-2.05 6.61,-2.06 8.25,-2.07 10.64,-2.10 13.03,-2.14 13.38,-2.08 13.72,-2.02 14.02,-1.86 14.33,-1.70 14.57,-1.45 14.81,-1.20 14.95,-0.88 15.10,-0.57 15.13,-0.22 15.17,0.11 15.10,0.45 15.02,0.79 14.84,1.08 14.67,1.38 14.40,1.61 14.14,1.83 13.82,1.96 13.49,2.09 13.15,2.10 12.80,2.12 12.47,2.03 12.14,1.94 11.85,1.74 11.56,1.55 11.35,1.27 11.14,1.00 11.03,0.67 10.92,0.34 10.92,-0.00 10.92,-0.34 11.03,-0.67 11.14,-1.00 11.35,-1.27 11.56,-1.55 11.85,-1.74 12.14,-1.94 12.47,-2.03 12.80,-2.12 13.15,-2.10 13.50,-2.09 13.82,-1.96 14.14,-1.83 14.40,-1.60 14.67,-1.38 14.84,-1.08 15.02,-0.79 15.10,-0.45 15.17,-0.11 15.13,0.22 15.10,0.57 14.95,0.88 14.81,1.20 14.57,1.45 14.33,1.70 14.02,1.86 13.72,2.02 13.38,2.08 13.03,2.14 13.03,2.14 13.03,2.14 10.64,2.10 8.25,2.07 6.61,2.06 4.98,2.05 2.49,2.18 0,2.32 -0.27,2.28 -0.55,2.25 -0.81,2.15 -1.07,2.05 -1.30,1.89 -1.53,1.73 -1.72,1.52 -1.91,1.31 -2.04,1.07 -2.17,0.82 -2.23,0.55 -2.30,0.27 -2.30,-0.00 -2.30,-0.27 -2.23,-0.55 -2.17,-0.82 -2.04,-1.07 -1.91,-1.31 -1.72,-1.52 -1.53,-1.73 -1.30,-1.89 -1.07,-2.05 -0.81,-2.15 -0.55,-2.25 -0.27,-2.28 0.00,-2.32 0.00,-2.32 L 0,-2.32 Z"/></g></svg>